<svg class="rich-terminal" viewBox="0 0 1531 806.4" xmlns="http://www.w3.org/2000/svg">
    <!-- Generated with Rich https://www.textualize.io -->
    <style>

    @font-face {
        font-family: "Fira Code";
        src: local("FiraCode-Regular"),
                url("https://cdnjs.cloudflare.com/ajax/libs/firacode/6.2.0/woff2/FiraCode-Regular.woff2") format("woff2"),
                url("https://cdnjs.cloudflare.com/ajax/libs/firacode/6.2.0/woff/FiraCode-Regular.woff") format("woff");
        font-style: normal;
        font-weight: 400;
    }
    @font-face {
        font-family: "Fira Code";
        src: local("FiraCode-Bold"),
                url("https://cdnjs.cloudflare.com/ajax/libs/firacode/6.2.0/woff2/FiraCode-Bold.woff2") format("woff2"),
                url("https://cdnjs.cloudflare.com/ajax/libs/firacode/6.2.0/woff/FiraCode-Bold.woff") format("woff");
        font-style: bold;
        font-weight: 700;
    }

    .terminal-142402969-matrix {
        font-family: Fira Code, monospace;
        font-size: 20px;
        line-height: 24.4px;
        font-variant-east-asian: full-width;
    }

    .terminal-142402969-title {
        font-size: 18px;
        font-weight: bold;
        font-family: arial;
    }

    .terminal-142402969-r1 { fill: #c5c8c6 }
.terminal-142402969-r2 { fill: #e0e0e0 }
.terminal-142402969-r3 { fill: #121212 }
.terminal-142402969-r4 { fill: #539eff }
.terminal-142402969-r5 { fill: #6db2ff;font-weight: bold }
.terminal-142402969-r6 { fill: #e0e0e0;font-weight: bold }
.terminal-142402969-r7 { fill: #9d65ff;font-weight: bold }
.terminal-142402969-r8 { fill: #57636d }
.terminal-142402969-r9 { fill: #69747d;font-weight: bold }
.terminal-142402969-r10 { fill: #f4005f;font-weight: bold }
    </style>

    <defs>
    <clipPath id="terminal-142402969-clip-terminal">
      <rect x="0" y="0" width="1511.8" height="755.4" />
    </clipPath>
    <clipPath id="terminal-142402969-line-0">
    <rect x="0" y="1.5" width="1512.8" height="24.65"/>
            </clipPath>
<clipPath id="terminal-142402969-line-1">
    <rect x="0" y="25.9" width="1512.8" height="24.65"/>
            </clipPath>
<clipPath id="terminal-142402969-line-2">
    <rect x="0" y="50.3" width="1512.8" height="24.65"/>
            </clipPath>
<clipPath id="terminal-142402969-line-3">
    <rect x="0" y="74.7" width="1512.8" height="24.65"/>
            </clipPath>
<clipPath id="terminal-142402969-line-4">
    <rect x="0" y="99.1" width="1512.8" height="24.65"/>
            </clipPath>
<clipPath id="terminal-142402969-line-5">
    <rect x="0" y="123.5" width="1512.8" height="24.65"/>
            </clipPath>
<clipPath id="terminal-142402969-line-6">
    <rect x="0" y="147.9" width="1512.8" height="24.65"/>
            </clipPath>
<clipPath id="terminal-142402969-line-7">
    <rect x="0" y="172.3" width="1512.8" height="24.65"/>
            </clipPath>
<clipPath id="terminal-142402969-line-8">
    <rect x="0" y="196.7" width="1512.8" height="24.65"/>
            </clipPath>
<clipPath id="terminal-142402969-line-9">
    <rect x="0" y="221.1" width="1512.8" height="24.65"/>
            </clipPath>
<clipPath id="terminal-142402969-line-10">
    <rect x="0" y="245.5" width="1512.8" height="24.65"/>
            </clipPath>
<clipPath id="terminal-142402969-line-11">
    <rect x="0" y="269.9" width="1512.8" height="24.65"/>
            </clipPath>
<clipPath id="terminal-142402969-line-12">
    <rect x="0" y="294.3" width="1512.8" height="24.65"/>
            </clipPath>
<clipPath id="terminal-142402969-line-13">
    <rect x="0" y="318.7" width="1512.8" height="24.65"/>
            </clipPath>
<clipPath id="terminal-142402969-line-14">
    <rect x="0" y="343.1" width="1512.8" height="24.65"/>
            </clipPath>
<clipPath id="terminal-142402969-line-15">
    <rect x="0" y="367.5" width="1512.8" height="24.65"/>
            </clipPath>
<clipPath id="terminal-142402969-line-16">
    <rect x="0" y="391.9" width="1512.8" height="24.65"/>
            </clipPath>
<clipPath id="terminal-142402969-line-17">
    <rect x="0" y="416.3" width="1512.8" height="24.65"/>
            </clipPath>
<clipPath id="terminal-142402969-line-18">
    <rect x="0" y="440.7" width="1512.8" height="24.65"/>
            </clipPath>
<clipPath id="terminal-142402969-line-19">
    <rect x="0" y="465.1" width="1512.8" height="24.65"/>
            </clipPath>
<clipPath id="terminal-142402969-line-20">
    <rect x="0" y="489.5" width="1512.8" height="24.65"/>
            </clipPath>
<clipPath id="terminal-142402969-line-21">
    <rect x="0" y="513.9" width="1512.8" height="24.65"/>
            </clipPath>
<clipPath id="terminal-142402969-line-22">
    <rect x="0" y="538.3" width="1512.8" height="24.65"/>
            </clipPath>
<clipPath id="terminal-142402969-line-23">
    <rect x="0" y="562.7" width="1512.8" height="24.65"/>
            </clipPath>
<clipPath id="terminal-142402969-line-24">
    <rect x="0" y="587.1" width="1512.8" height="24.65"/>
            </clipPath>
<clipPath id="terminal-142402969-line-25">
    <rect x="0" y="611.5" width="1512.8" height="24.65"/>
            </clipPath>
<clipPath id="terminal-142402969-line-26">
    <rect x="0" y="635.9" width="1512.8" height="24.65"/>
            </clipPath>
<clipPath id="terminal-142402969-line-27">
    <rect x="0" y="660.3" width="1512.8" height="24.65"/>
            </clipPath>
<clipPath id="terminal-142402969-line-28">
    <rect x="0" y="684.7" width="1512.8" height="24.65"/>
            </clipPath>
<clipPath id="terminal-142402969-line-29">
    <rect x="0" y="709.1" width="1512.8" height="24.65"/>
            </clipPath>
    </defs>

    <rect fill="#292929" stroke="rgba(255,255,255,0.35)" stroke-width="1" x="1" y="1" width="1529" height="804.4" rx="8"/><text class="terminal-142402969-title" fill="#c5c8c6" text-anchor="middle" x="764" y="27">MooMooLah&#160;-&#160;Personal&#160;Budget&#160;Planner</text>
            <g transform="translate(26,22)">
            <circle cx="0" cy="0" r="7" fill="#ff5f57"/>
            <circle cx="22" cy="0" r="7" fill="#febc2e"/>
            <circle cx="44" cy="0" r="7" fill="#28c840"/>
            </g>
        
    <g transform="translate(9, 41)" clip-path="url(#terminal-142402969-clip-terminal)">
    <rect fill="#242f38" x="0" y="1.5" width="12.2" height="24.65" shape-rendering="crispEdges"/><rect fill="#242f38" x="12.2" y="1.5" width="12.2" height="24.65" shape-rendering="crispEdges"/><rect fill="#242f38" x="24.4" y="1.5" width="61" height="24.65" shape-rendering="crispEdges"/><rect fill="#242f38" x="85.4" y="1.5" width="12.2" height="24.65" shape-rendering="crispEdges"/><rect fill="#242f38" x="97.6" y="1.5" width="427" height="24.65" shape-rendering="crispEdges"/><rect fill="#242f38" x="524.6" y="1.5" width="427" height="24.65" shape-rendering="crispEdges"/><rect fill="#242f38" x="951.6" y="1.5" width="439.2" height="24.65" shape-rendering="crispEdges"/><rect fill="#242f38" x="1390.8" y="1.5" width="12.2" height="24.65" shape-rendering="crispEdges"/><rect fill="#242f38" x="1403" y="1.5" width="0" height="24.65" shape-rendering="crispEdges"/><rect fill="#242f38" x="1403" y="1.5" width="97.6" height="24.65" shape-rendering="crispEdges"/><rect fill="#242f38" x="1500.6" y="1.5" width="12.2" height="24.65" shape-rendering="crispEdges"/><rect fill="#539eff" x="0" y="25.9" width="12.2" height="24.65" shape-rendering="crispEdges"/><rect fill="#004295" x="12.2" y="25.9" width="1488.4" height="24.65" shape-rendering="crispEdges"/><rect fill="#121212" x="1500.6" y="25.9" width="12.2" height="24.65" shape-rendering="crispEdges"/><rect fill="#539eff" x="0" y="50.3" width="12.2" height="24.65" shape-rendering="crispEdges"/><rect fill="#004295" x="12.2" y="50.3" width="573.4" height="24.65" shape-rendering="crispEdges"/><rect fill="#004295" x="585.6" y="50.3" width="329.4" height="24.65" shape-rendering="crispEdges"/><rect fill="#004295" x="915" y="50.3" width="585.6" height="24.65" shape-rendering="crispEdges"/><rect fill="#121212" x="1500.6" y="50.3" width="12.2" height="24.65" shape-rendering="crispEdges"/><rect fill="#539eff" x="0" y="74.7" width="12.2" height="24.65" shape-rendering="crispEdges"/><rect fill="#004295" x="12.2" y="74.7" width="1488.4" height="24.65" shape-rendering="crispEdges"/><rect fill="#121212" x="1500.6" y="74.7" width="12.2" height="24.65" shape-rendering="crispEdges"/><rect fill="#121212" x="0" y="99.1" width="1512.8" height="24.65" shape-rendering="crispEdges"/><rect fill="#2d3740" x="0" y="123.5" width="195.2" height="24.65" shape-rendering="crispEdges"/><rect fill="#2d3740" x="195.2" y="123.5" width="122" height="24.65" shape-rendering="crispEdges"/><rect fill="#2d3740" x="317.2" y="123.5" width="97.6" height="24.65" shape-rendering="crispEdges"/><rect fill="#2d3740" x="414.8" y="123.5" width="109.8" height="24.65" shape-rendering="crispEdges"/><rect fill="#2b3339" x="524.6" y="123.5" width="988.2" height="24.65" shape-rendering="crispEdges"/><rect fill="#272727" x="0" y="147.9" width="195.2" height="24.65" shape-rendering="crispEdges"/><rect fill="#272727" x="195.2" y="147.9" width="12.2" height="24.65" shape-rendering="crispEdges"/><rect fill="#272727" x="207.4" y="147.9" width="97.6" height="24.65" shape-rendering="crispEdges"/><rect fill="#272727" x="305" y="147.9" width="12.2" height="24.65" shape-rendering="crispEdges"/><rect fill="#272727" x="317.2" y="147.9" width="12.2" height="24.65" shape-rendering="crispEdges"/><rect fill="#272727" x="329.4" y="147.9" width="73.2" height="24.65" shape-rendering="crispEdges"/><rect fill="#272727" x="402.6" y="147.9" width="12.2" height="24.65" shape-rendering="crispEdges"/><rect fill="#272727" x="414.8" y="147.9" width="12.2" height="24.65" shape-rendering="crispEdges"/><rect fill="#272727" x="427" y="147.9" width="85.4" height="24.65" shape-rendering="crispEdges"/><rect fill="#272727" x="512.4" y="147.9" width="12.2" height="24.65" shape-rendering="crispEdges"/><rect fill="#272727" x="524.6" y="147.9" width="988.2" height="24.65" shape-rendering="crispEdges"/><rect fill="#272727" x="0" y="172.3" width="195.2" height="24.65" shape-rendering="crispEdges"/><rect fill="#272727" x="195.2" y="172.3" width="12.2" height="24.65" shape-rendering="crispEdges"/><rect fill="#272727" x="207.4" y="172.3" width="97.6" height="24.65" shape-rendering="crispEdges"/><rect fill="#272727" x="305" y="172.3" width="12.2" height="24.65" shape-rendering="crispEdges"/><rect fill="#272727" x="317.2" y="172.3" width="12.2" height="24.65" shape-rendering="crispEdges"/><rect fill="#272727" x="329.4" y="172.3" width="73.2" height="24.65" shape-rendering="crispEdges"/><rect fill="#272727" x="402.6" y="172.3" width="12.2" height="24.65" shape-rendering="crispEdges"/><rect fill="#272727" x="414.8" y="172.3" width="12.2" height="24.65" shape-rendering="crispEdges"/><rect fill="#272727" x="427" y="172.3" width="85.4" height="24.65" shape-rendering="crispEdges"/><rect fill="#272727" x="512.4" y="172.3" width="12.2" height="24.65" shape-rendering="crispEdges"/><rect fill="#272727" x="524.6" y="172.3" width="988.2" height="24.65" shape-rendering="crispEdges"/><rect fill="#272727" x="0" y="196.7" width="195.2" height="24.65" shape-rendering="crispEdges"/><rect fill="#272727" x="195.2" y="196.7" width="12.2" height="24.65" shape-rendering="crispEdges"/><rect fill="#272727" x="207.4" y="196.7" width="97.6" height="24.65" shape-rendering="crispEdges"/><rect fill="#272727" x="305" y="196.7" width="12.2" height="24.65" shape-rendering="crispEdges"/><rect fill="#272727" x="317.2" y="196.7" width="12.2" height="24.65" shape-rendering="crispEdges"/><rect fill="#272727" x="329.4" y="196.7" width="73.2" height="24.65" shape-rendering="crispEdges"/><rect fill="#272727" x="402.6" y="196.7" width="12.2" height="24.65" shape-rendering="crispEdges"/><rect fill="#272727" x="414.8" y="196.7" width="12.2" height="24.65" shape-rendering="crispEdges"/><rect fill="#272727" x="427" y="196.7" width="85.4" height="24.65" shape-rendering="crispEdges"/><rect fill="#272727" x="512.4" y="196.7" width="12.2" height="24.65" shape-rendering="crispEdges"/><rect fill="#272727" x="524.6" y="196.7" width="988.2" height="24.65" shape-rendering="crispEdges"/><rect fill="#272727" x="0" y="221.1" width="195.2" height="24.65" shape-rendering="crispEdges"/><rect fill="#272727" x="195.2" y="221.1" width="12.2" height="24.65" shape-rendering="crispEdges"/><rect fill="#272727" x="207.4" y="221.1" width="97.6" height="24.65" shape-rendering="crispEdges"/><rect fill="#272727" x="305" y="221.1" width="12.2" height="24.65" shape-rendering="crispEdges"/><rect fill="#272727" x="317.2" y="221.1" width="12.2" height="24.65" shape-rendering="crispEdges"/><rect fill="#272727" x="329.4" y="221.1" width="73.2" height="24.65" shape-rendering="crispEdges"/><rect fill="#272727" x="402.6" y="221.1" width="12.2" height="24.65" shape-rendering="crispEdges"/><rect fill="#272727" x="414.8" y="221.1" width="12.2" height="24.65" shape-rendering="crispEdges"/><rect fill="#272727" x="427" y="221.1" width="85.4" height="24.65" shape-rendering="crispEdges"/><rect fill="#272727" x="512.4" y="221.1" width="12.2" height="24.65" shape-rendering="crispEdges"/><rect fill="#272727" x="524.6" y="221.1" width="988.2" height="24.65" shape-rendering="crispEdges"/><rect fill="#272727" x="0" y="245.5" width="195.2" height="24.65" shape-rendering="crispEdges"/><rect fill="#272727" x="195.2" y="245.5" width="12.2" height="24.65" shape-rendering="crispEdges"/><rect fill="#272727" x="207.4" y="245.5" width="97.6" height="24.65" shape-rendering="crispEdges"/><rect fill="#272727" x="305" y="245.5" width="12.2" height="24.65" shape-rendering="crispEdges"/><rect fill="#272727" x="317.2" y="245.5" width="12.2" height="24.65" shape-rendering="crispEdges"/><rect fill="#272727" x="329.4" y="245.5" width="73.2" height="24.65" shape-rendering="crispEdges"/><rect fill="#272727" x="402.6" y="245.5" width="12.2" height="24.65" shape-rendering="crispEdges"/><rect fill="#272727" x="414.8" y="245.5" width="12.2" height="24.65" shape-rendering="crispEdges"/><rect fill="#272727" x="427" y="245.5" width="85.4" height="24.65" shape-rendering="crispEdges"/><rect fill="#272727" x="512.4" y="245.5" width="12.2" height="24.65" shape-rendering="crispEdges"/><rect fill="#272727" x="524.6" y="245.5" width="988.2" height="24.65" shape-rendering="crispEdges"/><rect fill="#272727" x="0" y="269.9" width="195.2" height="24.65" shape-rendering="crispEdges"/><rect fill="#272727" x="195.2" y="269.9" width="12.2" height="24.65" shape-rendering="crispEdges"/><rect fill="#272727" x="207.4" y="269.9" width="97.6" height="24.65" shape-rendering="crispEdges"/><rect fill="#272727" x="305" y="269.9" width="12.2" height="24.65" shape-rendering="crispEdges"/><rect fill="#272727" x="317.2" y="269.9" width="12.2" height="24.65" shape-rendering="crispEdges"/><rect fill="#272727" x="329.4" y="269.9" width="73.2" height="24.65" shape-rendering="crispEdges"/><rect fill="#272727" x="402.6" y="269.9" width="12.2" height="24.65" shape-rendering="crispEdges"/><rect fill="#272727" x="414.8" y="269.9" width="12.2" height="24.65" shape-rendering="crispEdges"/><rect fill="#272727" x="427" y="269.9" width="85.4" height="24.65" shape-rendering="crispEdges"/><rect fill="#272727" x="512.4" y="269.9" width="12.2" height="24.65" shape-rendering="crispEdges"/><rect fill="#272727" x="524.6" y="269.9" width="988.2" height="24.65" shape-rendering="crispEdges"/><rect fill="#272727" x="0" y="294.3" width="195.2" height="24.65" shape-rendering="crispEdges"/><rect fill="#272727" x="195.2" y="294.3" width="12.2" height="24.65" shape-rendering="crispEdges"/><rect fill="#272727" x="207.4" y="294.3" width="97.6" height="24.65" shape-rendering="crispEdges"/><rect fill="#272727" x="305" y="294.3" width="12.2" height="24.65" shape-rendering="crispEdges"/><rect fill="#272727" x="317.2" y="294.3" width="12.2" height="24.65" shape-rendering="crispEdges"/><rect fill="#272727" x="329.4" y="294.3" width="73.2" height="24.65" shape-rendering="crispEdges"/><rect fill="#272727" x="402.6" y="294.3" width="12.2" height="24.65" shape-rendering="crispEdges"/><rect fill="#272727" x="414.8" y="294.3" width="12.2" height="24.65" shape-rendering="crispEdges"/><rect fill="#272727" x="427" y="294.3" width="85.4" height="24.65" shape-rendering="crispEdges"/><rect fill="#272727" x="512.4" y="294.3" width="12.2" height="24.65" shape-rendering="crispEdges"/><rect fill="#272727" x="524.6" y="294.3" width="988.2" height="24.65" shape-rendering="crispEdges"/><rect fill="#272727" x="0" y="318.7" width="195.2" height="24.65" shape-rendering="crispEdges"/><rect fill="#272727" x="195.2" y="318.7" width="12.2" height="24.65" shape-rendering="crispEdges"/><rect fill="#272727" x="207.4" y="318.7" width="97.6" height="24.65" shape-rendering="crispEdges"/><rect fill="#272727" x="305" y="318.7" width="12.2" height="24.65" shape-rendering="crispEdges"/><rect fill="#272727" x="317.2" y="318.7" width="12.2" height="24.65" shape-rendering="crispEdges"/><rect fill="#272727" x="329.4" y="318.7" width="73.2" height="24.65" shape-rendering="crispEdges"/><rect fill="#272727" x="402.6" y="318.7" width="12.2" height="24.65" shape-rendering="crispEdges"/><rect fill="#272727" x="414.8" y="318.7" width="12.2" height="24.65" shape-rendering="crispEdges"/><rect fill="#272727" x="427" y="318.7" width="85.4" height="24.65" shape-rendering="crispEdges"/><rect fill="#272727" x="512.4" y="318.7" width="12.2" height="24.65" shape-rendering="crispEdges"/><rect fill="#272727" x="524.6" y="318.7" width="988.2" height="24.65" shape-rendering="crispEdges"/><rect fill="#272727" x="0" y="343.1" width="195.2" height="24.65" shape-rendering="crispEdges"/><rect fill="#272727" x="195.2" y="343.1" width="12.2" height="24.65" shape-rendering="crispEdges"/><rect fill="#272727" x="207.4" y="343.1" width="97.6" height="24.65" shape-rendering="crispEdges"/><rect fill="#272727" x="305" y="343.1" width="12.2" height="24.65" shape-rendering="crispEdges"/><rect fill="#272727" x="317.2" y="343.1" width="12.2" height="24.65" shape-rendering="crispEdges"/><rect fill="#272727" x="329.4" y="343.1" width="73.2" height="24.65" shape-rendering="crispEdges"/><rect fill="#272727" x="402.6" y="343.1" width="12.2" height="24.65" shape-rendering="crispEdges"/><rect fill="#272727" x="414.8" y="343.1" width="12.2" height="24.65" shape-rendering="crispEdges"/><rect fill="#272727" x="427" y="343.1" width="85.4" height="24.65" shape-rendering="crispEdges"/><rect fill="#272727" x="512.4" y="343.1" width="12.2" height="24.65" shape-rendering="crispEdges"/><rect fill="#272727" x="524.6" y="343.1" width="988.2" height="24.65" shape-rendering="crispEdges"/><rect fill="#272727" x="0" y="367.5" width="195.2" height="24.65" shape-rendering="crispEdges"/><rect fill="#272727" x="195.2" y="367.5" width="12.2" height="24.65" shape-rendering="crispEdges"/><rect fill="#272727" x="207.4" y="367.5" width="97.6" height="24.65" shape-rendering="crispEdges"/><rect fill="#272727" x="305" y="367.5" width="12.2" height="24.65" shape-rendering="crispEdges"/><rect fill="#272727" x="317.2" y="367.5" width="12.2" height="24.65" shape-rendering="crispEdges"/><rect fill="#272727" x="329.4" y="367.5" width="73.2" height="24.65" shape-rendering="crispEdges"/><rect fill="#272727" x="402.6" y="367.5" width="12.2" height="24.65" shape-rendering="crispEdges"/><rect fill="#272727" x="414.8" y="367.5" width="12.2" height="24.65" shape-rendering="crispEdges"/><rect fill="#272727" x="427" y="367.5" width="85.4" height="24.65" shape-rendering="crispEdges"/><rect fill="#272727" x="512.4" y="367.5" width="12.2" height="24.65" shape-rendering="crispEdges"/><rect fill="#272727" x="524.6" y="367.5" width="988.2" height="24.65" shape-rendering="crispEdges"/><rect fill="#272727" x="0" y="391.9" width="195.2" height="24.65" shape-rendering="crispEdges"/><rect fill="#272727" x="195.2" y="391.9" width="12.2" height="24.65" shape-rendering="crispEdges"/><rect fill="#272727" x="207.4" y="391.9" width="97.6" height="24.65" shape-rendering="crispEdges"/><rect fill="#272727" x="305" y="391.9" width="12.2" height="24.65" shape-rendering="crispEdges"/><rect fill="#272727" x="317.2" y="391.9" width="12.2" height="24.65" shape-rendering="crispEdges"/><rect fill="#272727" x="329.4" y="391.9" width="73.2" height="24.65" shape-rendering="crispEdges"/><rect fill="#272727" x="402.6" y="391.9" width="12.2" height="24.65" shape-rendering="crispEdges"/><rect fill="#272727" x="414.8" y="391.9" width="12.2" height="24.65" shape-rendering="crispEdges"/><rect fill="#272727" x="427" y="391.9" width="85.4" height="24.65" shape-rendering="crispEdges"/><rect fill="#272727" x="512.4" y="391.9" width="12.2" height="24.65" shape-rendering="crispEdges"/><rect fill="#272727" x="524.6" y="391.9" width="988.2" height="24.65" shape-rendering="crispEdges"/><rect fill="#272727" x="0" y="416.3" width="195.2" height="24.65" shape-rendering="crispEdges"/><rect fill="#272727" x="195.2" y="416.3" width="12.2" height="24.65" shape-rendering="crispEdges"/><rect fill="#272727" x="207.4" y="416.3" width="97.6" height="24.65" shape-rendering="crispEdges"/><rect fill="#272727" x="305" y="416.3" width="12.2" height="24.65" shape-rendering="crispEdges"/><rect fill="#272727" x="317.2" y="416.3" width="12.2" height="24.65" shape-rendering="crispEdges"/><rect fill="#272727" x="329.4" y="416.3" width="73.2" height="24.65" shape-rendering="crispEdges"/><rect fill="#272727" x="402.6" y="416.3" width="12.2" height="24.65" shape-rendering="crispEdges"/><rect fill="#272727" x="414.8" y="416.3" width="12.2" height="24.65" shape-rendering="crispEdges"/><rect fill="#272727" x="427" y="416.3" width="85.4" height="24.65" shape-rendering="crispEdges"/><rect fill="#272727" x="512.4" y="416.3" width="12.2" height="24.65" shape-rendering="crispEdges"/><rect fill="#272727" x="524.6" y="416.3" width="988.2" height="24.65" shape-rendering="crispEdges"/><rect fill="#121212" x="0" y="440.7" width="1512.8" height="24.65" shape-rendering="crispEdges"/><rect fill="#121212" x="0" y="465.1" width="1512.8" height="24.65" shape-rendering="crispEdges"/><rect fill="#57636d" x="0" y="489.5" width="12.2" height="24.65" shape-rendering="crispEdges"/><rect fill="#0f212f" x="12.2" y="489.5" width="1488.4" height="24.65" shape-rendering="crispEdges"/><rect fill="#121212" x="1500.6" y="489.5" width="12.2" height="24.65" shape-rendering="crispEdges"/><rect fill="#57636d" x="0" y="513.9" width="12.2" height="24.65" shape-rendering="crispEdges"/><rect fill="#0f212f" x="12.2" y="513.9" width="634.4" height="24.65" shape-rendering="crispEdges"/><rect fill="#0f212f" x="646.6" y="513.9" width="207.4" height="24.65" shape-rendering="crispEdges"/><rect fill="#0f212f" x="854" y="513.9" width="646.6" height="24.65" shape-rendering="crispEdges"/><rect fill="#121212" x="1500.6" y="513.9" width="12.2" height="24.65" shape-rendering="crispEdges"/><rect fill="#57636d" x="0" y="538.3" width="12.2" height="24.65" shape-rendering="crispEdges"/><rect fill="#0f212f" x="12.2" y="538.3" width="1488.4" height="24.65" shape-rendering="crispEdges"/><rect fill="#121212" x="1500.6" y="538.3" width="12.2" height="24.65" shape-rendering="crispEdges"/><rect fill="#121212" x="0" y="562.7" width="1512.8" height="24.65" shape-rendering="crispEdges"/><rect fill="#242f38" x="0" y="587.1" width="146.4" height="24.65" shape-rendering="crispEdges"/><rect fill="#242f38" x="146.4" y="587.1" width="122" height="24.65" shape-rendering="crispEdges"/><rect fill="#242f38" x="268.4" y="587.1" width="97.6" height="24.65" shape-rendering="crispEdges"/><rect fill="#242f38" x="366" y="587.1" width="109.8" height="24.65" shape-rendering="crispEdges"/><rect fill="#222a31" x="475.8" y="587.1" width="1037" height="24.65" shape-rendering="crispEdges"/><rect fill="#1e1e1e" x="0" y="611.5" width="146.4" height="24.65" shape-rendering="crispEdges"/><rect fill="#1e1e1e" x="146.4" y="611.5" width="12.2" height="24.65" shape-rendering="crispEdges"/><rect fill="#1e1e1e" x="158.6" y="611.5" width="97.6" height="24.65" shape-rendering="crispEdges"/><rect fill="#1e1e1e" x="256.2" y="611.5" width="12.2" height="24.65" shape-rendering="crispEdges"/><rect fill="#1e1e1e" x="268.4" y="611.5" width="12.2" height="24.65" shape-rendering="crispEdges"/><rect fill="#1e1e1e" x="280.6" y="611.5" width="73.2" height="24.65" shape-rendering="crispEdges"/><rect fill="#1e1e1e" x="353.8" y="611.5" width="12.2" height="24.65" shape-rendering="crispEdges"/><rect fill="#1e1e1e" x="366" y="611.5" width="12.2" height="24.65" shape-rendering="crispEdges"/><rect fill="#1e1e1e" x="378.2" y="611.5" width="85.4" height="24.65" shape-rendering="crispEdges"/><rect fill="#1e1e1e" x="463.6" y="611.5" width="12.2" height="24.65" shape-rendering="crispEdges"/><rect fill="#1e1e1e" x="475.8" y="611.5" width="1037" height="24.65" shape-rendering="crispEdges"/><rect fill="#1e1e1e" x="0" y="635.9" width="146.4" height="24.65" shape-rendering="crispEdges"/><rect fill="#1e1e1e" x="146.4" y="635.9" width="12.2" height="24.65" shape-rendering="crispEdges"/><rect fill="#1e1e1e" x="158.6" y="635.9" width="97.6" height="24.65" shape-rendering="crispEdges"/><rect fill="#1e1e1e" x="256.2" y="635.9" width="12.2" height="24.65" shape-rendering="crispEdges"/><rect fill="#1e1e1e" x="268.4" y="635.9" width="12.2" height="24.65" shape-rendering="crispEdges"/><rect fill="#1e1e1e" x="280.6" y="635.9" width="73.2" height="24.65" shape-rendering="crispEdges"/><rect fill="#1e1e1e" x="353.8" y="635.9" width="12.2" height="24.65" shape-rendering="crispEdges"/><rect fill="#1e1e1e" x="366" y="635.9" width="12.2" height="24.65" shape-rendering="crispEdges"/><rect fill="#1e1e1e" x="378.2" y="635.9" width="85.4" height="24.65" shape-rendering="crispEdges"/><rect fill="#1e1e1e" x="463.6" y="635.9" width="12.2" height="24.65" shape-rendering="crispEdges"/><rect fill="#1e1e1e" x="475.8" y="635.9" width="1037" height="24.65" shape-rendering="crispEdges"/><rect fill="#1e1e1e" x="0" y="660.3" width="146.4" height="24.65" shape-rendering="crispEdges"/><rect fill="#1e1e1e" x="146.4" y="660.3" width="12.2" height="24.65" shape-rendering="crispEdges"/><rect fill="#1e1e1e" x="158.6" y="660.3" width="97.6" height="24.65" shape-rendering="crispEdges"/><rect fill="#1e1e1e" x="256.2" y="660.3" width="12.2" height="24.65" shape-rendering="crispEdges"/><rect fill="#1e1e1e" x="268.4" y="660.3" width="12.2" height="24.65" shape-rendering="crispEdges"/><rect fill="#1e1e1e" x="280.6" y="660.3" width="73.2" height="24.65" shape-rendering="crispEdges"/><rect fill="#1e1e1e" x="353.8" y="660.3" width="12.2" height="24.65" shape-rendering="crispEdges"/><rect fill="#1e1e1e" x="366" y="660.3" width="12.2" height="24.65" shape-rendering="crispEdges"/><rect fill="#1e1e1e" x="378.2" y="660.3" width="85.4" height="24.65" shape-rendering="crispEdges"/><rect fill="#1e1e1e" x="463.6" y="660.3" width="12.2" height="24.65" shape-rendering="crispEdges"/><rect fill="#1e1e1e" x="475.8" y="660.3" width="1037" height="24.65" shape-rendering="crispEdges"/><rect fill="#121212" x="0" y="684.7" width="1512.8" height="24.65" shape-rendering="crispEdges"/><rect fill="#121212" x="0" y="709.1" width="1512.8" height="24.65" shape-rendering="crispEdges"/><rect fill="#242f38" x="0" y="733.5" width="231.8" height="24.65" shape-rendering="crispEdges"/><rect fill="#242f38" x="231.8" y="733.5" width="207.4" height="24.65" shape-rendering="crispEdges"/><rect fill="#242f38" x="439.2" y="733.5" width="219.6" height="24.65" shape-rendering="crispEdges"/><rect fill="#242f38" x="658.8" y="733.5" width="109.8" height="24.65" shape-rendering="crispEdges"/><rect fill="#242f38" x="768.6" y="733.5" width="109.8" height="24.65" shape-rendering="crispEdges"/><rect fill="#242f38" x="878.4" y="733.5" width="488" height="24.65" shape-rendering="crispEdges"/><rect fill="#242f38" x="1366.4" y="733.5" width="146.4" height="24.65" shape-rendering="crispEdges"/>
    <g class="terminal-142402969-matrix">
    <text class="terminal-142402969-r2" x="12.2" y="20" textLength="12.2" clip-path="url(#terminal-142402969-line-0)">⭘</text><text class="terminal-142402969-r2" x="524.6" y="20" textLength="427" clip-path="url(#terminal-142402969-line-0)">MooMooLah&#160;-&#160;Personal&#160;Budget&#160;Planner</text><text class="terminal-142402969-r1" x="1512.8" y="20" textLength="12.2" clip-path="url(#terminal-142402969-line-0)">
</text><text class="terminal-142402969-r3" x="0" y="44.4" textLength="12.2" clip-path="url(#terminal-142402969-line-1)">▊</text><text class="terminal-142402969-r4" x="12.2" y="44.4" textLength="1488.4" clip-path="url(#terminal-142402969-line-1)">▔▔▔▔▔▔▔▔▔▔▔▔▔▔▔▔▔▔▔▔▔▔▔▔▔▔▔▔▔▔▔▔▔▔▔▔▔▔▔▔▔▔▔▔▔▔▔▔▔▔▔▔▔▔▔▔▔▔▔▔▔▔▔▔▔▔▔▔▔▔▔▔▔▔▔▔▔▔▔▔▔▔▔▔▔▔▔▔▔▔▔▔▔▔▔▔▔▔▔▔▔▔▔▔▔▔▔▔▔▔▔▔▔▔▔▔▔▔▔▔▔▔</text><text class="terminal-142402969-r4" x="1500.6" y="44.4" textLength="12.2" clip-path="url(#terminal-142402969-line-1)">▎</text><text class="terminal-142402969-r1" x="1512.8" y="44.4" textLength="12.2" clip-path="url(#terminal-142402969-line-1)">
</text><text class="terminal-142402969-r3" x="0" y="68.8" textLength="12.2" clip-path="url(#terminal-142402969-line-2)">▊</text><text class="terminal-142402969-r5" x="585.6" y="68.8" textLength="329.4" clip-path="url(#terminal-142402969-line-2)">FORECAST&#160;FOR&#160;NEXT&#160;12&#160;MONTHS</text><text class="terminal-142402969-r4" x="1500.6" y="68.8" textLength="12.2" clip-path="url(#terminal-142402969-line-2)">▎</text><text class="terminal-142402969-r1" x="1512.8" y="68.8" textLength="12.2" clip-path="url(#terminal-142402969-line-2)">
</text><text class="terminal-142402969-r3" x="0" y="93.2" textLength="12.2" clip-path="url(#terminal-142402969-line-3)">▊</text><text class="terminal-142402969-r4" x="12.2" y="93.2" textLength="1488.4" clip-path="url(#terminal-142402969-line-3)">▁▁▁▁▁▁▁▁▁▁▁▁▁▁▁▁▁▁▁▁▁▁▁▁▁▁▁▁▁▁▁▁▁▁▁▁▁▁▁▁▁▁▁▁▁▁▁▁▁▁▁▁▁▁▁▁▁▁▁▁▁▁▁▁▁▁▁▁▁▁▁▁▁▁▁▁▁▁▁▁▁▁▁▁▁▁▁▁▁▁▁▁▁▁▁▁▁▁▁▁▁▁▁▁▁▁▁▁▁▁▁▁▁▁▁▁▁▁▁▁▁▁</text><text class="terminal-142402969-r4" x="1500.6" y="93.2" textLength="12.2" clip-path="url(#terminal-142402969-line-3)">▎</text><text class="terminal-142402969-r1" x="1512.8" y="93.2" textLength="12.2" clip-path="url(#terminal-142402969-line-3)">
</text><text class="terminal-142402969-r1" x="1512.8" y="117.6" textLength="12.2" clip-path="url(#terminal-142402969-line-4)">
</text><text class="terminal-142402969-r6" x="0" y="142" textLength="195.2" clip-path="url(#terminal-142402969-line-5)">&#160;Month&#160;&#160;&#160;&#160;&#160;&#160;&#160;&#160;&#160;&#160;</text><text class="terminal-142402969-r6" x="195.2" y="142" textLength="122" clip-path="url(#terminal-142402969-line-5)">&#160;Expenses&#160;</text><text class="terminal-142402969-r6" x="317.2" y="142" textLength="97.6" clip-path="url(#terminal-142402969-line-5)">&#160;Income&#160;</text><text class="terminal-142402969-r6" x="414.8" y="142" textLength="109.8" clip-path="url(#terminal-142402969-line-5)">&#160;Balance&#160;</text><text class="terminal-142402969-r1" x="1512.8" y="142" textLength="12.2" clip-path="url(#terminal-142402969-line-5)">
</text><text class="terminal-142402969-r2" x="0" y="166.4" textLength="195.2" clip-path="url(#terminal-142402969-line-6)">&#160;June&#160;2025&#160;&#160;&#160;&#160;&#160;&#160;</text><text class="terminal-142402969-r6" x="207.4" y="166.4" textLength="97.6" clip-path="url(#terminal-142402969-line-6)">&#160;&#160;&#160;€1002</text><text class="terminal-142402969-r6" x="329.4" y="166.4" textLength="73.2" clip-path="url(#terminal-142402969-line-6)">&#160;€1600</text><text class="terminal-142402969-r7" x="427" y="166.4" textLength="85.4" clip-path="url(#terminal-142402969-line-6)">&#160;&#160;&#160;€598</text><text class="terminal-142402969-r1" x="1512.8" y="166.4" textLength="12.2" clip-path="url(#terminal-142402969-line-6)">
</text><text class="terminal-142402969-r2" x="0" y="190.8" textLength="195.2" clip-path="url(#terminal-142402969-line-7)">&#160;July&#160;2025&#160;&#160;&#160;&#160;&#160;&#160;</text><text class="terminal-142402969-r6" x="207.4" y="190.8" textLength="97.6" clip-path="url(#terminal-142402969-line-7)">&#160;&#160;&#160;€1002</text><text class="terminal-142402969-r6" x="329.4" y="190.8" textLength="73.2" clip-path="url(#terminal-142402969-line-7)">&#160;€1600</text><text class="terminal-142402969-r7" x="427" y="190.8" textLength="85.4" clip-path="url(#terminal-142402969-line-7)">&#160;&#160;&#160;€598</text><text class="terminal-142402969-r1" x="1512.8" y="190.8" textLength="12.2" clip-path="url(#terminal-142402969-line-7)">
</text><text class="terminal-142402969-r2" x="0" y="215.2" textLength="195.2" clip-path="url(#terminal-142402969-line-8)">&#160;August&#160;2025&#160;&#160;&#160;&#160;</text><text class="terminal-142402969-r6" x="207.4" y="215.2" textLength="97.6" clip-path="url(#terminal-142402969-line-8)">&#160;&#160;&#160;€1002</text><text class="terminal-142402969-r6" x="329.4" y="215.2" textLength="73.2" clip-path="url(#terminal-142402969-line-8)">&#160;€1600</text><text class="terminal-142402969-r7" x="427" y="215.2" textLength="85.4" clip-path="url(#terminal-142402969-line-8)">&#160;&#160;&#160;€598</text><text class="terminal-142402969-r1" x="1512.8" y="215.2" textLength="12.2" clip-path="url(#terminal-142402969-line-8)">
</text><text class="terminal-142402969-r2" x="0" y="239.6" textLength="195.2" clip-path="url(#terminal-142402969-line-9)">&#160;September&#160;2025&#160;</text><text class="terminal-142402969-r6" x="207.4" y="239.6" textLength="97.6" clip-path="url(#terminal-142402969-line-9)">&#160;&#160;&#160;€1002</text><text class="terminal-142402969-r6" x="329.4" y="239.6" textLength="73.2" clip-path="url(#terminal-142402969-line-9)">&#160;€1600</text><text class="terminal-142402969-r7" x="427" y="239.6" textLength="85.4" clip-path="url(#terminal-142402969-line-9)">&#160;&#160;&#160;€598</text><text class="terminal-142402969-r1" x="1512.8" y="239.6" textLength="12.2" clip-path="url(#terminal-142402969-line-9)">
</text><text class="terminal-142402969-r2" x="0" y="264" textLength="195.2" clip-path="url(#terminal-142402969-line-10)">&#160;October&#160;2025&#160;&#160;&#160;</text><text class="terminal-142402969-r6" x="207.4" y="264" textLength="97.6" clip-path="url(#terminal-142402969-line-10)">&#160;&#160;&#160;€1002</text><text class="terminal-142402969-r6" x="329.4" y="264" textLength="73.2" clip-path="url(#terminal-142402969-line-10)">&#160;€1600</text><text class="terminal-142402969-r7" x="427" y="264" textLength="85.4" clip-path="url(#terminal-142402969-line-10)">&#160;&#160;&#160;€598</text><text class="terminal-142402969-r1" x="1512.8" y="264" textLength="12.2" clip-path="url(#terminal-142402969-line-10)">
</text><text class="terminal-142402969-r2" x="0" y="288.4" textLength="195.2" clip-path="url(#terminal-142402969-line-11)">&#160;November&#160;2025&#160;&#160;</text><text class="terminal-142402969-r6" x="207.4" y="288.4" textLength="97.6" clip-path="url(#terminal-142402969-line-11)">&#160;&#160;&#160;€1002</text><text class="terminal-142402969-r6" x="329.4" y="288.4" textLength="73.2" clip-path="url(#terminal-142402969-line-11)">&#160;€1600</text><text class="terminal-142402969-r7" x="427" y="288.4" textLength="85.4" clip-path="url(#terminal-142402969-line-11)">&#160;&#160;&#160;€598</text><text class="terminal-142402969-r1" x="1512.8" y="288.4" textLength="12.2" clip-path="url(#terminal-142402969-line-11)">
</text><text class="terminal-142402969-r2" x="0" y="312.8" textLength="195.2" clip-path="url(#terminal-142402969-line-12)">&#160;December&#160;2025&#160;&#160;</text><text class="terminal-142402969-r6" x="207.4" y="312.8" textLength="97.6" clip-path="url(#terminal-142402969-line-12)">&#160;&#160;&#160;€1002</text><text class="terminal-142402969-r6" x="329.4" y="312.8" textLength="73.2" clip-path="url(#terminal-142402969-line-12)">&#160;€1600</text><text class="terminal-142402969-r7" x="427" y="312.8" textLength="85.4" clip-path="url(#terminal-142402969-line-12)">&#160;&#160;&#160;€598</text><text class="terminal-142402969-r1" x="1512.8" y="312.8" textLength="12.2" clip-path="url(#terminal-142402969-line-12)">
</text><text class="terminal-142402969-r2" x="0" y="337.2" textLength="195.2" clip-path="url(#terminal-142402969-line-13)">&#160;January&#160;2026&#160;&#160;&#160;</text><text class="terminal-142402969-r6" x="207.4" y="337.2" textLength="97.6" clip-path="url(#terminal-142402969-line-13)">&#160;&#160;&#160;€1002</text><text class="terminal-142402969-r6" x="329.4" y="337.2" textLength="73.2" clip-path="url(#terminal-142402969-line-13)">&#160;€1600</text><text class="terminal-142402969-r7" x="427" y="337.2" textLength="85.4" clip-path="url(#terminal-142402969-line-13)">&#160;&#160;&#160;€598</text><text class="terminal-142402969-r1" x="1512.8" y="337.2" textLength="12.2" clip-path="url(#terminal-142402969-line-13)">
</text><text class="terminal-142402969-r2" x="0" y="361.6" textLength="195.2" clip-path="url(#terminal-142402969-line-14)">&#160;February&#160;2026&#160;&#160;</text><text class="terminal-142402969-r6" x="207.4" y="361.6" textLength="97.6" clip-path="url(#terminal-142402969-line-14)">&#160;&#160;&#160;€1002</text><text class="terminal-142402969-r6" x="329.4" y="361.6" textLength="73.2" clip-path="url(#terminal-142402969-line-14)">&#160;€1600</text><text class="terminal-142402969-r7" x="427" y="361.6" textLength="85.4" clip-path="url(#terminal-142402969-line-14)">&#160;&#160;&#160;€598</text><text class="terminal-142402969-r1" x="1512.8" y="361.6" textLength="12.2" clip-path="url(#terminal-142402969-line-14)">
</text><text class="terminal-142402969-r2" x="0" y="386" textLength="195.2" clip-path="url(#terminal-142402969-line-15)">&#160;March&#160;2026&#160;&#160;&#160;&#160;&#160;</text><text class="terminal-142402969-r6" x="207.4" y="386" textLength="97.6" clip-path="url(#terminal-142402969-line-15)">&#160;&#160;&#160;€1002</text><text class="terminal-142402969-r6" x="329.4" y="386" textLength="73.2" clip-path="url(#terminal-142402969-line-15)">&#160;€1600</text><text class="terminal-142402969-r7" x="427" y="386" textLength="85.4" clip-path="url(#terminal-142402969-line-15)">&#160;&#160;&#160;€598</text><text class="terminal-142402969-r1" x="1512.8" y="386" textLength="12.2" clip-path="url(#terminal-142402969-line-15)">
</text><text class="terminal-142402969-r2" x="0" y="410.4" textLength="195.2" clip-path="url(#terminal-142402969-line-16)">&#160;April&#160;2026&#160;&#160;&#160;&#160;&#160;</text><text class="terminal-142402969-r6" x="207.4" y="410.4" textLength="97.6" clip-path="url(#terminal-142402969-line-16)">&#160;&#160;&#160;€1002</text><text class="terminal-142402969-r6" x="329.4" y="410.4" textLength="73.2" clip-path="url(#terminal-142402969-line-16)">&#160;€1600</text><text class="terminal-142402969-r7" x="427" y="410.4" textLength="85.4" clip-path="url(#terminal-142402969-line-16)">&#160;&#160;&#160;€598</text><text class="terminal-142402969-r1" x="1512.8" y="410.4" textLength="12.2" clip-path="url(#terminal-142402969-line-16)">
</text><text class="terminal-142402969-r2" x="0" y="434.8" textLength="195.2" clip-path="url(#terminal-142402969-line-17)">&#160;May&#160;2026&#160;&#160;&#160;&#160;&#160;&#160;&#160;</text><text class="terminal-142402969-r6" x="207.4" y="434.8" textLength="97.6" clip-path="url(#terminal-142402969-line-17)">&#160;&#160;&#160;€1002</text><text class="terminal-142402969-r6" x="329.4" y="434.8" textLength="73.2" clip-path="url(#terminal-142402969-line-17)">&#160;€1600</text><text class="terminal-142402969-r7" x="427" y="434.8" textLength="85.4" clip-path="url(#terminal-142402969-line-17)">&#160;&#160;&#160;€598</text><text class="terminal-142402969-r1" x="1512.8" y="434.8" textLength="12.2" clip-path="url(#terminal-142402969-line-17)">
</text><text class="terminal-142402969-r1" x="1512.8" y="459.2" textLength="12.2" clip-path="url(#terminal-142402969-line-18)">
</text><text class="terminal-142402969-r1" x="1512.8" y="483.6" textLength="12.2" clip-path="url(#terminal-142402969-line-19)">
</text><text class="terminal-142402969-r3" x="0" y="508" textLength="12.2" clip-path="url(#terminal-142402969-line-20)">▊</text><text class="terminal-142402969-r8" x="12.2" y="508" textLength="1488.4" clip-path="url(#terminal-142402969-line-20)">▔▔▔▔▔▔▔▔▔▔▔▔▔▔▔▔▔▔▔▔▔▔▔▔▔▔▔▔▔▔▔▔▔▔▔▔▔▔▔▔▔▔▔▔▔▔▔▔▔▔▔▔▔▔▔▔▔▔▔▔▔▔▔▔▔▔▔▔▔▔▔▔▔▔▔▔▔▔▔▔▔▔▔▔▔▔▔▔▔▔▔▔▔▔▔▔▔▔▔▔▔▔▔▔▔▔▔▔▔▔▔▔▔▔▔▔▔▔▔▔▔▔</text><text class="terminal-142402969-r8" x="1500.6" y="508" textLength="12.2" clip-path="url(#terminal-142402969-line-20)">▎</text><text class="terminal-142402969-r1" x="1512.8" y="508" textLength="12.2" clip-path="url(#terminal-142402969-line-20)">
</text><text class="terminal-142402969-r3" x="0" y="532.4" textLength="12.2" clip-path="url(#terminal-142402969-line-21)">▊</text><text class="terminal-142402969-r9" x="646.6" y="532.4" textLength="207.4" clip-path="url(#terminal-142402969-line-21)">PREVIOUS&#160;3&#160;MONTHS</text><text class="terminal-142402969-r8" x="1500.6" y="532.4" textLength="12.2" clip-path="url(#terminal-142402969-line-21)">▎</text><text class="terminal-142402969-r1" x="1512.8" y="532.4" textLength="12.2" clip-path="url(#terminal-142402969-line-21)">
</text><text class="terminal-142402969-r3" x="0" y="556.8" textLength="12.2" clip-path="url(#terminal-142402969-line-22)">▊</text><text class="terminal-142402969-r8" x="12.2" y="556.8" textLength="1488.4" clip-path="url(#terminal-142402969-line-22)">▁▁▁▁▁▁▁▁▁▁▁▁▁▁▁▁▁▁▁▁▁▁▁▁▁▁▁▁▁▁▁▁▁▁▁▁▁▁▁▁▁▁▁▁▁▁▁▁▁▁▁▁▁▁▁▁▁▁▁▁▁▁▁▁▁▁▁▁▁▁▁▁▁▁▁▁▁▁▁▁▁▁▁▁▁▁▁▁▁▁▁▁▁▁▁▁▁▁▁▁▁▁▁▁▁▁▁▁▁▁▁▁▁▁▁▁▁▁▁▁▁▁</text><text class="terminal-142402969-r8" x="1500.6" y="556.8" textLength="12.2" clip-path="url(#terminal-142402969-line-22)">▎</text><text class="terminal-142402969-r1" x="1512.8" y="556.8" textLength="12.2" clip-path="url(#terminal-142402969-line-22)">
</text><text class="terminal-142402969-r1" x="1512.8" y="581.2" textLength="12.2" clip-path="url(#terminal-142402969-line-23)">
</text><text class="terminal-142402969-r6" x="0" y="605.6" textLength="146.4" clip-path="url(#terminal-142402969-line-24)">&#160;Month&#160;&#160;&#160;&#160;&#160;&#160;</text><text class="terminal-142402969-r6" x="146.4" y="605.6" textLength="122" clip-path="url(#terminal-142402969-line-24)">&#160;Expenses&#160;</text><text class="terminal-142402969-r6" x="268.4" y="605.6" textLength="97.6" clip-path="url(#terminal-142402969-line-24)">&#160;Income&#160;</text><text class="terminal-142402969-r6" x="366" y="605.6" textLength="109.8" clip-path="url(#terminal-142402969-line-24)">&#160;Balance&#160;</text><text class="terminal-142402969-r1" x="1512.8" y="605.6" textLength="12.2" clip-path="url(#terminal-142402969-line-24)">
</text><text class="terminal-142402969-r2" x="0" y="630" textLength="146.4" clip-path="url(#terminal-142402969-line-25)">&#160;March&#160;2025&#160;</text><text class="terminal-142402969-r6" x="158.6" y="630" textLength="97.6" clip-path="url(#terminal-142402969-line-25)">&#160;&#160;&#160;&#160;€852</text><text class="terminal-142402969-r6" x="280.6" y="630" textLength="73.2" clip-path="url(#terminal-142402969-line-25)">&#160;€1600</text><text class="terminal-142402969-r7" x="378.2" y="630" textLength="85.4" clip-path="url(#terminal-142402969-line-25)">&#160;&#160;&#160;€748</text><text class="terminal-142402969-r1" x="1512.8" y="630" textLength="12.2" clip-path="url(#terminal-142402969-line-25)">
</text><text class="terminal-142402969-r2" x="0" y="654.4" textLength="146.4" clip-path="url(#terminal-142402969-line-26)">&#160;April&#160;2025&#160;</text><text class="terminal-142402969-r6" x="158.6" y="654.4" textLength="97.6" clip-path="url(#terminal-142402969-line-26)">&#160;&#160;&#160;&#160;€852</text><text class="terminal-142402969-r6" x="280.6" y="654.4" textLength="73.2" clip-path="url(#terminal-142402969-line-26)">&#160;€1600</text><text class="terminal-142402969-r7" x="378.2" y="654.4" textLength="85.4" clip-path="url(#terminal-142402969-line-26)">&#160;&#160;&#160;€748</text><text class="terminal-142402969-r1" x="1512.8" y="654.4" textLength="12.2" clip-path="url(#terminal-142402969-line-26)">
</text><text class="terminal-142402969-r2" x="0" y="678.8" textLength="146.4" clip-path="url(#terminal-142402969-line-27)">&#160;May&#160;2025&#160;&#160;&#160;</text><text class="terminal-142402969-r6" x="158.6" y="678.8" textLength="97.6" clip-path="url(#terminal-142402969-line-27)">&#160;&#160;&#160;€2352</text><text class="terminal-142402969-r6" x="280.6" y="678.8" textLength="73.2" clip-path="url(#terminal-142402969-line-27)">&#160;€1600</text><text class="terminal-142402969-r10" x="378.2" y="678.8" textLength="85.4" clip-path="url(#terminal-142402969-line-27)">&#160;&#160;€-752</text><text class="terminal-142402969-r1" x="1512.8" y="678.8" textLength="12.2" clip-path="url(#terminal-142402969-line-27)">
</text><text class="terminal-142402969-r1" x="1512.8" y="703.2" textLength="12.2" clip-path="url(#terminal-142402969-line-28)">
</text><text class="terminal-142402969-r1" x="1512.8" y="727.6" textLength="12.2" clip-path="url(#terminal-142402969-line-29)">
</text>
    </g>
    </g>
</svg>
