<svg xmlns="http://www.w3.org/2000/svg" xml:space="preserve" width="1024" height="1024" viewBox="0 0 270.933 270.933"><defs><filter id="a" width="1.236" height="1.204" x="-.118" y="-.102" style="color-interpolation-filters:sRGB"><feFlood flood-color="#000" flood-opacity=".502" result="flood"/><feGaussianBlur in="SourceGraphic" result="blur" stdDeviation="4.6"/><feOffset in="blur" result="offset"/><feComposite in="flood" in2="offset" operator="in" result="comp1"/><feComposite in="SourceGraphic" in2="comp1" result="comp2"/></filter></defs><g style="filter:url(#a)" transform="translate(-100.796 -89.735)scale(1.76394)"><path d="M79.08 95.995v63.348l54.86 31.674v-63.348zM133.94 191.017l54.861-31.674V95.996l-54.86 31.674z" style="fill:#ffd43b;fill-opacity:1;stroke:#242424;stroke-width:3.80086;stroke-linecap:round;stroke-linejoin:round;stroke-dasharray:none;stroke-opacity:1;paint-order:normal"/><path d="M133.94 64.322 79.08 95.996l54.86 31.674 54.861-31.674Z" style="fill:#ffe873;fill-opacity:1;stroke:#242424;stroke-width:3.80086;stroke-linecap:round;stroke-linejoin:round;stroke-dasharray:none;stroke-opacity:1;paint-order:normal"/><path d="m111.996 76.991 54.861 31.674v25.34l10.972-6.336V102.33l-54.86-31.674z" style="fill:#306998;fill-opacity:1;stroke:#242424;stroke-width:3.80086;stroke-linecap:round;stroke-linejoin:round;stroke-dasharray:none;stroke-opacity:1;paint-order:normal"/><path d="m90.052 89.66 54.86 31.675v25.339l10.973-6.335V115l-54.861-31.674zM111.996 140.34l-10.972 6.334-10.972-6.335v-12.67l10.972 6.335v-12.67l10.972 6.335z" style="fill:#306998;fill-opacity:1;stroke:#242424;stroke-width:3.80086;stroke-linecap:round;stroke-linejoin:round;stroke-dasharray:none;stroke-opacity:1;paint-order:normal"/><path d="m111.996 140.34 10.972 6.334v12.67l-10.972-6.335v12.67l-10.972-6.335v-12.67z" style="fill:#ffe873;fill-opacity:1;stroke:#242424;stroke-width:3.80086;stroke-linecap:round;stroke-linejoin:round;stroke-dasharray:none;stroke-opacity:1;paint-order:normal"/></g></svg>