<?xml version="1.0" encoding="UTF-8" standalone="no"?>
<!-- Created with Inkscape (http://www.inkscape.org/) -->

<svg
   width="210mm"
   height="297mm"
   viewBox="0 0 210 297"
   version="1.1"
   id="svg5"
   inkscape:version="1.2.1 (9c6d41e410, 2022-07-14)"
   sodipodi:docname="logo.svg"
   xmlns:inkscape="http://www.inkscape.org/namespaces/inkscape"
   xmlns:sodipodi="http://sodipodi.sourceforge.net/DTD/sodipodi-0.dtd"
   xmlns="http://www.w3.org/2000/svg"
   xmlns:svg="http://www.w3.org/2000/svg">
  <sodipodi:namedview
     id="namedview7"
     pagecolor="#505050"
     bordercolor="#eeeeee"
     borderopacity="1"
     inkscape:showpageshadow="0"
     inkscape:pageopacity="0"
     inkscape:pagecheckerboard="0"
     inkscape:deskcolor="#505050"
     inkscape:document-units="mm"
     showgrid="false"
     inkscape:zoom="1.01"
     inkscape:cx="396.0396"
     inkscape:cy="778.21782"
     inkscape:window-width="1920"
     inkscape:window-height="1046"
     inkscape:window-x="-11"
     inkscape:window-y="-11"
     inkscape:window-maximized="1"
     inkscape:current-layer="layer1" />
  <defs
     id="defs2">
    <rect
       x="-502.67591"
       y="449.46787"
       width="515.27781"
       height="179.22707"
       id="rect11905" />
    <rect
       x="-453.66851"
       y="596.49008"
       width="173.62622"
       height="231.03489"
       id="rect11899" />
    <rect
       x="-352.85328"
       y="597.89029"
       width="355.65371"
       height="320.64842"
       id="rect11893" />
    <rect
       x="121.8184"
       y="945.14273"
       width="869.53132"
       height="123.2186"
       id="rect6599" />
    <rect
       x="161.02432"
       y="964.74569"
       width="446.66745"
       height="74.211207"
       id="rect6543" />
    <rect
       x="56.008458"
       y="932.54082"
       width="586.6886"
       height="123.21861"
       id="rect6377" />
    <rect
       x="40.606132"
       y="876.53237"
       width="634.29579"
       height="159.62411"
       id="rect6371" />
  </defs>
  <g
     inkscape:label="Ebene 1"
     inkscape:groupmode="layer"
     id="layer1">
    <path
       style="fill:#367f88;fill-opacity:1;stroke:none;stroke-width:6.11522;stroke-dasharray:none;stroke-opacity:1"
       d="m 91.094255,231.51946 c -5.04188,-0.48648 -12.61175,-2.05378 -18.37569,-3.80454 -8.32449,-2.52855 -17.1412,-6.62555 -24.03864,-11.17045 -4.7653,-3.13998 -14.21516,-10.66923 -14.21516,-11.32604 0,-0.15679 18.86464,-18.71789 54.88548,-54.00237 29.084065,-28.48947 33.897855,-33.20079 49.474615,-48.42148 9.02605,-8.819718 18.80437,-18.385168 21.72963,-21.256518 2.92523,-2.871357 6.11156,-5.986135 7.08071,-6.92173 l 1.76208,-1.701081 2.04935,2.35787 c 7.66687,8.821071 14.67612,21.141571 18.42866,32.392939 1.60647,4.81669 2.95997,10.5622 3.88643,16.49749 0.60164,3.85439 0.85711,16.75208 0.43534,21.97858 -0.86243,10.68679 -4.34138,22.82379 -9.50926,33.17483 -4.7898,9.59373 -9.91975,16.65299 -17.87791,24.60155 -8.05365,8.04391 -15.77889,13.63237 -25.21134,18.23788 -10.24969,5.00454 -20.64812,7.97056 -31.66628,9.03241 -4.43692,0.42759 -15.771425,0.62655 -18.838015,0.33066 z"
       id="path13016"
       mask="none"
       clip-path="none" />
    <path
       style="fill:#f3b74d;fill-opacity:1;stroke:none;stroke-width:6.116;stroke-dasharray:none;stroke-opacity:1"
       d="m 112.60789,45.569208 c 5.04188,0.48647 12.61176,2.05377 18.37569,3.80453 8.32449,2.52855 17.14121,6.62556 24.03864,11.17046 4.76531,3.13997 14.21516,10.66922 14.21516,11.32603 0,0.15679 -18.86464,18.71789 -54.88548,54.002372 -29.084074,28.48946 -33.897842,33.20077 -49.474615,48.42147 -9.026041,8.81973 -18.804365,18.38518 -21.729625,21.25653 -2.92524,2.87136 -6.11156,5.98614 -7.08071,6.92174 l -1.76208,1.70107 -2.04935,-2.35786 C 24.58865,192.99447 17.579399,180.67396 13.826857,169.42259 12.220386,164.60591 10.866886,158.8604 9.9404253,152.9251 9.3387752,149.07071 9.0833152,136.17302 9.5050853,130.94653 10.367515,120.25973 13.846467,108.12274 19.01435,97.771698 c 4.7898,-9.59374 9.91975,-16.65299 17.87791,-24.60155 8.05336,-8.0442 15.778891,-13.63237 25.21134,-18.23788 10.249675,-5.00454 20.648107,-7.97056 31.666283,-9.0324 4.436894,-0.4276 15.771427,-0.62655 18.838007,-0.33066 z"
       id="path13016-7" />
    <rect
       style="fill:#0d0d0f;fill-opacity:1;stroke:none;stroke-width:0;stroke-dasharray:none;stroke-opacity:1;image-rendering:auto"
       id="rect11404"
       width="187"
       height="8"
       x="-122.14476"
       y="168.46779"
       ry="5.2447725e-15"
       transform="matrix(0.71691625,-0.6971593,0.71691625,0.6971593,0,0)"
       inkscape:label="rect11404" />
    <rect
       style="fill:#0d0d0f;fill-opacity:1;stroke:none;stroke-width:5.16696;stroke-dasharray:none;stroke-opacity:1;image-rendering:auto"
       id="rect11404-2"
       width="32.042942"
       height="4"
       x="-37.520798"
       y="107.15167"
       ry="5.2447725e-15"
       transform="matrix(0.78934761,-0.61394654,0.63575954,0.77188717,0,0)"
       inkscape:label="rect11404" />
    <rect
       style="fill:#0d0d0f;fill-opacity:1;stroke:none;stroke-width:5.16696;stroke-dasharray:none;stroke-opacity:1;image-rendering:auto"
       id="rect11404-2-7"
       width="32.042942"
       height="4"
       x="-58.540977"
       y="146.56441"
       ry="5.2447725e-15"
       transform="matrix(0.78934761,-0.61394654,0.63575954,0.77188717,0,0)"
       inkscape:label="rect11404" />
    <rect
       style="fill:#0d0d0f;fill-opacity:1;stroke:none;stroke-width:5.53851"
       id="rect2736"
       width="16"
       height="62.0854"
       x="93.259071"
       y="168.18069"
       ry="0" />
    <rect
       style="fill:#0d0d0f;fill-opacity:1;stroke:none;stroke-width:6.47577"
       id="rect2736-8"
       width="16"
       height="84.876244"
       x="117.90462"
       y="146.07346"
       ry="0" />
    <rect
       style="fill:#0d0d0f;fill-opacity:1;stroke:none;stroke-width:7.06367"
       id="rect2736-9"
       width="16"
       height="100.98701"
       x="143.32553"
       y="117.23398"
       ry="0" />
    <rect
       style="fill:#367f88;fill-opacity:1;stroke:none;stroke-width:4.85682"
       id="rect2736-9-5"
       width="8"
       height="95.485771"
       x="147.57451"
       y="121.45425"
       ry="0" />
    <rect
       style="fill:#367f88;fill-opacity:1;stroke:none;stroke-width:4.35077"
       id="rect2736-9-5-4"
       width="8"
       height="76.62439"
       x="121.8316"
       y="150.42218"
       ry="0" />
    <rect
       style="fill:#367f88;fill-opacity:1;stroke:none;stroke-width:3.76036"
       id="rect2736-9-5-4-1"
       width="8"
       height="57.239075"
       x="97.469025"
       y="172.30138"
       ry="0" />
    <rect
       style="fill:#0d0d0f;fill-opacity:1;stroke:none;stroke-width:3.61981"
       id="rect2736-91"
       width="16"
       height="26.520029"
       x="69.163918"
       y="201.24364"
       ry="0" />
    <rect
       style="fill:#367f88;fill-opacity:1;stroke:none;stroke-width:2.45766"
       id="rect2736-9-5-4-1-4"
       width="8"
       height="24.449902"
       x="73.373863"
       y="204.89441"
       ry="0" />
    <circle
       style="fill:none;fill-opacity:1;stroke:#0d0d0f;stroke-width:8;stroke-dasharray:none;stroke-opacity:1"
       id="path13152"
       cx="104.37117"
       cy="139.25439"
       r="92.245361" />
    <circle
       style="fill:#f3b74d;fill-opacity:1;stroke:#0d0d0f;stroke-width:6.116;stroke-opacity:1"
       id="path3073"
       cx="37.363537"
       cy="110.40084"
       r="7.7799244" />
    <circle
       style="fill:#f3b74d;fill-opacity:1;stroke:#0d0d0f;stroke-width:6.116;stroke-opacity:1"
       id="path3073-9"
       cx="44.032047"
       cy="152.6347"
       r="7.7799244" />
    <circle
       style="fill:#f3b74d;fill-opacity:1;stroke:#0d0d0f;stroke-width:6.116;stroke-opacity:1"
       id="path3073-6"
       cx="76.633636"
       cy="129.29494"
       r="7.7799244" />
    <circle
       style="fill:#f3b74d;fill-opacity:1;stroke:#0d0d0f;stroke-width:6.116;stroke-opacity:1"
       id="path3073-8"
       cx="71.447014"
       cy="84.097282"
       r="7.7799244" />
    <circle
       style="fill:#f3b74d;fill-opacity:1;stroke:#0d0d0f;stroke-width:6.116;stroke-opacity:1"
       id="path3073-4"
       cx="116.64466"
       cy="69.648849"
       r="7.7799244" />
    <rect
       style="fill:#0d0d0f;fill-opacity:1;stroke:none;stroke-width:5.16696;stroke-dasharray:none;stroke-opacity:1;image-rendering:auto"
       id="rect11404-2-1"
       width="32.042942"
       height="4"
       x="46.440052"
       y="99.492615"
       ry="5.2447725e-15"
       transform="matrix(0.94861056,-0.31644589,0.34282449,0.93939947,0,0)"
       inkscape:label="rect11404" />
    <rect
       style="fill:#0d0d0f;fill-opacity:1;stroke:none;stroke-width:5.16696;stroke-dasharray:none;stroke-opacity:1;image-rendering:auto"
       id="rect11404-2-1-3"
       width="32.042942"
       height="4"
       x="98.555008"
       y="-66.748276"
       ry="5.2447725e-15"
       transform="matrix(0.08468613,0.99640768,-0.99365279,0.11249055,0,0)"
       inkscape:label="rect11404" />
    <rect
       style="fill:#0d0d0f;fill-opacity:1;stroke:none;stroke-width:4.89279;stroke-dasharray:none;stroke-opacity:1;image-rendering:auto"
       id="rect11404-2-1-3-5"
       width="28.768185"
       height="4"
       x="119.81435"
       y="-29.941551"
       ry="5.238286e-15"
       transform="matrix(0.09432617,0.99554135,-0.99488325,0.10103127,0,0)"
       inkscape:label="rect11404" />
    <text
       xml:space="preserve"
       transform="scale(0.26458333)"
       id="text6369"
       style="font-style:normal;font-variant:normal;font-weight:bold;font-stretch:normal;font-size:160px;font-family:'Berlin Sans FB Demi';-inkscape-font-specification:'Berlin Sans FB Demi, Bold';font-variant-ligatures:normal;font-variant-caps:normal;font-variant-numeric:normal;font-variant-east-asian:normal;white-space:pre;shape-inside:url(#rect6371);display:inline;fill:#f3b74d;fill-opacity:1;stroke:#0d0d0f;stroke-width:30.2362;stroke-dasharray:none;stroke-opacity:1" />
    <text
       xml:space="preserve"
       transform="scale(0.26458333)"
       id="text6375"
       style="font-style:normal;font-variant:normal;font-weight:bold;font-stretch:normal;font-size:160px;font-family:'Berlin Sans FB Demi';-inkscape-font-specification:'Berlin Sans FB Demi, Bold';font-variant-ligatures:normal;font-variant-caps:normal;font-variant-numeric:normal;font-variant-east-asian:normal;white-space:pre;shape-inside:url(#rect6377);display:inline;fill:#fffefe;fill-opacity:1;stroke:#0d0d0f;stroke-width:30.2362;stroke-dasharray:none;stroke-opacity:1" />
    <text
       xml:space="preserve"
       transform="scale(0.26458333)"
       id="text6541"
       style="font-style:normal;font-variant:normal;font-weight:bold;font-stretch:normal;font-size:160px;font-family:'Berlin Sans FB Demi';-inkscape-font-specification:'Berlin Sans FB Demi, Bold';font-variant-ligatures:normal;font-variant-caps:normal;font-variant-numeric:normal;font-variant-east-asian:normal;white-space:pre;shape-inside:url(#rect6543);display:inline;fill:#fffefe;fill-opacity:1;stroke:#0d0d0f;stroke-width:30.2362;stroke-dasharray:none;stroke-opacity:1" />
    <text
       xml:space="preserve"
       transform="scale(0.26458333)"
       id="text11891"
       style="font-style:normal;font-variant:normal;font-weight:bold;font-stretch:normal;font-size:160px;font-family:'Berlin Sans FB Demi';-inkscape-font-specification:'Berlin Sans FB Demi, Bold';font-variant-ligatures:normal;font-variant-caps:normal;font-variant-numeric:normal;font-variant-east-asian:normal;white-space:pre;shape-inside:url(#rect11893);display:inline;fill:#0d0d0f;fill-opacity:1;stroke:none;stroke-width:30.2362;stroke-dasharray:none;stroke-opacity:1" />
    <text
       xml:space="preserve"
       transform="scale(0.26458333)"
       id="text11897"
       style="font-style:normal;font-variant:normal;font-weight:bold;font-stretch:normal;font-size:160px;font-family:'Berlin Sans FB Demi';-inkscape-font-specification:'Berlin Sans FB Demi, Bold';font-variant-ligatures:normal;font-variant-caps:normal;font-variant-numeric:normal;font-variant-east-asian:normal;white-space:pre;shape-inside:url(#rect11899);display:inline;fill:#0d0d0f;fill-opacity:1;stroke:none;stroke-width:30.2362;stroke-dasharray:none;stroke-opacity:1" />
    <text
       xml:space="preserve"
       transform="matrix(0.37906716,0,0,0.42900945,198.15476,37.234853)"
       id="text11903"
       style="font-style:normal;font-variant:normal;font-weight:bold;font-stretch:normal;font-size:104.976px;font-family:Corbel;-inkscape-font-specification:'Corbel, Bold';font-variant-ligatures:normal;font-variant-caps:normal;font-variant-numeric:normal;font-variant-east-asian:normal;white-space:pre;shape-inside:url(#rect11905);display:inline;fill:#0d0d0f;fill-opacity:1;stroke:none;stroke-width:30.2362;stroke-dasharray:none;stroke-opacity:1;image-rendering:auto"><tspan
         x="-502.67578"
         y="540.6564"
         id="tspan408">semivalues</tspan></text>
  </g>
</svg>
