<?xml version="1.0" encoding="UTF-8"?>
<svg id="Tabelle_Herz_Schlange" data-name="Tabelle + Herz + Schlange" xmlns="http://www.w3.org/2000/svg" xmlns:xlink="http://www.w3.org/1999/xlink" viewBox="0 0 623.62 623.62">
  <defs>
    <style>
      .cls-1 {
        fill: none;
      }

      .cls-2 {
        fill: #1d3939;
      }

      .cls-3 {
        fill: #fff;
      }

      .cls-4 {
        fill: #a0c54e;
      }

      .cls-5 {
        fill: #486855;
      }

      .cls-6 {
        clip-path: url(#clippath);
      }
    </style>
    <clipPath id="clippath">
      <path class="cls-1" d="M184.58,328.61v210.37h351.67v-210.37H184.58ZM290.08,478.08l-1.94-1.94-12.92-12.91-7.63-7.63-8.66-8.65-3.06-3.06c-.41-6.41-.83-12.32-1.4-18.22-.03-.24-.05-.46-.06-.69l-.25-2.6c-1.65-17.06-4.4-45.61-12.29-58.05-1.6-2.52-2.36-3-3.21-3-.91,0-2.18.54-4.12,1.35l-.37.15c-3.7,1.54-8.17,4.75-12.5,7.84-3.18,2.28-6.47,4.63-9.42,6.29-1.1.61-2.22,1.23-3.36,1.83l-1.17-.18-8.41-8.4-13.42-13.42.28-1.61c6.14-2.86,12.03-6.75,17.72-10.52,5.13-3.39,10.44-6.9,15.95-9.67,7.15-3.6,13.88-5.42,19.99-5.42,26.91,0,37.92,34.48,42.42,63.41,2.38,15.29,3.51,30.99,4.61,46.17.41,5.72.84,11.63,1.33,17.43.62,7.48,1.3,14.07,2.07,20.15,0,.07.04.13.08.19l-.25,1.12ZM426.6,432.4c-.13,2.23-.25,4.43-.34,6.61h-30.88c.07-1.83.14-3.67.22-5.5.3-6.78.61-13.79.16-20.32-.03-.44-.3-.8-.71-.98l-.39-.79h32.29c.44,6.77.04,13.98-.35,20.97Z"/>
    </clipPath>
  </defs>
  <g>
    <path class="cls-2" d="M586.19,165.78v343.91c0,42.4-34.37,76.76-76.76,76.76H114.18c-42.4,0-76.76-34.37-76.76-76.76V114.44c0-42.4,34.37-76.76,76.76-76.76h341.97l128.1,128.1h1.94Z"/>
    <path class="cls-4" d="M586.21,165.78h-84.58c-25.24,0-45.71-20.47-45.71-45.71V37.17l130.3,128.61Z"/>
  </g>
  <rect class="cls-5" x="383.35" y="404.42" width="15.23" height="13.05"/>
  <g>
    <rect class="cls-5" x="170.22" y="37.68" width="27.58" height="548.77"/>
    <rect class="cls-5" x="37.42" y="279.47" width="548.77" height="27.58"/>
    <g>
      <path class="cls-3" d="M518.23,521.86l6.98,12.65-4.32,2.46c-.7-.37-6-12.24-7.88-14.04-.39-.36-7.89-2.82-11.09-3.86-.8-.26-1.68.12-2.03.89-.55,1.19-1.33,2.87-1.8,3.71-.5.89-1.49,1.38-2.51,1.24-5.75-.78-25.47-3.47-42.62-5.81-1.69-.23-2.7-1.99-2.06-3.57l1.65-4.05c-2.62-.47-5.4-1.54-7.87-2.52-15.27-6.07-33.94-16.53-42.13-31.35-10.63-19.22-4.35-43.42-5.8-64.51-.11-1.57-1.8-2.51-3.16-1.73-5.6,3.23-16.21,13.97-18.35,16.21-21.91,22.81-43.11,56.57-67.74,75.14-25.42,19.16-43.39,7.19-47.49-22.1-2.51-17.93-2.77-36.95-4.55-55.06-.02-.21-.05-.42-.06-.64-1.63-16.66-4.25-47.81-12.7-61.12-2.89-4.56-3.91-3.98-8.93-1.89-6.57,2.74-15.15,10.31-22.03,14.19-1.09.61-2.2,1.22-3.34,1.82l-8.41-8.4-13.42-13.42c11.76-5.48,22.13-14.39,33.7-20.2,42.07-21.16,56.05,25.6,60.97,57.25,3.27,21.01,4.15,42.33,5.93,63.54.56,6.75,1.22,13.48,2.07,20.19.14,1.11,1.49,1.62,2.32.87,2.94-2.63,5.77-5.35,8.53-8.15,16.95-17.14,31.1-37.02,47.24-54.92,14.06-15.57,38.32-42.06,61.84-31.96.84.36,1.65.76,2.43,1.17,25.38,13.8,8.25,56.06,15.36,77.09,3.83,11.33,27.16,21.03,38.01,23.76,1.52-2.35,1.72-2.67,2.71-4.34.8-1.34,2.59-1.69,3.82-.72,8.89,6.98,31.67,25.26,31.67,25.26,1.12.91,1.53,2.46.95,3.78-.59,1.35-1.47,2.81-1.58,3.84-.04.36.16.95.66,1.3.59.4,10.38,3.57,10.97,3.54l18.3-6.16c.47,1.72.55,3.61,1.77,5l-16.02,5.6Z"/>
      <rect class="cls-5" x="37.42" y="411.42" width="548.77" height="27.58"/>
      <path class="cls-4" d="M490.12,272.18c-.45,2.46-.97,4.92-1.6,7.36-.08.33-.16.67-.26,1-.68,2.6-1.48,5.18-2.35,7.74-2.14,6.19-4.83,12.23-8.1,18.06-.19.34-.37.67-.57,1-4.78,8.39-10.77,16.27-17.91,23.43-.05.05-.06.06-.08.09l-33.36,33.34-26.23,26.23-19.57,19.57-31.63,31.67-32.29,32.27-15.1,15.11-12.91-12.91-12.92-12.91-7.63-7.63-8.66-8.65-15.49-15.49-2.03-2.03-8.66-8.68-10.78-10.76-7.49-7.49-8.66-8.68-9.39-9.37-8.41-8.4-45.2-45.2s-.05-.07-.06-.11c-2.59-2.58-12.17-14.27-14.34-17.57-1.27-1.92-2.46-3.87-3.59-5.85-.2-.33-.39-.67-.57-1-2.72-4.85-5.05-9.89-6.98-15.02-1.35-3.55-2.52-7.16-3.46-10.79-.07-.25-.14-.49-.2-.74-.02-.08-.05-.18-.06-.26-2.23-8.65-3.39-17.49-3.49-26.35-.07-4.69.18-9.38.69-14.06,1.26-11.33,4.26-22.51,9.01-33.11,3.21-7.17,7.21-14.1,12.01-20.59,3.3-4.51,6.97-8.79,11.04-12.87,18.73-18.69,42.41-29.4,66.81-32.08,4.11-.47,8.21-.69,12.34-.69,3.84,0,7.67.21,11.49.6,11.39,1.16,22.6,4.05,33.25,8.71,4.26,1.86,8.45,4,12.53,6.42,7.54,4.51,14.67,9.97,21.21,16.4.2.18.4.37.6.57.78-.79,1.59-1.56,2.39-2.31,13.02-12.29,28.29-20.84,44.45-25.66,10.36-3.12,21.12-4.69,31.83-4.73h.35c12.71,0,25.39,2.17,37.52,6.44,4.59,1.63,9.12,3.59,13.51,5.85,7.98,4.08,15.58,9.17,22.59,15.31,1.9,1.64,3.74,3.36,5.54,5.17,1.14,1.12,2.21,2.25,3.25,3.41,5.65,6.1,10.47,12.71,14.48,19.65,2,3.43,3.8,6.94,5.39,10.52,3.4,7.66,5.91,15.62,7.52,23.73.81,4.18,1.41,8.41,1.75,12.65.83,9.89.33,19.87-1.5,29.67Z"/>
      <g class="cls-6">
        <path class="cls-3" d="M518.23,521.86l6.98,12.65-4.32,2.46c-.7-.37-6-12.24-7.88-14.04-.39-.36-7.89-2.82-11.09-3.86-.8-.26-1.68.12-2.03.89-.55,1.19-1.33,2.87-1.8,3.71-.5.89-1.49,1.38-2.51,1.24-5.75-.78-25.47-3.47-42.62-5.81-1.69-.23-2.7-1.99-2.06-3.57l1.65-4.05c-2.62-.47-5.4-1.54-7.87-2.52-15.27-6.07-33.94-16.53-42.13-31.35-10.63-19.22-4.35-43.42-5.8-64.51-.11-1.57-1.8-2.51-3.16-1.73-5.6,3.23-16.21,13.97-18.35,16.21-21.91,22.81-43.11,56.57-67.74,75.14-25.42,19.16-43.39,7.19-47.49-22.1-2.51-17.93-2.77-36.95-4.55-55.06-.02-.21-.05-.42-.06-.64-1.63-16.66-4.25-47.81-12.7-61.12-2.89-4.56-3.91-3.98-8.93-1.89-6.57,2.74-15.15,10.31-22.03,14.19-1.09.61-2.2,1.22-3.34,1.82l-8.41-8.4-13.42-13.42c11.76-5.48,22.13-14.39,33.7-20.2,42.07-21.16,56.05,25.6,60.97,57.25,3.27,21.01,4.15,42.33,5.93,63.54.56,6.75,1.22,13.48,2.07,20.19.14,1.11,1.49,1.62,2.32.87,2.94-2.63,5.77-5.35,8.53-8.15,16.95-17.14,31.1-37.02,47.24-54.92,14.06-15.57,38.32-42.06,61.84-31.96.84.36,1.65.76,2.43,1.17,25.38,13.8,8.25,56.06,15.36,77.09,3.83,11.33,27.16,21.03,38.01,23.76,1.52-2.35,1.72-2.67,2.71-4.34.8-1.34,2.59-1.69,3.82-.72,8.89,6.98,31.67,25.26,31.67,25.26,1.12.91,1.53,2.46.95,3.78-.59,1.35-1.47,2.81-1.58,3.84-.04.36.16.95.66,1.3.59.4,10.38,3.57,10.97,3.54l18.3-6.16c.47,1.72.55,3.61,1.77,5l-16.02,5.6Z"/>
      </g>
    </g>
    <path class="cls-3" d="M488.51,279.54c-.08.33-.16.67-.26,1-.68,2.6-1.48,5.18-2.35,7.74-2.14,6.19-4.83,12.23-8.1,18.05-.19.34-.37.67-.57,1h-31.24l-22.68,32.45c-4.37,6.3-13.03,7.9-19.35,3.53-1.83-1.28-3.35-2.96-4.41-4.97l-27.19-51.93-45.76,97.98c-3.28,6.95-11.56,9.95-18.52,6.68-3.91-1.82-6.72-5.38-7.67-9.58l-28.58-130.02-40.27,86.23c-3.23,6.97-11.53,9.97-18.48,6.71-2.76-1.29-5.04-3.44-6.44-6.14l-29.61-56.56-13.75,19.65c-2.6,3.71-6.87,5.95-11.39,5.95h-27.03c-.2-.33-.39-.67-.57-1-2.72-4.85-5.05-9.89-6.98-15.02-1.35-3.55-2.52-7.16-3.46-10.79-.07-.25-.14-.49-.2-.74-.02-.08-.05-.18-.06-.26h31.03l22.67-32.47c4.39-6.28,13.08-7.85,19.37-3.43,1.84,1.25,3.34,2.96,4.37,4.93l27.22,51.94,45.78-98.03c3.22-6.95,11.52-9.97,18.46-6.74,3.95,1.83,6.8,5.39,7.72,9.64l28.56,130.02,40.29-86.23c3.26-6.97,11.51-9.97,18.49-6.74,2.76,1.3,5.03,3.46,6.44,6.16l29.61,56.55,13.72-19.65c2.61-3.75,6.87-5.95,11.42-5.95h49.78Z"/>
  </g>
</svg>