<svg width="256" height="256" viewBox="0 0 256 256" fill="none" xmlns="http://www.w3.org/2000/svg">
<path d="M127.937 16.0081C128.416 16.0054 128.896 16.0028 129.39 16C139.132 16.1458 148.065 20.2508 155.263 26.7257C155.62 27.0453 155.976 27.365 156.343 27.6943C160.623 31.7604 163.507 36.7927 165.674 42.2767C165.846 42.6846 166.018 43.0926 166.196 43.5129C169.252 52.101 167.784 62.8005 164.149 70.9849C162.806 73.7135 161.228 76.1572 159.401 78.5798C157.701 80.9026 156.605 83.2621 155.68 85.9875C155.526 86.4369 155.526 86.4369 155.369 86.8954C152.735 96.4101 156.302 107.357 160.854 115.617C163.04 119.375 165.682 122.704 168.588 125.916C168.886 126.251 169.184 126.586 169.491 126.932C174.514 132.306 181.464 137.036 188.576 138.945C189.218 139.148 189.218 139.148 189.874 139.356C196.467 141.258 203.399 140.865 210.193 140.863C212.898 140.862 215.604 140.868 218.309 140.886C219.242 140.89 220.175 140.887 221.107 140.883C224.587 140.888 227.723 141.248 231.049 142.307C231.344 142.401 231.638 142.494 231.941 142.591C235.715 143.877 238.794 145.628 241.876 148.191C242.2 148.441 242.524 148.69 242.858 148.947C247.286 152.553 250.711 158.543 251.87 164.163C251.975 165.93 251.966 167.699 251.974 169.469C251.987 170.187 251.987 170.187 252 170.919C252.027 176.846 250.105 182.12 246.055 186.504C241.372 190.786 236.242 192.33 230.054 192.091C226.07 191.798 222.743 189.927 219.806 187.279C219.452 186.96 219.097 186.641 218.731 186.312C215.612 183.34 213.27 180.052 211.062 176.351C210.907 176.091 210.752 175.832 210.592 175.564C208.172 171.441 208.172 171.441 208.108 170.017C208.855 168.687 210.092 168.02 211.348 167.236C211.603 167.067 211.859 166.898 212.122 166.723C213.704 165.712 214.989 165.177 216.891 165.003C217.008 165.39 217.124 165.777 217.244 166.176C219.064 172.044 221.213 178.229 226.469 181.815C229.398 183.301 232.942 183.213 236.036 182.283C239.101 180.876 240.983 178.797 242.448 175.773C243.928 171.591 243.755 167.127 241.902 163.138C238.409 156.978 233.471 153.438 226.885 151.134C219.181 149.352 210.792 150.963 203.148 152.338C191.228 154.444 180.882 152.452 170.711 145.709C168.02 143.789 165.568 141.648 163.175 139.365C162.738 138.957 162.738 138.957 162.292 138.541C152.619 129.215 148.311 115.46 146.935 102.379C146.925 101.679 146.922 100.978 146.935 100.278C146.66 100.278 146.386 100.278 146.102 100.278C145.911 106.574 146.015 112.464 147.522 118.592C147.772 119.627 147.994 120.665 148.21 121.708C150.019 130.191 152.752 138.491 156.929 146.09C157.149 146.521 157.368 146.951 157.594 147.395C163.044 157.626 173.273 165.362 183.995 169.206C185.383 169.624 186.778 170.008 188.176 170.392C195.704 172.57 203.067 175.717 208.98 180.975C209.33 181.268 209.681 181.562 210.042 181.864C216.352 187.296 220.698 195.341 221.563 203.712C222.141 211.65 219.804 218.512 214.966 224.791C210.616 229.817 204.005 233.746 197.32 234.352C189.283 234.83 181.623 233.274 175.407 227.838C170.615 223.098 167.778 217.363 167.625 210.5C167.826 204.688 170.22 200.48 174.418 196.526C178.564 193.427 182.645 192.73 187.743 193.163C192.275 194.244 195.332 196.637 198.153 200.308C199.675 202.852 199.684 205.4 199.402 208.294C198.96 209.844 198.96 209.844 198.153 210.816C196.67 211.236 196.67 211.236 195.238 211.236C194.101 210.088 194.337 209.421 194.327 207.821C194.17 205.3 193.69 203.956 191.883 202.209C189.22 200.101 186.433 199.918 183.163 200.308C180.197 201.18 178.609 203.025 177.081 205.667C175.695 208.927 176.118 212.79 177.359 216.043C179.34 220.227 182.614 223.373 186.806 225.263C191.213 226.742 197.098 226.716 201.353 224.794C206.367 222.046 209.284 218.898 211.062 213.337C212.25 207.366 211.168 201.365 208.069 196.132C201.321 186.464 190.316 183.404 179.571 180.439C170.238 177.844 162.601 173.5 155.68 166.684C155.417 166.446 155.155 166.207 154.884 165.96C139.631 151.729 135.912 126.487 134.859 106.582C134.84 105.46 134.846 104.342 134.859 103.22C134.585 103.22 134.31 103.22 134.027 103.22C133.522 106.259 133.58 109.279 133.617 112.351C133.628 113.337 133.636 114.324 133.642 115.311C133.659 118.116 133.679 120.92 133.713 123.724C133.838 134.32 133.563 144.637 130.435 154.864C130.311 155.296 130.186 155.728 130.058 156.174C129.515 158.037 128.93 159.844 128.197 161.641C127.922 161.641 127.647 161.641 127.364 161.641C126.013 158.585 125.224 155.602 124.631 152.316C124.55 151.894 124.469 151.473 124.385 151.039C124.159 149.821 123.952 148.602 123.758 147.379C123.661 146.782 123.558 146.185 123.452 145.59C121.99 137.31 122.22 128.969 122.282 120.593C122.294 118.629 122.3 116.664 122.306 114.7C122.32 110.873 122.341 107.046 122.367 103.22C122.092 103.22 121.818 103.22 121.534 103.22C121.514 103.552 121.494 103.884 121.473 104.226C121.004 111.363 120.169 118.4 118.932 125.443C118.868 125.81 118.804 126.176 118.738 126.554C115.722 143.704 109.594 161.595 94.891 172.129C87.9535 176.78 80.1923 179.756 72.1643 181.815C62.6825 184.25 53.4763 188.156 48.2017 196.934C45.2235 202.063 44.0792 206.733 45.189 212.707C46.6613 218.139 49.6061 221.588 54.2865 224.492C58.5402 226.678 63.9985 226.732 68.5712 225.529C69.7725 225.042 70.8664 224.505 71.9821 223.845C72.4373 223.585 72.8925 223.325 73.3615 223.057C76.8405 220.28 78.9956 217.375 79.8938 212.917C80.2254 209.007 79.7538 206.175 77.2653 203.119C75.7389 201.348 74.1363 200.425 71.8146 200.126C67.8465 200.11 67.8465 200.11 64.4868 201.989C62.6699 204.016 62.3414 205.216 62.1706 207.926C62.1357 208.465 62.1008 209.003 62.0648 209.558C62.0396 209.973 62.0144 210.388 61.9884 210.816C60.8891 210.816 59.7898 210.816 58.6571 210.816C57.2768 208.813 56.6707 207.285 56.7784 204.826C57.4451 201.21 59.515 197.904 62.4048 195.685C66.4512 192.993 70.5671 192.74 75.3134 193.163C79.9928 194.22 83.557 197.615 86.2457 201.479C88.8273 205.7 88.715 210.995 87.9796 215.743C86.4582 221.962 82.5704 227.381 77.2197 230.816C70.3715 234.607 62.3325 235.499 54.8065 233.472C50.0546 232.045 46.2991 229.48 42.8337 225.946C42.3981 225.528 42.3981 225.528 41.9537 225.101C37.0304 220.035 35.1885 213.639 35.2083 206.718C35.2016 206.254 35.1948 205.79 35.1879 205.312C35.1853 200.79 36.0445 196.706 38.1231 192.69C38.269 192.404 38.4148 192.118 38.5651 191.824C39.8617 189.358 41.37 187.231 43.2501 185.178C43.7952 184.57 43.7952 184.57 44.3513 183.949C50.8262 176.949 59.1804 173.18 68.1089 170.376C82.1339 165.944 92.9884 158.67 99.9868 145.289C100.687 143.893 101.335 142.477 101.963 141.046C102.088 140.764 102.212 140.482 102.34 140.191C104.623 134.896 106.071 129.386 107.479 123.8C107.753 122.711 108.034 121.624 108.317 120.537C109.661 115.305 110.422 110.421 110.344 105.006C110.34 104.507 110.336 104.009 110.332 103.495C110.322 102.283 110.309 101.07 110.292 99.8573C110.017 99.8573 109.742 99.8573 109.459 99.8573C109.432 100.108 109.405 100.359 109.377 100.618C107.542 117.244 102.145 132.052 89.2467 143.191C85.441 146.154 81.4006 148.397 76.979 150.293C76.2954 150.611 76.2954 150.611 75.598 150.935C66.622 154.557 57.2353 153.536 48.005 151.796C43.8491 151.019 39.8151 150.461 35.5726 150.451C34.9455 150.444 34.9455 150.444 34.3058 150.437C29.5851 150.528 25.4402 152.209 21.597 154.916C21.3109 155.117 21.0248 155.318 20.73 155.525C17.3216 158.219 14.7089 162.602 13.2689 166.684C13.1413 167.833 13.0694 168.852 13.0867 169.994C13.0901 170.29 13.0936 170.585 13.0972 170.889C13.2303 175.028 14.9335 177.739 17.8493 180.554C20.8695 183.007 24.1267 183.038 27.8431 182.656C31.4331 181.433 34.0172 178.474 35.7438 175.151C37.3172 171.89 38.6221 168.524 39.5025 165.003C41.3099 165.003 42.0547 165.344 43.6405 166.159C44.0651 166.374 44.4897 166.588 44.9271 166.809C46.1428 167.512 47.1796 168.294 48.247 169.206C48.022 171.499 47.2065 173.202 46.1389 175.196C45.9706 175.512 45.8024 175.828 45.629 176.154C44.2447 178.695 42.6666 180.912 40.7517 183.076C40.4564 183.434 40.1612 183.791 39.857 184.16C36.4397 188.202 32.4065 191.433 26.997 191.989C20.9117 192.378 16.1944 191.146 11.3658 187.258C7.10072 183.341 4.47217 177.965 4.10793 172.148C4.07948 171.78 4.05103 171.412 4.02172 171.032C3.75402 164.227 5.96576 157.495 10.4098 152.361C11.3313 151.355 12.2899 150.401 13.2689 149.452C13.6328 149.08 13.6328 149.08 14.0041 148.7C18.9356 143.999 26.4121 141.019 33.1121 140.98C33.9279 140.974 33.9279 140.974 34.7602 140.967C35.1923 140.965 35.1923 140.965 35.6332 140.963C36.5467 140.958 37.4602 140.949 38.3736 140.94C40.9699 140.915 43.5662 140.892 46.1626 140.878C47.7559 140.869 49.3489 140.854 50.9421 140.835C51.5418 140.829 52.1414 140.826 52.7411 140.824C64.1991 140.796 75.0226 137.532 83.6415 129.698C83.9437 129.443 84.2459 129.188 84.5573 128.925C90.193 124.147 94.1808 117.821 97.3829 111.205C97.5842 110.792 97.7855 110.379 97.9929 109.953C100.496 104.385 101.281 98.8287 101.339 92.7648C101.346 92.2956 101.354 91.8264 101.362 91.3429C101.331 87.2053 100.442 83.3322 98.1116 79.8669C97.8599 79.4855 97.6081 79.1041 97.3488 78.7111C96.827 77.9733 96.2907 77.2457 95.7384 76.5308C89.9681 69.0245 87.8414 60.0794 88.6384 50.6826C89.7224 42.4236 93.2166 35.0962 98.6321 28.8272C98.8431 28.579 99.054 28.3309 99.2714 28.0752C103.279 23.7097 108.542 20.3836 114.039 18.3197C114.322 18.2124 114.605 18.1051 114.896 17.9945C119.206 16.4364 123.37 16.0297 127.937 16.0081Z" fill="#6890CC"/>
<path d="M136.109 139.365C136.246 139.365 136.383 139.365 136.525 139.365C137.318 143.34 137.88 147.273 138.191 151.317C139.291 165.209 143.993 175.266 152.576 186.102C158.237 193.366 161.19 200.795 161.301 210.028C161.309 210.518 161.317 211.009 161.325 211.515C161.271 218.784 158.345 225.194 153.598 230.57C153.32 230.894 153.043 231.219 152.757 231.553C148.54 236.172 141.964 239.674 135.692 240C134.55 239.986 133.843 239.959 132.864 239.356C131.766 238.189 131.529 237.36 131.502 235.771C132.003 234.166 132.327 233.717 133.61 232.671C134.787 232.114 136.002 231.687 137.228 231.253C143.252 228.991 146.812 226.076 149.7 220.197C151.039 216.896 151.75 213.891 151.724 210.317C151.722 209.934 151.72 209.551 151.718 209.157C151.628 205.598 150.872 202.717 149.434 199.468C149.267 199.079 149.101 198.691 148.929 198.29C146.937 194.176 143.734 190.752 140.819 187.283C129.647 173.97 129.647 173.97 129.758 166.851C129.935 165.15 130.568 163.696 131.242 162.14C132.44 159.203 133.388 156.353 134.027 153.235C134.132 152.759 134.238 152.283 134.347 151.792C135.224 147.673 135.705 143.554 136.109 139.365Z" fill="#756BC4"/>
<path d="M119.036 139.365C119.311 139.365 119.586 139.365 119.869 139.365C119.91 139.915 119.95 140.464 119.992 141.03C120.685 149.668 122.535 157.758 125.775 165.808C126.624 167.997 126.121 169.831 125.308 171.938C122.903 177.411 119.608 182.088 115.737 186.594C109.328 194.058 103.644 202.094 104.356 212.406C105.08 218.772 108.307 224.197 113.127 228.263C115.532 230.066 118.233 231.052 121.032 232.063C121.504 232.236 121.504 232.236 121.987 232.413C122.27 232.514 122.554 232.615 122.846 232.718C123.741 233.152 124.253 233.563 124.866 234.352C125.124 236.374 125.159 237.242 124.085 238.976C121.966 240.344 120.039 240.082 117.629 239.631C110.087 237.637 103.525 232.661 99.3868 226.025C95.0477 218.289 93.5387 209.572 95.6912 200.912C97.486 194.396 101.018 189.145 105.098 183.874C108.16 179.887 110.865 175.765 113.206 171.308C113.408 170.925 113.609 170.542 113.816 170.147C117.351 162.893 117.847 154.521 118.463 146.589C118.52 145.885 118.576 145.181 118.633 144.477C118.769 142.773 118.903 141.069 119.036 139.365Z" fill="#756CC3"/>
<path d="M64.6169 92.3297C68.9207 95.4172 72.4057 100.408 73.477 105.692C74.2381 111.531 73.4176 116.928 69.9001 121.713C67.6146 124.591 64.8658 126.765 61.1584 127.295C56.3372 127.737 52.927 126.897 49.1058 123.814C47.6912 122.498 46.7043 121.321 46.4252 119.349C46.5814 118.35 46.5814 118.35 47.0758 117.589C47.8306 117.089 47.8306 117.089 48.7935 116.827C50.3372 117.189 50.7868 118.049 51.7523 119.265C53.0803 120.81 54.4016 121.55 56.3978 121.902C59.0517 122.07 60.7589 121.531 62.8732 119.912C64.9008 118.04 66.0133 115.801 66.3216 113.069C66.432 108.318 65.5607 104.787 62.3007 101.144C58.6279 97.7818 54.1202 96.7205 49.2864 96.8135C45.4231 97.0836 42.3832 98.4999 39.5024 101.118C35.2711 106.049 34.1579 110.626 34.4328 117.026C34.9584 123.553 39.1412 129.423 43.8841 133.622C44.8973 134.483 45.9296 135.316 46.975 136.137C47.2573 136.37 47.5397 136.603 47.8306 136.843C47.8306 136.982 47.8306 137.121 47.8306 137.264C46.1281 137.369 44.427 137.444 42.7221 137.495C42.1443 137.516 41.5668 137.544 40.9898 137.581C38.4873 137.736 36.2315 137.863 34.0666 136.411C32.9888 135.351 32.0702 134.28 31.1743 133.061C30.8755 132.657 30.8755 132.657 30.5707 132.245C28.5052 129.171 27.122 125.706 26.1775 122.133C26.0841 121.799 25.9907 121.466 25.8944 121.122C24.271 114.388 25.2716 106.86 28.8076 100.915C32.8458 94.8244 38.0474 90.3795 45.2533 88.6697C52.0488 87.4741 58.7799 88.6396 64.6169 92.3297Z" fill="#43C1E0"/>
<path d="M219.364 92.0293C220.075 92.5253 220.778 93.0326 221.472 93.5529C221.766 93.7674 222.059 93.982 222.362 94.203C226.053 97.1603 228.869 101.63 230.216 106.162C230.309 106.458 230.402 106.754 230.498 107.06C232.349 114.341 231.115 122.686 227.718 129.278C226.688 130.889 225.57 132.403 224.387 133.901C224.074 134.307 224.074 134.307 223.754 134.721C222.912 135.782 222.187 136.502 221.056 137.264C219.805 137.359 219.805 137.359 218.292 137.346C217.751 137.343 217.21 137.34 216.653 137.338C216.082 137.331 215.511 137.323 214.94 137.316C214.364 137.312 213.787 137.308 213.211 137.305C211.801 137.295 210.39 137.281 208.98 137.264C210.133 135.826 211.225 134.521 212.649 133.35C217.071 129.508 221.18 124.372 221.888 118.35C222.259 112.25 222.253 106.882 218.186 101.988C214.736 98.5703 210.637 96.8989 205.857 96.7576C201.5 96.8814 197.126 98.2455 194.049 101.52C190.902 105.623 190.206 109.471 190.658 114.568C191.588 117.709 193.243 119.676 196.011 121.335C197.993 122.173 200.401 122.042 202.436 121.424C203.942 120.721 205.013 119.887 206.143 118.666C207.314 117.51 207.314 117.51 208.459 117.3C209.396 117.51 209.396 117.51 210.229 118.35C210.463 119.454 210.463 119.454 210.229 120.872C208.357 123.729 205.573 126.139 202.317 127.177C197.452 127.782 193.603 127.323 189.649 124.305C185.885 121.158 183.842 117.332 183.163 112.466C182.651 106.937 183.728 101.892 187.014 97.3618C187.519 96.7781 188.04 96.209 188.576 95.6543C188.885 95.3314 189.193 95.0085 189.511 94.6758C197.586 86.7996 209.945 86.2917 219.364 92.0293Z" fill="#45C0E0"/>
<path d="M154.014 133.481C155.296 134.706 156.301 135.994 157.319 137.448C164.023 146.619 173.895 152.97 184.828 155.757C185.089 155.83 185.349 155.903 185.618 155.978C192.739 157.816 200.588 156.894 207.678 155.336C216.788 153.36 224.897 152.769 232.975 158.016C234.696 159.341 236.385 160.884 237.295 162.902C237.147 163.843 237.147 163.843 236.879 164.583C236.312 164.024 236.312 164.024 235.734 163.453C231.37 159.788 226.684 159.496 221.228 159.861C217.031 160.273 213.444 162.253 209.762 164.177C207.616 165.291 205.405 166.239 203.15 167.105C202.755 167.259 202.36 167.414 201.953 167.573C194.335 169.754 185.066 166.525 178.322 163.007C167.902 156.901 157.549 146.202 154.155 134.186C154.085 133.837 154.085 133.837 154.014 133.481Z" fill="#514FA2"/>
<path d="M101.131 133.901C101.405 133.901 101.68 133.901 101.963 133.901C97.233 146.426 89.044 157.739 76.8489 163.637C72.1285 165.636 67.1116 167.497 61.9884 167.945C61.5069 167.99 61.0254 168.034 60.5293 168.08C54.3017 168.382 49.3284 165.626 43.9333 162.831C38.2708 159.919 31.748 158.725 25.5268 160.616C23.4954 161.409 21.89 162.533 20.2404 163.957C19.515 164.583 19.515 164.583 18.6821 165.003C19.6709 161.427 22.1816 158.848 25.2405 156.86C33.7097 152.259 43.1835 153.892 52.1835 155.996C55.127 156.669 57.9878 156.743 60.9994 156.729C61.5156 156.726 62.0318 156.724 62.5637 156.722C72.9882 156.582 83.3044 152.741 91.1368 145.67C91.4814 145.377 91.826 145.083 92.1811 144.781C95.3595 142.02 98.0983 138.924 100.272 135.294C100.555 134.834 100.839 134.375 101.131 133.901Z" fill="#5150A1"/>
<path d="M190.242 93.9732C190.379 94.3892 190.516 94.8053 190.658 95.234C190.422 95.467 190.187 95.7 189.944 95.94C189.638 96.2445 189.333 96.549 189.018 96.8627C188.714 97.165 188.41 97.4673 188.096 97.7788C187.303 98.5419 187.303 98.5419 186.91 99.437C186.635 99.2983 186.361 99.1596 186.077 99.0167C188.638 95.4667 188.638 95.4667 190.242 93.9732Z" fill="#4ABAD9"/>
<path d="M46.9978 95.6543C49.1964 95.793 51.395 95.9317 53.6603 96.0746C53.6603 96.2133 53.6603 96.352 53.6603 96.4949C53.0725 96.5331 53.0725 96.5331 52.4728 96.5721C51.9543 96.6073 51.4358 96.6425 50.9016 96.6788C50.3895 96.7129 49.8774 96.7471 49.3498 96.7822C47.9908 96.9012 46.6732 97.0877 45.3321 97.3355C45.3321 97.0581 45.3321 96.7807 45.3321 96.4949C45.8818 96.4949 46.4314 96.4949 46.9978 96.4949C46.9978 96.2175 46.9978 95.9401 46.9978 95.6543Z" fill="#57B8D3"/>
<path d="M56.1587 88.9296C56.8886 89.1087 57.617 89.2937 58.3448 89.4812C58.7506 89.5836 59.1564 89.686 59.5745 89.7915C60.7349 90.189 61.4775 90.6558 62.4048 91.4514C60.6705 91.5775 59.6356 91.2216 58.1106 90.4006C57.7429 90.2056 57.3752 90.0105 56.9964 89.8096C56.72 89.6579 56.4435 89.5062 56.1587 89.3499C56.1587 89.2112 56.1587 89.0725 56.1587 88.9296Z" fill="#51BBD3"/>
<path d="M233.964 143.568C234.634 143.818 235.301 144.073 235.968 144.33C236.526 144.542 236.526 144.542 237.095 144.758C238.095 145.233 238.663 145.674 239.377 146.51C237.354 146.255 235.738 145.364 233.964 144.409C233.964 144.131 233.964 143.854 233.964 143.568Z" fill="#6198BE"/>
<path d="M134.662 83.6253C134.662 87.4619 132.002 89.8633 128.201 89.8633C124.4 89.8633 121.318 87.4619 121.318 83.6253C121.318 79.7887 124.4 85.8937 128.201 85.8937C132.002 85.8937 134.662 79.7887 134.662 83.6253Z" fill="#1D223F"/>
<path d="M116.519 66.1873C116.519 69.9457 113.501 72.9924 109.777 72.9924C106.054 72.9924 103.035 69.9457 103.035 66.1873C103.035 62.429 106.054 59.3823 109.777 59.3823C113.501 59.3823 116.519 62.429 116.519 66.1873Z" fill="#1D223F"/>
<path d="M153.32 66.1874C153.32 69.9457 150.301 72.9924 146.578 72.9924C142.854 72.9924 139.836 69.9457 139.836 66.1874C139.836 62.429 142.854 59.3823 146.578 59.3823C150.301 59.3823 153.32 62.429 153.32 66.1874Z" fill="#1D223F"/>
</svg>
