<svg width="64" height="64" viewBox="0 0 64 64" fill="none" xmlns="http://www.w3.org/2000/svg">
<path d="M31.9842 4.00203C32.1041 4.00136 32.224 4.00069 32.3476 4C34.7831 4.03646 37.0163 5.06271 38.8158 6.68142C38.9049 6.76133 38.9941 6.84125 39.0859 6.92358C40.1557 7.9401 40.8767 9.19817 41.4184 10.5692C41.4615 10.6712 41.5045 10.7731 41.5489 10.8782C42.313 13.0252 41.946 15.7001 41.0374 17.7462C40.7014 18.4284 40.307 19.0393 39.8504 19.6449C39.4253 20.2257 39.1512 20.8155 38.9199 21.4969C38.8815 21.6092 38.8815 21.6092 38.8423 21.7239C38.1839 24.1025 39.0754 26.8393 40.2135 28.9042C40.7601 29.8437 41.4206 30.6761 42.1471 31.4789C42.2216 31.5628 42.296 31.6466 42.3728 31.733C43.6285 33.0765 45.3661 34.2589 47.144 34.7362C47.3046 34.7871 47.3046 34.7871 47.4684 34.8389C49.1167 35.3145 50.8499 35.2163 52.5482 35.2157C53.2246 35.2155 53.901 35.217 54.5774 35.2216C54.8105 35.2226 55.0437 35.2217 55.2769 35.2206C56.1467 35.222 56.9307 35.3121 57.7623 35.5768C57.8359 35.6002 57.9095 35.6236 57.9853 35.6477C58.9288 35.9693 59.6984 36.4071 60.469 37.0479C60.55 37.1102 60.6311 37.1725 60.7146 37.2367C61.8215 38.1382 62.6776 39.6357 62.9674 41.0407C62.9937 41.4825 62.9915 41.9247 62.9934 42.3672C62.9966 42.5466 62.9966 42.5466 62.9999 42.7297C63.0067 44.2115 62.5261 45.5299 61.5136 46.626C60.343 47.6965 59.0605 48.0825 57.5135 48.0228C56.5174 47.9494 55.6858 47.4818 54.9516 46.8198C54.8629 46.74 54.7742 46.6602 54.6828 46.578C53.903 45.835 53.3175 45.013 52.7654 44.0878C52.7267 44.0229 52.6879 43.9579 52.648 43.891C52.043 42.8604 52.043 42.8604 52.027 42.5043C52.2137 42.1718 52.523 42.0051 52.837 41.809C52.9008 41.7667 52.9646 41.7244 53.0304 41.6808C53.426 41.428 53.7472 41.2943 54.2229 41.2508C54.252 41.3475 54.2811 41.4442 54.3111 41.5439C54.7659 43.011 55.3032 44.5572 56.6172 45.4538C57.3495 45.8253 58.2355 45.8034 59.0091 45.5708C59.7754 45.2191 60.2459 44.6993 60.6121 43.9434C60.9821 42.8978 60.9388 41.7818 60.4755 40.7846C59.6023 39.2444 58.3677 38.3595 56.7213 37.7834C54.7952 37.338 52.698 37.7406 50.787 38.0845C47.807 38.611 45.2205 38.113 42.6778 36.4273C42.005 35.9473 41.3921 35.412 40.7938 34.8413C40.6845 34.7393 40.6845 34.7393 40.573 34.6353C38.1547 32.3038 37.0779 28.8649 36.7338 25.5948C36.7313 25.4197 36.7305 25.2445 36.7338 25.0694C36.6651 25.0694 36.5964 25.0694 36.5256 25.0694C36.4778 26.6435 36.5039 28.1161 36.8806 29.6481C36.943 29.9068 36.9984 30.1663 37.0526 30.427C37.5048 32.5477 38.188 34.6227 39.2322 36.5225C39.2871 36.6302 39.342 36.7378 39.3986 36.8488C40.761 39.4065 43.3181 41.3404 45.9989 42.3016C46.3459 42.4059 46.6945 42.502 47.0439 42.5979C48.926 43.1425 50.7668 43.9292 52.2449 45.2436C52.3326 45.3171 52.4202 45.3905 52.5105 45.4661C54.0881 46.8241 55.1746 48.8352 55.3908 50.928C55.5354 52.9124 54.9509 54.628 53.7414 56.1976C52.654 57.4543 51.0013 58.4365 49.3301 58.5881C47.3207 58.7076 45.4057 58.3186 43.8518 56.9594C42.6538 55.7745 41.9444 54.3408 41.9064 52.6251C41.9564 51.1719 42.5551 50.1201 43.6045 49.1314C44.6411 48.3567 45.6612 48.1824 46.9358 48.2908C48.0687 48.561 48.8331 49.1594 49.5383 50.0771C49.9187 50.713 49.9211 51.35 49.8506 52.0735C49.74 52.4609 49.74 52.4609 49.5383 52.7039C49.1674 52.809 49.1674 52.809 48.8096 52.809C48.5252 52.5219 48.5842 52.3553 48.5819 51.9553C48.5425 51.3249 48.4226 50.9891 47.9707 50.5524C47.305 50.0252 46.6083 49.9794 45.7906 50.0771C45.0493 50.2949 44.6522 50.7563 44.2702 51.4168C43.9238 52.2316 44.0295 53.1976 44.3397 54.0108C44.8349 55.0566 45.6535 55.8431 46.7015 56.3158C47.8033 56.6855 49.2745 56.679 50.3382 56.1984C51.5916 55.5115 52.3211 54.7245 52.7654 53.3344C53.0624 51.8416 52.792 50.3412 52.0172 49.0329C50.3302 46.616 47.5791 45.8509 44.8928 45.1098C42.5595 44.4609 40.6502 43.375 38.9199 41.6711C38.8543 41.6114 38.7887 41.5517 38.7211 41.4901C34.9077 37.9323 33.978 31.6217 33.7149 26.6455C33.71 26.365 33.7114 26.0855 33.7149 25.8049C33.6462 25.8049 33.5775 25.8049 33.5067 25.8049C33.3805 26.5647 33.395 27.3198 33.4043 28.0877C33.4071 28.3344 33.4089 28.581 33.4105 28.8277C33.4149 29.5289 33.4197 30.23 33.4283 30.9311C33.4595 33.5799 33.3908 36.1592 32.6088 38.7159C32.5777 38.824 32.5465 38.9321 32.5144 39.0434C32.3787 39.5092 32.2326 39.9611 32.0492 40.4102C31.9805 40.4102 31.9118 40.4102 31.841 40.4102C31.5033 39.6462 31.3059 38.9004 31.1579 38.0789C31.1375 37.9736 31.1172 37.8683 31.0963 37.7598C31.0396 37.4554 30.988 37.1505 30.9394 36.8447C30.9152 36.6954 30.8896 36.5463 30.8629 36.3974C30.4975 34.3275 30.555 32.2422 30.5704 30.1482C30.5736 29.6572 30.575 29.1661 30.5766 28.675C30.5799 27.7183 30.5852 26.7616 30.5918 25.8049C30.5231 25.8049 30.4544 25.8049 30.3836 25.8049C30.3785 25.888 30.3734 25.971 30.3682 26.0565C30.251 27.8408 30.0423 29.6 29.733 31.3607C29.717 31.4524 29.701 31.5441 29.6845 31.6385C28.9306 35.9259 27.3986 40.3988 23.7227 43.0322C21.9884 44.195 20.0481 44.9391 18.0411 45.4538C15.6706 46.0625 13.3691 47.0391 12.0504 49.2335C11.3059 50.5158 11.0198 51.6832 11.2972 53.1767C11.6653 54.5347 12.4015 55.397 13.5716 56.1229C14.6351 56.6695 15.9996 56.6829 17.1428 56.3823C17.4431 56.2605 17.7166 56.1263 17.9955 55.9612C18.1093 55.8962 18.2231 55.8312 18.3404 55.7642C19.2101 55.0701 19.7489 54.3437 19.9735 53.2293C20.0563 52.2518 19.9384 51.5438 19.3163 50.7797C18.9347 50.3371 18.5341 50.1062 17.9536 50.0315C16.9616 50.0274 16.9616 50.0274 16.1217 50.4974C15.6675 51.0041 15.5854 51.304 15.5426 51.9815C15.5339 52.1162 15.5252 52.2508 15.5162 52.3895C15.5099 52.4933 15.5036 52.597 15.4971 52.7039C15.2223 52.7039 14.9474 52.7039 14.6643 52.7039C14.3192 52.2032 14.1677 51.8212 14.1946 51.2066C14.3613 50.3025 14.8788 49.4759 15.6012 48.9212C16.6128 48.2482 17.6418 48.1849 18.8283 48.2908C19.9982 48.555 20.8893 49.4038 21.5614 50.3697C22.2068 51.425 22.1788 52.7488 21.9949 53.9357C21.6145 55.4906 20.6426 56.8452 19.3049 57.704C17.5929 58.6518 15.5831 58.8746 13.7016 58.3679C12.5136 58.0111 11.5748 57.3701 10.7084 56.4866C10.5995 56.3819 10.5995 56.3819 10.4884 56.2752C9.25761 55.0088 8.79713 53.4097 8.80207 51.6794C8.80039 51.5635 8.79871 51.4476 8.79698 51.3281C8.79633 50.1976 9.01113 49.1765 9.53078 48.1726C9.56724 48.1011 9.60371 48.0296 9.64128 47.956C9.96542 47.3394 10.3425 46.8077 10.8125 46.2944C10.9488 46.1424 10.9488 46.1424 11.0878 45.9874C12.7066 44.2372 14.7951 43.2949 17.0272 42.594C20.5335 41.4859 23.2471 39.6675 24.9967 36.3223C25.1717 35.9733 25.3338 35.6192 25.4908 35.2616C25.5219 35.191 25.553 35.1205 25.585 35.0478C26.1558 33.7241 26.5177 32.3465 26.8697 30.9501C26.9383 30.6778 27.0084 30.406 27.0792 30.1343C27.4153 28.8264 27.6056 27.6054 27.5859 26.2515C27.5849 26.1269 27.584 26.0023 27.583 25.8739C27.5806 25.5707 27.5772 25.2675 27.5729 24.9643C27.5042 24.9643 27.4355 24.9643 27.3647 24.9643C27.3579 25.0271 27.3512 25.0898 27.3443 25.1545C26.8856 29.311 25.5362 33.013 22.3117 35.7976C21.3602 36.5385 20.3501 37.0994 19.2448 37.5732C19.0739 37.6527 19.0739 37.6527 18.8995 37.7337C16.6555 38.6392 14.3088 38.384 12.0012 37.949C10.9623 37.7548 9.95377 37.6152 8.89315 37.6126C8.73639 37.611 8.73639 37.611 8.57645 37.6093C7.39627 37.6319 6.36004 38.0523 5.39925 38.729C5.32772 38.7793 5.2562 38.8295 5.1825 38.8813C4.33041 39.5548 3.67723 40.6505 3.31722 41.6711C3.28532 41.9582 3.26734 42.213 3.27167 42.4986C3.27253 42.5724 3.2734 42.6462 3.27429 42.7223C3.30757 43.7569 3.73337 44.4347 4.46233 45.1386C5.21738 45.7518 6.03168 45.7596 6.96077 45.6639C7.85828 45.3584 8.50429 44.6184 8.93595 43.7877C9.32929 42.9725 9.65553 42.1309 9.87561 41.2508C10.3275 41.2508 10.5137 41.3359 10.9101 41.5398C11.0163 41.5934 11.1224 41.6471 11.2318 41.7023C11.5357 41.8781 11.7949 42.0734 12.0617 42.3016C12.0055 42.8748 11.8016 43.3006 11.5347 43.7989C11.4927 43.878 11.4506 43.9571 11.4072 44.0386C11.0612 44.6737 10.6667 45.228 10.1879 45.769C10.1141 45.8584 10.0403 45.9478 9.96426 46.0399C9.10993 47.0505 8.10162 47.8582 6.74926 47.9973C5.22793 48.0945 4.0486 47.7866 2.84144 46.8144C1.77518 45.8353 1.11804 44.4913 1.02698 43.0371C1.01987 42.945 1.01276 42.8529 1.00543 42.758C0.938504 41.0567 1.49144 39.3737 2.60246 38.0902C2.83283 37.8387 3.07248 37.6004 3.31722 37.3631C3.4082 37.27 3.4082 37.27 3.50102 37.1751C4.7339 35.9998 6.60301 35.2546 8.27803 35.245C8.48197 35.2434 8.48197 35.2434 8.69004 35.2418C8.79809 35.2412 8.79809 35.2412 8.90831 35.2407C9.13669 35.2394 9.36504 35.2374 9.59341 35.2351C10.2425 35.2287 10.8916 35.223 11.5407 35.2194C11.939 35.2172 12.3372 35.2135 12.7355 35.2088C12.8854 35.2074 13.0354 35.2064 13.1853 35.2061C16.0498 35.1989 18.7556 34.3831 20.9104 32.4246C20.9859 32.3608 21.0615 32.297 21.1393 32.2313C22.5482 31.0367 23.5452 29.4553 24.3457 27.8013C24.396 27.698 24.4464 27.5946 24.4982 27.4882C25.124 26.0964 25.3202 24.7072 25.3347 23.1912C25.3366 23.0739 25.3385 22.9566 25.3405 22.8357C25.3328 21.8013 25.1105 20.8331 24.5279 19.9667C24.465 19.8714 24.402 19.776 24.3372 19.6778C24.2068 19.4933 24.0727 19.3114 23.9346 19.1327C22.492 17.2561 21.9603 15.0198 22.1596 12.6706C22.4306 10.6059 23.3041 8.77404 24.658 7.20679C24.7108 7.14475 24.7635 7.08272 24.8178 7.01881C25.8197 5.92743 27.1354 5.09589 28.5098 4.57993C28.5805 4.5531 28.6512 4.52626 28.724 4.49861C29.8016 4.1091 30.8426 4.00744 31.9842 4.00203Z" fill="#6890CC"/>
<path d="M34.0272 34.8413C34.0615 34.8413 34.0959 34.8413 34.1313 34.8413C34.3295 35.835 34.4701 36.8183 34.5477 37.8293C34.8228 41.3023 35.9983 43.8164 38.1441 46.5255C39.5594 48.3415 40.2975 50.1987 40.3253 52.5069C40.3273 52.6296 40.3292 52.7523 40.3313 52.8787C40.3178 54.6961 39.5862 56.2984 38.3994 57.6424C38.3301 57.7235 38.2607 57.8047 38.1892 57.8883C37.1351 59.043 35.491 59.9184 33.9231 60C33.6376 59.9966 33.4607 59.9898 33.2159 59.8391C32.9414 59.5473 32.8823 59.3401 32.8755 58.9427C33.0007 58.5414 33.0817 58.4293 33.4026 58.1678C33.6967 58.0285 34.0006 57.9218 34.3069 57.8131C35.813 57.2476 36.7031 56.519 37.4251 55.0492C37.7598 54.224 37.9375 53.4727 37.931 52.5791C37.9305 52.4835 37.9299 52.3878 37.9294 52.2892C37.9069 51.3994 37.7181 50.6793 37.3584 49.8669C37.3168 49.7698 37.2752 49.6727 37.2324 49.5726C36.7341 48.544 35.9335 47.6879 35.2048 46.8208C32.4117 43.4924 32.4117 43.4924 32.4394 41.7129C32.4837 41.2876 32.642 40.924 32.8105 40.535C33.1101 39.8008 33.3469 39.0881 33.5067 38.3087C33.5331 38.1897 33.5595 38.0706 33.5868 37.948C33.8059 36.9183 33.9262 35.8885 34.0272 34.8413Z" fill="#756BC4"/>
<path d="M29.759 34.8413C29.8277 34.8413 29.8964 34.8413 29.9672 34.8413C29.9774 34.9786 29.9876 35.116 29.9981 35.2575C30.1714 37.4171 30.6339 39.4394 31.4437 41.4519C31.656 41.9994 31.5302 42.4577 31.327 42.9845C30.7258 44.3526 29.9021 45.5219 28.9343 46.6486C27.3321 48.5146 25.9111 50.5236 26.089 53.1014C26.2699 54.6931 27.0768 56.0492 28.2817 57.0657C28.8829 57.5164 29.5584 57.763 30.2579 58.0157C30.3761 58.0591 30.3761 58.0591 30.4967 58.1033C30.5676 58.1285 30.6385 58.1536 30.7115 58.1795C30.9353 58.2879 31.0632 58.3908 31.2164 58.5881C31.281 59.0934 31.2896 59.3104 31.0212 59.7439C30.4914 60.0861 30.0097 60.0205 29.4073 59.9076C27.5218 59.4091 25.8812 58.1653 24.8467 56.5063C23.7619 54.5723 23.3847 52.3931 23.9228 50.2281C24.3715 48.5991 25.2546 47.2862 26.2746 45.9684C27.0401 44.9717 27.7162 43.9413 28.3016 42.8269C28.3519 42.7312 28.4022 42.6354 28.4541 42.5368C29.3377 40.7231 29.4616 38.6303 29.6159 36.6473C29.6299 36.4712 29.644 36.2952 29.6582 36.1192C29.6923 35.6933 29.7258 35.2673 29.759 34.8413Z" fill="#756CC3"/>
<path d="M16.1542 23.0824C17.2302 23.8543 18.1014 25.1019 18.3692 26.4231C18.5595 27.8826 18.3544 29.2319 17.475 30.4282C16.9037 31.1478 16.2165 31.6913 15.2896 31.8238C14.0843 31.9343 13.2318 31.7241 12.2765 30.9536C11.9228 30.6244 11.6761 30.3302 11.6063 29.8371C11.6453 29.5876 11.6453 29.5876 11.769 29.3971C11.9576 29.2724 11.9576 29.2724 12.1984 29.2067C12.5843 29.2973 12.6967 29.5121 12.9381 29.8162C13.2701 30.2026 13.6004 30.3875 14.0995 30.4754C14.7629 30.5174 15.1897 30.3828 15.7183 29.9779C16.2252 29.51 16.5033 28.9502 16.5804 28.2672C16.608 27.0795 16.3902 26.1967 15.5752 25.2861C14.657 24.4455 13.53 24.1801 12.3216 24.2034C11.3558 24.2709 10.5958 24.625 9.87561 25.2796C8.81777 26.5122 8.53947 27.6566 8.6082 29.2565C8.73959 30.8884 9.7853 32.3557 10.971 33.4055C11.2243 33.6209 11.4824 33.829 11.7437 34.0344C11.8143 34.0926 11.8849 34.1509 11.9576 34.2109C11.9576 34.2455 11.9576 34.2802 11.9576 34.3159C11.532 34.3422 11.1067 34.3611 10.6805 34.3737C10.5361 34.3789 10.3917 34.386 10.2474 34.3952C9.62184 34.434 9.05786 34.4656 8.51665 34.1028C8.2472 33.8378 8.01756 33.5699 7.79358 33.2652C7.71888 33.1642 7.71888 33.1642 7.64266 33.0611C7.1263 32.2927 6.7805 31.4264 6.54436 30.5333C6.52101 30.4498 6.49766 30.3664 6.47361 30.2804C6.06776 28.597 6.31791 26.715 7.20191 25.2287C8.21145 23.7061 9.51186 22.5949 11.3133 22.1674C13.0122 21.8685 14.695 22.1599 16.1542 23.0824Z" fill="#43C1E0"/>
<path d="M54.841 23.0073C55.0187 23.1313 55.1946 23.2581 55.368 23.3882C55.4414 23.4419 55.5148 23.4955 55.5904 23.5508C56.5133 24.2901 57.2172 25.4074 57.5541 26.5404C57.5773 26.6145 57.6006 26.6886 57.6245 26.765C58.0872 28.5854 57.7787 30.6714 56.9295 32.3195C56.6721 32.7222 56.3924 33.1006 56.0967 33.4753C56.0184 33.5767 56.0184 33.5767 55.9385 33.6801C55.7279 33.9454 55.5468 34.1256 55.2639 34.3159C54.9513 34.3398 54.9513 34.3398 54.573 34.3365C54.4378 34.3358 54.3026 34.3351 54.1633 34.3344C54.0205 34.3326 53.8777 34.3309 53.7349 34.3291C53.5909 34.328 53.4469 34.3271 53.3028 34.3262C52.9502 34.3237 52.5976 34.3203 52.2449 34.3159C52.5333 33.9566 52.8062 33.6303 53.1623 33.3374C54.2678 32.3769 55.2951 31.093 55.4721 29.5876C55.5648 28.0625 55.5632 26.7206 54.5466 25.4971C53.684 24.6426 52.6592 24.2247 51.4642 24.1894C50.3749 24.2203 49.2814 24.5614 48.5123 25.3801C47.7255 26.4057 47.5516 27.3677 47.6645 28.6419C47.8971 29.4272 48.3107 29.9191 49.0028 30.3338C49.4983 30.5433 50.1001 30.5105 50.609 30.3559C50.9855 30.1802 51.2533 29.9718 51.5358 29.6664C51.8285 29.3774 51.8285 29.3774 52.1148 29.3249C52.349 29.3774 52.349 29.3774 52.5573 29.5876C52.6158 29.8634 52.6158 29.8634 52.5573 30.218C52.0892 30.9322 51.3933 31.5346 50.5793 31.7941C49.363 31.9454 48.4007 31.8309 47.4124 31.0763C46.4713 30.2894 45.9605 29.3329 45.7906 28.1166C45.6628 26.7342 45.932 25.4731 46.7536 24.3404C46.8797 24.1945 47.0101 24.0522 47.144 23.9136C47.2211 23.8329 47.2983 23.7521 47.3778 23.669C49.3964 21.6999 52.4863 21.5729 54.841 23.0073Z" fill="#45C0E0"/>
<path d="M38.5035 33.3703C38.8241 33.6765 39.0754 33.9985 39.3298 34.3619C41.0059 36.6548 43.4737 38.2426 46.2071 38.9392C46.2722 38.9574 46.3373 38.9757 46.4044 38.9945C48.1848 39.4539 50.1469 39.2235 51.9196 38.8341C54.1971 38.3401 56.2241 38.1922 58.2438 39.504C58.6739 39.8353 59.0962 40.2211 59.3238 40.7255C59.2868 40.9606 59.2868 40.9606 59.2197 41.1457C59.078 41.006 59.078 41.006 58.9335 40.8634C57.8424 39.9471 56.671 39.8739 55.3069 39.9653C54.2576 40.0683 53.361 40.5632 52.4405 41.0444C51.904 41.3228 51.3513 41.5597 50.7875 41.7762C50.6888 41.8148 50.59 41.8534 50.4882 41.8932C48.5838 42.4386 46.2665 41.6313 44.5805 40.7517C41.9755 39.2252 39.3872 36.5506 38.5387 33.5466C38.5213 33.4593 38.5213 33.4593 38.5035 33.3703Z" fill="#514FA2"/>
<path d="M25.2826 33.4753C25.3514 33.4753 25.4201 33.4753 25.4908 33.4753C24.3083 36.6064 22.261 39.4347 19.2122 40.9093C18.0321 41.4089 16.7779 41.8742 15.4971 41.9863C15.3767 41.9975 15.2564 42.0086 15.1323 42.02C13.5754 42.0954 12.3321 41.4064 10.9833 40.7078C9.5677 39.9797 7.93701 39.6813 6.38171 40.1541C5.87384 40.3523 5.4725 40.6334 5.0601 40.9894C4.87874 41.1458 4.87874 41.1458 4.67054 41.2508C4.91772 40.3568 5.5454 39.7119 6.31014 39.215C8.42742 38.0648 10.7959 38.4731 13.0459 38.9989C13.7818 39.1672 14.4969 39.1858 15.2499 39.1822C15.3789 39.1816 15.508 39.181 15.6409 39.1804C18.2471 39.1456 20.8261 38.1852 22.7842 36.4174C22.8704 36.3441 22.9565 36.2709 23.0453 36.1954C23.8399 35.5049 24.5246 34.731 25.0679 33.8234C25.1388 33.7085 25.2096 33.5937 25.2826 33.4753Z" fill="#5150A1"/>
<path d="M47.5604 23.4933C47.5947 23.5973 47.6291 23.7013 47.6645 23.8085C47.6056 23.8668 47.5467 23.925 47.486 23.985C47.4096 24.0611 47.3332 24.1372 47.2546 24.2157C47.1785 24.2913 47.1024 24.3668 47.024 24.4447C46.8258 24.6355 46.8258 24.6355 46.7276 24.8593C46.6589 24.8246 46.5902 24.7899 46.5194 24.7542C47.1596 23.8667 47.1596 23.8667 47.5604 23.4933Z" fill="#4ABAD9"/>
<path d="M11.7494 23.9136C12.2991 23.9483 12.8488 23.9829 13.4151 24.0187C13.4151 24.0533 13.4151 24.088 13.4151 24.1237C13.2681 24.1333 13.2681 24.1333 13.1182 24.143C12.9886 24.1518 12.859 24.1606 12.7254 24.1697C12.5974 24.1782 12.4694 24.1868 12.3375 24.1956C11.9977 24.2253 11.6683 24.2719 11.333 24.3339C11.333 24.2645 11.333 24.1952 11.333 24.1237C11.4704 24.1237 11.6079 24.1237 11.7494 24.1237C11.7494 24.0544 11.7494 23.985 11.7494 23.9136Z" fill="#57B8D3"/>
<path d="M14.0397 22.2324C14.2221 22.2772 14.4043 22.3234 14.5862 22.3703C14.6877 22.3959 14.7891 22.4215 14.8936 22.4479C15.1837 22.5473 15.3694 22.6639 15.6012 22.8628C15.1676 22.8944 14.9089 22.8054 14.5277 22.6002C14.4357 22.5514 14.3438 22.5026 14.2491 22.4524C14.18 22.4145 14.1109 22.3765 14.0397 22.3375C14.0397 22.3028 14.0397 22.2681 14.0397 22.2324Z" fill="#51BBD3"/>
<path d="M58.491 35.892C58.6584 35.9545 58.8253 36.0182 58.992 36.0825C59.1315 36.1355 59.1315 36.1355 59.2738 36.1896C59.5236 36.3083 59.6657 36.4185 59.8444 36.6276C59.3385 36.5637 58.9344 36.341 58.491 36.1022C58.491 36.0328 58.491 35.9635 58.491 35.892Z" fill="#6198BE"/>
<path d="M33.6654 20.9063C33.6654 21.8655 33.0004 22.4658 32.0502 22.4658C31.0999 22.4658 30.3295 21.8655 30.3295 20.9063C30.3295 19.9472 31.0999 21.4734 32.0502 21.4734C33.0004 21.4734 33.6654 19.9472 33.6654 20.9063Z" fill="#1D223F"/>
<path d="M29.1299 16.5468C29.1299 17.4864 28.3752 18.2481 27.4443 18.2481C26.5135 18.2481 25.7588 17.4864 25.7588 16.5468C25.7588 15.6073 26.5135 14.8456 27.4443 14.8456C28.3752 14.8456 29.1299 15.6073 29.1299 16.5468Z" fill="#1D223F"/>
<path d="M38.33 16.5468C38.33 17.4864 37.5753 18.2481 36.6445 18.2481C35.7136 18.2481 34.9589 17.4864 34.9589 16.5468C34.9589 15.6073 35.7136 14.8456 36.6445 14.8456C37.5753 14.8456 38.33 15.6073 38.33 16.5468Z" fill="#1D223F"/>
</svg>
