<svg xmlns="http://www.w3.org/2000/svg" xmlns:xlink="http://www.w3.org/1999/xlink" contentStyleType="text/css" data-diagram-type="ACTIVITY" height="734px" preserveAspectRatio="none" style="width:467px;height:734px;background:#FFFFFF;" version="1.1" viewBox="0 0 467 734" width="467px" zoomAndPan="magnify"><defs><linearGradient id="gvwkqn1b3uwo70" x1="50%" x2="50%" y1="0%" y2="100%"><stop offset="0%" stop-color="#F0F921"/><stop offset="100%" stop-color="#9C179E"/></linearGradient></defs><g><rect fill="#0D0887" height="33.9688" rx="12.5" ry="12.5" style="stroke:#181818;stroke-width:0.5;" width="269.1406" x="99.0977" y="11"/><text fill="#FFFFFF" font-family="sans-serif" font-size="12" lengthAdjust="spacing" textLength="249.1406" x="109.0977" y="32.1387">Design temperature stable hard magnets</text><rect fill="#0D0887" height="33.9688" rx="12.5" ry="12.5" style="stroke:#181818;stroke-width:0.5;" width="122.0879" x="172.624" y="64.9688"/><text fill="#FFFFFF" font-family="sans-serif" font-size="12" lengthAdjust="spacing" textLength="102.0879" x="182.624" y="86.1074">Select a material</text><line style="stroke:#181818;stroke-width:1.5;" x1="107.3301" x2="343.998" y1="118.9375" y2="118.9375"/><rect fill="#F5F5DC" height="136.2344" rx="5" ry="5" style="stroke:#1E90FF;stroke-width:1.5;" width="192.6602" x="11" y="128.9375"/><path d="M48.3848,128.9375 L48.3848,138.2344 L38.3848,148.2344 L11,148.2344" fill="none" style="stroke:#1E90FF;stroke-width:1.5;"/><text fill="#1E90FF" font-family="sans-serif" font-size="14" lengthAdjust="spacing" textLength="27.3848" x="14" y="142.9326">DFT</text><rect fill="url(#gvwkqn1b3uwo70)" height="33.9688" rx="12.5" ry="12.5" style="stroke:#181818;stroke-width:0.5;" width="167.7383" x="23.4609" y="165.2344"/><text fill="#FFFFFF" font-family="sans-serif" font-size="12" lengthAdjust="spacing" textLength="147.7383" x="33.4609" y="186.373">Load from DFT database</text><rect fill="#F0F921" height="33.9688" rx="12.5" ry="12.5" style="stroke:#181818;stroke-width:0.5;" width="172.6602" x="21" y="219.2031"/><text fill="#000000" font-family="sans-serif" font-size="12" lengthAdjust="spacing" textLength="152.6602" x="31" y="240.3418">Zero temperature Ms &amp; K</text><rect fill="#F5F5DC" height="136.2344" rx="5" ry="5" style="stroke:#1E90FF;stroke-width:1.5;" width="224.6758" x="231.6602" y="128.9375"/><path d="M343.7891,128.9375 L343.7891,138.2344 L333.7891,148.2344 L231.6602,148.2344" fill="none" style="stroke:#1E90FF;stroke-width:1.5;"/><text fill="#1E90FF" font-family="sans-serif" font-size="14" lengthAdjust="spacing" textLength="102.1289" x="234.6602" y="142.9326">Spin dynamics</text><rect fill="url(#gvwkqn1b3uwo70)" height="33.9688" rx="12.5" ry="12.5" style="stroke:#181818;stroke-width:0.5;" width="161.123" x="263.4365" y="165.2344"/><text fill="#FFFFFF" font-family="sans-serif" font-size="12" lengthAdjust="spacing" textLength="141.123" x="273.4365" y="186.373">Load from SD database</text><rect fill="#F0F921" height="33.9688" rx="12.5" ry="12.5" style="stroke:#181818;stroke-width:0.5;" width="204.6758" x="241.6602" y="219.2031"/><text fill="#000000" font-family="sans-serif" font-size="12" lengthAdjust="spacing" textLength="184.6758" x="251.6602" y="240.3418">Temperature&#8208;dependent Ms(T)</text><line style="stroke:#181818;stroke-width:1.5;" x1="107.3301" x2="343.998" y1="285.1719" y2="285.1719"/><rect fill="#F5F5DC" height="136.2344" rx="5" ry="5" style="stroke:#1E90FF;stroke-width:1.5;" width="302.5703" x="82.3828" y="295.1719"/><path d="M149.0664,295.1719 L149.0664,304.4688 L139.0664,314.4688 L82.3828,314.4688" fill="none" style="stroke:#1E90FF;stroke-width:1.5;"/><text fill="#1E90FF" font-family="sans-serif" font-size="14" lengthAdjust="spacing" textLength="56.6836" x="85.3828" y="309.167">analysis</text><rect fill="#9C179E" height="33.9688" rx="12.5" ry="12.5" style="stroke:#181818;stroke-width:0.5;" width="131.8145" x="167.7607" y="331.4688"/><text fill="#FFFFFF" font-family="sans-serif" font-size="12" lengthAdjust="spacing" textLength="111.8145" x="177.7607" y="352.6074">Use Kuzmin model</text><rect fill="#F0F921" height="33.9688" rx="12.5" ry="12.5" style="stroke:#181818;stroke-width:0.5;" width="282.5703" x="92.3828" y="385.4375"/><text fill="#000000" font-family="sans-serif" font-size="12" lengthAdjust="spacing" textLength="262.5703" x="102.3828" y="406.5762">Temperature&#8208;dependent Ms(T), A(T), &amp; K(T)</text><rect fill="#0D0887" height="33.9688" rx="12.5" ry="12.5" style="stroke:#181818;stroke-width:0.5;" width="147.6934" x="159.8213" y="451.4063"/><text fill="#FFFFFF" font-family="sans-serif" font-size="12" lengthAdjust="spacing" textLength="127.6934" x="169.8213" y="472.5449">Select a temperature</text><rect fill="#F5F5DC" height="136.2344" rx="5" ry="5" style="stroke:#1E90FF;stroke-width:1.5;" width="223.9141" x="121.7109" y="495.375"/><path d="M185.3252,495.375 L185.3252,504.6719 L175.3252,514.6719 L121.7109,514.6719" fill="none" style="stroke:#1E90FF;stroke-width:1.5;"/><text fill="#1E90FF" font-family="sans-serif" font-size="14" lengthAdjust="spacing" textLength="53.6143" x="124.7109" y="509.3701">mumag</text><rect fill="#9C179E" height="33.9688" rx="12.5" ry="12.5" style="stroke:#181818;stroke-width:0.5;" width="203.9141" x="131.7109" y="531.6719"/><text fill="#FFFFFF" font-family="sans-serif" font-size="12" lengthAdjust="spacing" textLength="183.9141" x="141.7109" y="552.8105">Run micromagnetic simulation</text><rect fill="#ED7953" height="33.9688" rx="12.5" ry="12.5" style="stroke:#181818;stroke-width:0.5;" width="162.4004" x="152.4678" y="585.6406"/><text fill="#FFFFFF" font-family="sans-serif" font-size="12" lengthAdjust="spacing" textLength="142.4004" x="162.4678" y="606.7793">Output hysteresis loops</text><rect fill="#F5F5DC" height="82.2656" rx="5" ry="5" style="stroke:#1E90FF;stroke-width:1.5;" width="244.0645" x="111.6357" y="641.6094"/><path d="M178.3193,641.6094 L178.3193,650.9063 L168.3193,660.9063 L111.6357,660.9063" fill="none" style="stroke:#1E90FF;stroke-width:1.5;"/><text fill="#1E90FF" font-family="sans-serif" font-size="14" lengthAdjust="spacing" textLength="56.6836" x="114.6357" y="655.6045">analysis</text><rect fill="#F0F921" height="33.9688" rx="12.5" ry="12.5" style="stroke:#181818;stroke-width:0.5;" width="224.0645" x="121.6357" y="677.9063"/><text fill="#000000" font-family="sans-serif" font-size="12" lengthAdjust="spacing" textLength="204.0645" x="131.6357" y="699.0449">Extract Hc, Mr, BHmax from loops</text><line style="stroke:#181818;stroke-width:1;" x1="233.668" x2="233.668" y1="44.9688" y2="64.9688"/><polygon fill="#181818" points="229.668,54.9688,233.668,64.9688,237.668,54.9688,233.668,58.9688" style="stroke:#181818;stroke-width:1;"/><line style="stroke:#181818;stroke-width:1;" x1="107.3301" x2="107.3301" y1="199.2031" y2="219.2031"/><polygon fill="#181818" points="103.3301,209.2031,107.3301,219.2031,111.3301,209.2031,107.3301,213.2031" style="stroke:#181818;stroke-width:1;"/><line style="stroke:#181818;stroke-width:1;" x1="343.998" x2="343.998" y1="199.2031" y2="219.2031"/><polygon fill="#181818" points="339.998,209.2031,343.998,219.2031,347.998,209.2031,343.998,213.2031" style="stroke:#181818;stroke-width:1;"/><line style="stroke:#181818;stroke-width:1;" x1="107.3301" x2="107.3301" y1="120.4375" y2="165.2344"/><polygon fill="#181818" points="103.3301,155.2344,107.3301,165.2344,111.3301,155.2344,107.3301,159.2344" style="stroke:#181818;stroke-width:1;"/><line style="stroke:#181818;stroke-width:1;" x1="343.998" x2="343.998" y1="120.4375" y2="165.2344"/><polygon fill="#181818" points="339.998,155.2344,343.998,165.2344,347.998,155.2344,343.998,159.2344" style="stroke:#181818;stroke-width:1;"/><line style="stroke:#181818;stroke-width:1;" x1="107.3301" x2="107.3301" y1="253.1719" y2="285.1719"/><polygon fill="#181818" points="103.3301,275.1719,107.3301,285.1719,111.3301,275.1719,107.3301,279.1719" style="stroke:#181818;stroke-width:1;"/><line style="stroke:#181818;stroke-width:1;" x1="343.998" x2="343.998" y1="253.1719" y2="285.1719"/><polygon fill="#181818" points="339.998,275.1719,343.998,285.1719,347.998,275.1719,343.998,279.1719" style="stroke:#181818;stroke-width:1;"/><line style="stroke:#181818;stroke-width:1;" x1="233.668" x2="233.668" y1="98.9375" y2="118.9375"/><polygon fill="#181818" points="229.668,108.9375,233.668,118.9375,237.668,108.9375,233.668,112.9375" style="stroke:#181818;stroke-width:1;"/><line style="stroke:#181818;stroke-width:1;" x1="233.668" x2="233.668" y1="365.4375" y2="385.4375"/><polygon fill="#181818" points="229.668,375.4375,233.668,385.4375,237.668,375.4375,233.668,379.4375" style="stroke:#181818;stroke-width:1;"/><line style="stroke:#181818;stroke-width:1;" x1="233.668" x2="233.668" y1="286.6719" y2="331.4688"/><polygon fill="#181818" points="229.668,321.4688,233.668,331.4688,237.668,321.4688,233.668,325.4688" style="stroke:#181818;stroke-width:1;"/><line style="stroke:#181818;stroke-width:1;" x1="233.668" x2="233.668" y1="419.4063" y2="451.4063"/><polygon fill="#181818" points="229.668,441.4063,233.668,451.4063,237.668,441.4063,233.668,445.4063" style="stroke:#181818;stroke-width:1;"/><line style="stroke:#181818;stroke-width:1;" x1="233.668" x2="233.668" y1="565.6406" y2="585.6406"/><polygon fill="#181818" points="229.668,575.6406,233.668,585.6406,237.668,575.6406,233.668,579.6406" style="stroke:#181818;stroke-width:1;"/><line style="stroke:#181818;stroke-width:1;" x1="233.668" x2="233.668" y1="485.375" y2="531.6719"/><polygon fill="#181818" points="229.668,521.6719,233.668,531.6719,237.668,521.6719,233.668,525.6719" style="stroke:#181818;stroke-width:1;"/><line style="stroke:#181818;stroke-width:1;" x1="233.668" x2="233.668" y1="619.6094" y2="677.9063"/><polygon fill="#181818" points="229.668,667.9063,233.668,677.9063,237.668,667.9063,233.668,671.9063" style="stroke:#181818;stroke-width:1;"/><!--SRC=[ZPBFJjj04CRlVehffQLIAjzJX1G8LIGQKP5muM9DlOEzwlxJpgvAUkeZz1dx99srAG5a83vOQsk-cTzy-xrBFLc2zUNPQh5SV0e6sIBSHc-Xxhsbcj7MaOBdslgsHuND3vtgGSLLLSsNnBfpaCW6YfXo9E24tmr1Zr61nSvHuizmV9oPOjCYKwDToEdaf9flo52R0AKiKTHefkiu69qgW2xw763vPIjLmxbXxJf3KWBopBzwL2DxgL4e7DAcz2pdfdoendf5vh_YXg9_mhvcU0yNHHAYRucBmkSqSW2GKoF5o0JOeNOFP9kW7QYTGwjRVfDnipm8SRkd-_lxZw8W3EIIa1vjFnu0MawZWTL8YGxDZlKauFoQ2IxoBokB31Hbm1xdTPWPB8Qt6FWosXxiqVK_ke7f15GV04wpDagQnonnwmd4PB5no9TkHzhx3MsMtvFhNOdsgOwrpGQJzkxPgfS3CVGxbcXIySju7uOaH_mvjP0mVlESn9ZxlMNmGQQVtwM8OiIgdS4wpk1qPV5k3Cd3p5Uj_0S0]--></g></svg>