<svg xmlns="http://www.w3.org/2000/svg" xmlns:xlink="http://www.w3.org/1999/xlink" contentStyleType="text/css" data-diagram-type="ACTIVITY" height="929px" preserveAspectRatio="none" style="width:329px;height:929px;background:#FFFFFF;" version="1.1" viewBox="0 0 329 929" width="329px" zoomAndPan="magnify"><defs><linearGradient id="g3q6vt0hy3cxx0" x1="50%" x2="50%" y1="0%" y2="100%"><stop offset="0%" stop-color="#F0F921"/><stop offset="100%" stop-color="#9C179E"/></linearGradient></defs><g><rect fill="#0D0887" height="33.9688" rx="12.5" ry="12.5" style="stroke:#181818;stroke-width:0.5;" width="269.1406" x="27.7148" y="11"/><text fill="#FFFFFF" font-family="sans-serif" font-size="12" lengthAdjust="spacing" textLength="249.1406" x="37.7148" y="32.1387">Design temperature stable hard magnets</text><rect fill="#0D0887" height="33.9688" rx="12.5" ry="12.5" style="stroke:#181818;stroke-width:0.5;" width="122.0879" x="101.2412" y="64.9688"/><text fill="#FFFFFF" font-family="sans-serif" font-size="12" lengthAdjust="spacing" textLength="102.0879" x="111.2412" y="86.1074">Select a material</text><rect fill="#F5F5DC" height="136.2344" rx="5" ry="5" style="stroke:#1E90FF;stroke-width:1.5;" width="224.6758" x="49.9473" y="108.9375"/><path d="M162.0762,108.9375 L162.0762,118.2344 L152.0762,128.2344 L49.9473,128.2344" fill="none" style="stroke:#1E90FF;stroke-width:1.5;"/><text fill="#1E90FF" font-family="sans-serif" font-size="14" lengthAdjust="spacing" textLength="102.1289" x="52.9473" y="122.9326">Spin dynamics</text><rect fill="url(#g3q6vt0hy3cxx0)" height="33.9688" rx="12.5" ry="12.5" style="stroke:#181818;stroke-width:0.5;" width="161.123" x="81.7236" y="145.2344"/><text fill="#FFFFFF" font-family="sans-serif" font-size="12" lengthAdjust="spacing" textLength="141.123" x="91.7236" y="166.373">Load from SD database</text><rect fill="#F0F921" height="33.9688" rx="12.5" ry="12.5" style="stroke:#181818;stroke-width:0.5;" width="204.6758" x="59.9473" y="199.2031"/><text fill="#000000" font-family="sans-serif" font-size="12" lengthAdjust="spacing" textLength="184.6758" x="69.9473" y="220.3418">Temperature&#8208;dependent Ms(T)</text><rect fill="#F5F5DC" height="136.2344" rx="5" ry="5" style="stroke:#1E90FF;stroke-width:1.5;" width="302.5703" x="11" y="255.1719"/><path d="M77.6836,255.1719 L77.6836,264.4688 L67.6836,274.4688 L11,274.4688" fill="none" style="stroke:#1E90FF;stroke-width:1.5;"/><text fill="#1E90FF" font-family="sans-serif" font-size="14" lengthAdjust="spacing" textLength="56.6836" x="14" y="269.167">analysis</text><rect fill="#9C179E" height="33.9688" rx="12.5" ry="12.5" style="stroke:#181818;stroke-width:0.5;" width="131.8145" x="96.3779" y="291.4688"/><text fill="#FFFFFF" font-family="sans-serif" font-size="12" lengthAdjust="spacing" textLength="111.8145" x="106.3779" y="312.6074">Use Kuzmin model</text><rect fill="#F0F921" height="33.9688" rx="12.5" ry="12.5" style="stroke:#181818;stroke-width:0.5;" width="282.5703" x="21" y="345.4375"/><text fill="#000000" font-family="sans-serif" font-size="12" lengthAdjust="spacing" textLength="262.5703" x="31" y="366.5762">Temperature&#8208;dependent Ms(T), A(T), &amp; K(T)</text><rect fill="#0D0887" height="33.9688" rx="12.5" ry="12.5" style="stroke:#181818;stroke-width:0.5;" width="147.6934" x="88.4385" y="411.4063"/><text fill="#FFFFFF" font-family="sans-serif" font-size="12" lengthAdjust="spacing" textLength="127.6934" x="98.4385" y="432.5449">Select a temperature</text><rect fill="#F5F5DC" height="408.7656" rx="5" ry="5" style="stroke:#1E90FF;stroke-width:1.5;" width="288.8906" x="29.8398" y="455.375"/><path d="M126.9434,455.375 L126.9434,464.6719 L116.9434,474.6719 L29.8398,474.6719" fill="none" style="stroke:#1E90FF;stroke-width:1.5;"/><text fill="#1E90FF" font-family="sans-serif" font-size="14" lengthAdjust="spacing" textLength="87.1035" x="32.8398" y="469.3701">optimization</text><rect fill="#0D0887" height="33.9688" rx="12.5" ry="12.5" style="stroke:#181818;stroke-width:0.5;" width="158.6914" x="82.9395" y="535.6719"/><text fill="#FFFFFF" font-family="sans-serif" font-size="12" lengthAdjust="spacing" textLength="138.6914" x="92.9395" y="556.8105">Propose new geometry</text><rect fill="#F5F5DC" height="136.2344" rx="5" ry="5" style="stroke:#1E90FF;stroke-width:1.5;" width="223.9141" x="50.3281" y="579.6406"/><path d="M123.5605,579.6406 L123.5605,588.9375 L113.5605,598.9375 L50.3281,598.9375" fill="none" style="stroke:#1E90FF;stroke-width:1.5;"/><text fill="#1E90FF" font-family="sans-serif" font-size="14" lengthAdjust="spacing" textLength="63.2324" x="53.3281" y="593.6357">ubermag</text><rect fill="#9C179E" height="33.9688" rx="12.5" ry="12.5" style="stroke:#181818;stroke-width:0.5;" width="203.9141" x="60.3281" y="615.9375"/><text fill="#FFFFFF" font-family="sans-serif" font-size="12" lengthAdjust="spacing" textLength="183.9141" x="70.3281" y="637.0762">Run micromagnetic simulation</text><rect fill="#ED7953" height="33.9688" rx="12.5" ry="12.5" style="stroke:#181818;stroke-width:0.5;" width="162.4004" x="81.085" y="669.9063"/><text fill="#FFFFFF" font-family="sans-serif" font-size="12" lengthAdjust="spacing" textLength="142.4004" x="91.085" y="691.0449">Output hysteresis loops</text><rect fill="#F5F5DC" height="82.2656" rx="5" ry="5" style="stroke:#1E90FF;stroke-width:1.5;" width="244.8906" x="39.8398" y="725.875"/><path d="M106.5234,725.875 L106.5234,735.1719 L96.5234,745.1719 L39.8398,745.1719" fill="none" style="stroke:#1E90FF;stroke-width:1.5;"/><text fill="#1E90FF" font-family="sans-serif" font-size="14" lengthAdjust="spacing" textLength="56.6836" x="42.8398" y="739.8701">analysis</text><rect fill="#F0F921" height="33.9688" rx="12.5" ry="12.5" style="stroke:#181818;stroke-width:0.5;" width="224.8906" x="49.8398" y="762.1719"/><text fill="#000000" font-family="sans-serif" font-size="12" lengthAdjust="spacing" textLength="204.8906" x="59.8398" y="783.3105">Extract linear segment from loops</text><polygon fill="#F1F1F1" points="162.2852,491.6719,174.2852,503.6719,162.2852,515.6719,150.2852,503.6719,162.2852,491.6719" style="stroke:#181818;stroke-width:0.5;"/><polygon fill="#F1F1F1" points="162.2852,828.1406,162.2852,828.1406,174.2852,840.1406,162.2852,852.1406,162.2852,852.1406,150.2852,840.1406,162.2852,828.1406" style="stroke:#181818;stroke-width:0.5;"/><rect fill="#F0F921" height="33.9688" rx="12.5" ry="12.5" style="stroke:#181818;stroke-width:0.5;" width="129.4473" x="97.5615" y="884.1406"/><text fill="#000000" font-family="sans-serif" font-size="12" lengthAdjust="spacing" textLength="109.4473" x="107.5615" y="905.2793">Optimal geometry</text><line style="stroke:#181818;stroke-width:1;" x1="162.2852" x2="162.2852" y1="44.9688" y2="64.9688"/><polygon fill="#181818" points="158.2852,54.9688,162.2852,64.9688,166.2852,54.9688,162.2852,58.9688" style="stroke:#181818;stroke-width:1;"/><line style="stroke:#181818;stroke-width:1;" x1="162.2852" x2="162.2852" y1="179.2031" y2="199.2031"/><polygon fill="#181818" points="158.2852,189.2031,162.2852,199.2031,166.2852,189.2031,162.2852,193.2031" style="stroke:#181818;stroke-width:1;"/><line style="stroke:#181818;stroke-width:1;" x1="162.2852" x2="162.2852" y1="98.9375" y2="145.2344"/><polygon fill="#181818" points="158.2852,135.2344,162.2852,145.2344,166.2852,135.2344,162.2852,139.2344" style="stroke:#181818;stroke-width:1;"/><line style="stroke:#181818;stroke-width:1;" x1="162.2852" x2="162.2852" y1="325.4375" y2="345.4375"/><polygon fill="#181818" points="158.2852,335.4375,162.2852,345.4375,166.2852,335.4375,162.2852,339.4375" style="stroke:#181818;stroke-width:1;"/><line style="stroke:#181818;stroke-width:1;" x1="162.2852" x2="162.2852" y1="233.1719" y2="291.4688"/><polygon fill="#181818" points="158.2852,281.4688,162.2852,291.4688,166.2852,281.4688,162.2852,285.4688" style="stroke:#181818;stroke-width:1;"/><line style="stroke:#181818;stroke-width:1;" x1="162.2852" x2="162.2852" y1="379.4063" y2="411.4063"/><polygon fill="#181818" points="158.2852,401.4063,162.2852,411.4063,166.2852,401.4063,162.2852,405.4063" style="stroke:#181818;stroke-width:1;"/><line style="stroke:#181818;stroke-width:1;" x1="162.2852" x2="162.2852" y1="649.9063" y2="669.9063"/><polygon fill="#181818" points="158.2852,659.9063,162.2852,669.9063,166.2852,659.9063,162.2852,663.9063" style="stroke:#181818;stroke-width:1;"/><line style="stroke:#181818;stroke-width:1;" x1="162.2852" x2="162.2852" y1="569.6406" y2="615.9375"/><polygon fill="#181818" points="158.2852,605.9375,162.2852,615.9375,166.2852,605.9375,162.2852,609.9375" style="stroke:#181818;stroke-width:1;"/><line style="stroke:#181818;stroke-width:1;" x1="162.2852" x2="162.2852" y1="703.875" y2="762.1719"/><polygon fill="#181818" points="158.2852,752.1719,162.2852,762.1719,166.2852,752.1719,162.2852,756.1719" style="stroke:#181818;stroke-width:1;"/><line style="stroke:#181818;stroke-width:1;" x1="162.2852" x2="162.2852" y1="515.6719" y2="535.6719"/><polygon fill="#181818" points="158.2852,525.6719,162.2852,535.6719,166.2852,525.6719,162.2852,529.6719" style="stroke:#181818;stroke-width:1;"/><line style="stroke:#181818;stroke-width:1;" x1="174.2852" x2="296.7305" y1="840.1406" y2="840.1406"/><polygon fill="#181818" points="292.7305,682.4063,296.7305,672.4063,300.7305,682.4063,296.7305,678.4063" style="stroke:#181818;stroke-width:1;"/><line style="stroke:#181818;stroke-width:1;" x1="296.7305" x2="296.7305" y1="503.6719" y2="840.1406"/><line style="stroke:#181818;stroke-width:1;" x1="296.7305" x2="174.2852" y1="503.6719" y2="503.6719"/><polygon fill="#181818" points="184.2852,499.6719,174.2852,503.6719,184.2852,507.6719,180.2852,503.6719" style="stroke:#181818;stroke-width:1;"/><line style="stroke:#181818;stroke-width:1;" x1="162.2852" x2="162.2852" y1="796.1406" y2="828.1406"/><polygon fill="#181818" points="158.2852,818.1406,162.2852,828.1406,166.2852,818.1406,162.2852,822.1406" style="stroke:#181818;stroke-width:1;"/><line style="stroke:#181818;stroke-width:1;" x1="162.2852" x2="162.2852" y1="445.375" y2="491.6719"/><polygon fill="#181818" points="158.2852,481.6719,162.2852,491.6719,166.2852,481.6719,162.2852,485.6719" style="stroke:#181818;stroke-width:1;"/><line style="stroke:#181818;stroke-width:1;" x1="162.2852" x2="162.2852" y1="852.1406" y2="884.1406"/><polygon fill="#181818" points="158.2852,874.1406,162.2852,884.1406,166.2852,874.1406,162.2852,878.1406" style="stroke:#181818;stroke-width:1;"/><!--SRC=[ZPBFQjmm4CRlVehffMcXnVTj26owWK8IDdJJivbO4rjK_z18R3UdFaAViK_IaRnqOs92BiOIdsP-yttpBera2MwtNx-jD-lFmI1RXCVeBRIZjzGosZPIyDnQtu-eiFkfKrjVSTCqgmsn7Xmaie4YfXm9EE638HWnAh0uE4hy1SxFCrFiUcJgj0ivNLmqgnqPwXEWo195ZMPPDqIV0-o2Tg0E3gtkMNJrjcFj1aCY0bZTU5GJ-su32WL3gfIIvRyh1zLPhyXCyliJyz_VVnG5SefSWbl-SF-nF0lHzyJbbSzfGX49rCRDaGeTcWFhPQ0VJ72Tdwo0rxwbw5i1Fi6wVj_3zPjmJcO-osBPp-OCu39hewHup1BUI22cYd4rBTrFjCS9VKZQwYTCshkNKyfk42QPHkQvYruMXS3H7WQIxKdni4nGv5Fr_41HsYxPLsj-5xuv6skRJQMPsrdbs-eCZ0UMXQAIY_4-rFsBk3yPLyGdyyf9FBdpd2I8eyy2qZm3VIteslhgLuee0HZj22Cm3RQ4MVVnFyH2XdEKoK_OZzhGBDvjYG7DpDY5Qly0]--></g></svg>