# File generated by ImageToStl.com - Free Image and 3D model conversion tools

o obj1
v -0.1819275 0.17246599 0.03492506
v -0.14128751 0.17246599 0.03492506
v -0.14128751 0.17373601 0.03458477
v -0.1819275 0.17373601 0.03458477
v -0.14128751 0.1746657 0.03365506
v -0.1819275 0.1746657 0.03365506
v -0.14128751 0.175006 0.03238506
v -0.1819275 0.175006 0.03238506
v -0.1819275 0.175006 -0.03187694
v -0.14128751 0.175006 -0.03187694
v -0.14128751 0.1746657 -0.03314694
v -0.1819275 0.1746657 -0.03314694
v -0.14128751 0.17373601 -0.03407664
v -0.1819275 0.17373601 -0.03407664
v -0.14128751 0.17246599 -0.03441694
v -0.1819275 0.17246599 -0.03441694
v -0.1819275 0.108204 -0.03441694
v -0.14128751 0.108204 -0.03441694
v -0.14128751 0.106934 -0.03407664
v -0.1819275 0.106934 -0.03407664
v -0.14128751 0.1060043 -0.03314694
v -0.1819275 0.1060043 -0.03314694
v -0.14128751 0.105664 -0.03187694
v -0.1819275 0.105664 -0.03187694
v -0.1819275 0.105664 0.03238506
v -0.14128751 0.105664 0.03238506
v -0.14128751 0.1060043 0.03365506
v -0.1819275 0.1060043 0.03365506
v -0.14128751 0.106934 0.03458477
v -0.1819275 0.106934 0.03458477
v -0.14128751 0.108204 0.03492506
v -0.1819275 0.108204 0.03492506
v -0.19177 0.04799868 -0.02396684
v -0.19177 0.0508 -0.02413
v -0.06985 0.0508 -0.02413
v -0.06985 0.05360132 -0.02396684
v -0.19177 0.05360132 -0.02396684
v -0.19177 0.05905295 -0.02267478
v -0.06985 0.05905295 -0.02267478
v -0.19177 0.06405965 -0.02016032
v -0.06985 0.06405965 -0.02016032
v -0.19177 0.06835153 -0.01655901
v -0.06985 0.06835153 -0.01655901
v -0.19177 0.0716972 -0.012065
v -0.06985 0.0716972 -0.012065
v -0.19177 0.07391629 -0.00692056
v -0.06985 0.07391629 -0.00692056
v -0.19177 0.07488918 -0.00140303
v -0.06985 0.07488918 -0.00140303
v -0.19177 0.07456341 0.00419013
v -0.06985 0.07456341 0.00419013
v -0.19177 0.07295655 0.0095574
v -0.06985 0.07295655 0.0095574
v -0.19177 0.07015523 0.01440944
v -0.06985 0.07015523 0.01440944
v -0.19177 0.06631047 0.01848465
v -0.06985 0.06631047 0.01848465
v -0.19177 0.06162952 0.02156335
v -0.06985 0.06162952 0.02156335
v -0.19177 0.05636476 0.02347957
v -0.06985 0.05636476 0.02347957
v -0.19177 0.0508 0.02413
v -0.06985 0.0508 0.02413
v -0.19177 0.04523524 0.02347957
v -0.06985 0.04523524 0.02347957
v -0.19177 0.03997048 0.02156335
v -0.06985 0.03997048 0.02156335
v -0.19177 0.03528954 0.01848465
v -0.06985 0.03528954 0.01848465
v -0.19177 0.03144477 0.01440944
v -0.06985 0.03144477 0.01440944
v -0.19177 0.02864345 0.0095574
v -0.06985 0.02864345 0.0095574
v -0.19177 0.02703659 0.00419013
v -0.06985 0.02703659 0.00419013
v -0.19177 0.02671083 -0.00140303
v -0.06985 0.02671083 -0.00140303
v -0.19177 0.02768372 -0.00692056
v -0.06985 0.02768372 -0.00692056
v -0.19177 0.0299028 -0.012065
v -0.06985 0.0299028 -0.012065
v -0.19177 0.03324847 -0.01655901
v -0.06985 0.03324847 -0.01655901
v -0.19177 0.03754035 -0.02016032
v -0.06985 0.03754035 -0.02016032
v -0.19177 0.04254705 -0.02267478
v -0.06985 0.04254705 -0.02267478
v -0.06985 0.04799868 -0.02396684
v -0.19177 0.0508 -0
v -0.06985 0.0508 -0
v 0.1819275 0.17246599 -0.03492506
v 0.14128751 0.17246599 -0.03492506
v 0.14128751 0.17373601 -0.03458477
v 0.1819275 0.17373601 -0.03458477
v 0.14128751 0.1746657 -0.03365506
v 0.1819275 0.1746657 -0.03365506
v 0.14128751 0.175006 -0.03238506
v 0.1819275 0.175006 -0.03238506
v 0.1819275 0.175006 0.03187694
v 0.14128751 0.175006 0.03187694
v 0.14128751 0.1746657 0.03314694
v 0.1819275 0.1746657 0.03314694
v 0.14128751 0.17373601 0.03407664
v 0.1819275 0.17373601 0.03407664
v 0.14128751 0.17246599 0.03441694
v 0.1819275 0.17246599 0.03441694
v 0.1819275 0.108204 0.03441694
v 0.14128751 0.108204 0.03441694
v 0.14128751 0.106934 0.03407664
v 0.1819275 0.106934 0.03407664
v 0.14128751 0.1060043 0.03314694
v 0.1819275 0.1060043 0.03314694
v 0.14128751 0.105664 0.03187694
v 0.1819275 0.105664 0.03187694
v 0.1819275 0.105664 -0.03238506
v 0.14128751 0.105664 -0.03238506
v 0.14128751 0.1060043 -0.03365506
v 0.1819275 0.1060043 -0.03365506
v 0.14128751 0.106934 -0.03458477
v 0.1819275 0.106934 -0.03458477
v 0.14128751 0.108204 -0.03492506
v 0.1819275 0.108204 -0.03492506
v 0.19177 0.04799868 0.02396684
v 0.19177 0.0508 0.02413
v 0.06985 0.0508 0.02413
v 0.06985 0.05360132 0.02396684
v 0.19177 0.05360132 0.02396684
v 0.19177 0.05905295 0.02267478
v 0.06985 0.05905295 0.02267478
v 0.19177 0.06405965 0.02016032
v 0.06985 0.06405965 0.02016032
v 0.19177 0.06835153 0.01655901
v 0.06985 0.06835153 0.01655901
v 0.19177 0.0716972 0.012065
v 0.06985 0.0716972 0.012065
v 0.19177 0.07391629 0.00692056
v 0.06985 0.07391629 0.00692056
v 0.19177 0.07488918 0.00140303
v 0.06985 0.07488918 0.00140303
v 0.19177 0.07456341 -0.00419013
v 0.06985 0.07456341 -0.00419013
v 0.19177 0.07295655 -0.0095574
v 0.06985 0.07295655 -0.0095574
v 0.19177 0.07015523 -0.01440944
v 0.06985 0.07015523 -0.01440944
v 0.19177 0.06631047 -0.01848465
v 0.06985 0.06631047 -0.01848465
v 0.19177 0.06162952 -0.02156335
v 0.06985 0.06162952 -0.02156335
v 0.19177 0.05636476 -0.02347957
v 0.06985 0.05636476 -0.02347957
v 0.19177 0.0508 -0.02413
v 0.06985 0.0508 -0.02413
v 0.19177 0.04523524 -0.02347957
v 0.06985 0.04523524 -0.02347957
v 0.19177 0.03997048 -0.02156335
v 0.06985 0.03997048 -0.02156335
v 0.19177 0.03528954 -0.01848465
v 0.06985 0.03528954 -0.01848465
v 0.19177 0.03144477 -0.01440944
v 0.06985 0.03144477 -0.01440944
v 0.19177 0.02864345 -0.0095574
v 0.06985 0.02864345 -0.0095574
v 0.19177 0.02703659 -0.00419013
v 0.06985 0.02703659 -0.00419013
v 0.19177 0.02671083 0.00140303
v 0.06985 0.02671083 0.00140303
v 0.19177 0.02768372 0.00692056
v 0.06985 0.02768372 0.00692056
v 0.19177 0.0299028 0.012065
v 0.06985 0.0299028 0.012065
v 0.19177 0.03324847 0.01655901
v 0.06985 0.03324847 0.01655901
v 0.19177 0.03754035 0.02016032
v 0.06985 0.03754035 0.02016032
v 0.19177 0.04254705 0.02267478
v 0.06985 0.04254705 0.02267478
v 0.06985 0.04799868 0.02396684
v 0.19177 0.0508 0
v 0.06985 0.0508 0
vn 0 0.25882 0.96593
vn 0 0.70711 0.70711
vn 0 0.96593 0.25882
vn 0 1 -0
vn 0 0.96593 -0.25882
vn -0 0.70711 -0.70711
vn -0 0.25882 -0.96593
vn -0 -0 -1
vn -0 -0.25882 -0.96593
vn -0 -0.70711 -0.70711
vn -0 -0.96593 -0.25882
vn -0 -1 0
vn -0 -0.96593 0.25882
vn 0 -0.70711 0.70711
vn 0 -0.25882 0.96593
vn 0 0 1
vn -1 -0 0
vn 1 0 -0
vn -0 -0.05814 -0.99831
vn -0 0.05814 -0.99831
vn -0 0.23062 -0.97304
vn -0 0.4488 -0.89363
vn -0 0.64279 -0.76604
vn -0 0.80212 -0.59716
vn 0 0.91822 -0.39608
vn 0 0.98481 -0.17365
vn 0 0.99831 0.05814
vn 0 0.95799 0.2868
vn 0 0.86603 0.5
vn 0 0.72737 0.68624
vn 0 0.54951 0.83549
vn 0 0.34202 0.93969
vn 0 0.11609 0.99324
vn 0 -0.11609 0.99324
vn 0 -0.34202 0.93969
vn 0 -0.54951 0.83549
vn 0 -0.72737 0.68624
vn -0 -0.86603 0.5
vn -0 -0.95799 0.2868
vn -0 -0.99831 0.05814
vn -0 -0.98481 -0.17365
vn -0 -0.91822 -0.39608
vn -0 -0.80212 -0.59716
vn -0 -0.64279 -0.76604
vn -0 -0.4488 -0.89363
vn -0 -0.23062 -0.97304
vn 0 -0.05814 0.99831
vn 0 0.05814 0.99831
vn 0 0.23062 0.97304
vn 0 0.4488 0.89363
vn 0 0.64279 0.76604
vn 0 0.80212 0.59716
vn 0 0.91822 0.39608
vn 0 0.98481 0.17365
vn 0 0.99831 -0.05814
vn 0 0.95799 -0.2868
vn 0 0.86603 -0.5
vn -0 0.72737 -0.68624
vn -0 0.54951 -0.83549
vn -0 0.34202 -0.93969
vn -0 0.11609 -0.99324
vn -0 -0.11609 -0.99324
vn -0 -0.34202 -0.93969
vn -0 -0.54951 -0.83549
vn -0 -0.72737 -0.68624
vn -0 -0.86603 -0.5
vn -0 -0.95799 -0.2868
vn -0 -0.99831 -0.05814
vn -0 -0.98481 0.17365
vn -0 -0.91822 0.39608
vn 0 -0.80212 0.59716
vn 0 -0.64279 0.76604
vn 0 -0.4488 0.89363
vn 0 -0.23062 0.97304
f 1//1 2//1 3//1
f 1//1 3//1 4//1
f 4//2 3//2 5//2
f 4//2 5//2 6//2
f 6//3 5//3 7//3
f 6//3 7//3 8//3
f 9//4 8//4 10//4
f 10//4 8//4 7//4
f 9//5 10//5 11//5
f 9//5 11//5 12//5
f 12//6 11//6 13//6
f 12//6 13//6 14//6
f 14//7 13//7 15//7
f 14//7 15//7 16//7
f 17//8 16//8 18//8
f 18//8 16//8 15//8
f 17//9 18//9 19//9
f 17//9 19//9 20//9
f 20//10 19//10 21//10
f 20//10 21//10 22//10
f 22//11 21//11 23//11
f 22//11 23//11 24//11
f 25//12 24//12 26//12
f 26//12 24//12 23//12
f 25//13 26//13 27//13
f 25//13 27//13 28//13
f 28//14 27//14 29//14
f 28//14 29//14 30//14
f 30//15 29//15 31//15
f 30//15 31//15 32//15
f 1//16 32//16 2//16
f 2//16 32//16 31//16
f 9//17 24//17 8//17
f 8//17 24//17 25//17
f 20//17 22//17 17//17
f 17//17 22//17 24//17
f 17//17 24//17 16//17
f 16//17 24//17 9//17
f 16//17 9//17 14//17
f 14//17 9//17 12//17
f 4//17 6//17 1//17
f 1//17 6//17 8//17
f 1//17 8//17 32//17
f 32//17 8//17 25//17
f 32//17 25//17 30//17
f 30//17 25//17 28//17
f 23//18 10//18 26//18
f 26//18 10//18 7//18
f 13//18 11//18 15//18
f 15//18 11//18 10//18
f 15//18 10//18 18//18
f 18//18 10//18 23//18
f 18//18 23//18 19//18
f 19//18 23//18 21//18
f 29//18 27//18 31//18
f 31//18 27//18 26//18
f 31//18 26//18 2//18
f 2//18 26//18 7//18
f 2//18 7//18 3//18
f 3//18 7//18 5//18
f 33//19 34//19 35//19
f 35//20 34//20 36//20
f 34//20 37//20 36//20
f 36//21 37//21 38//21
f 36//21 38//21 39//21
f 39//22 38//22 40//22
f 39//22 40//22 41//22
f 41//23 40//23 42//23
f 41//23 42//23 43//23
f 43//24 42//24 44//24
f 43//24 44//24 45//24
f 45//25 44//25 46//25
f 45//25 46//25 47//25
f 47//26 46//26 48//26
f 47//26 48//26 49//26
f 49//27 48//27 50//27
f 49//27 50//27 51//27
f 51//28 50//28 52//28
f 51//28 52//28 53//28
f 53//29 52//29 54//29
f 53//29 54//29 55//29
f 55//30 54//30 56//30
f 55//30 56//30 57//30
f 57//31 56//31 58//31
f 57//31 58//31 59//31
f 59//32 58//32 60//32
f 59//32 60//32 61//32
f 61//33 60//33 62//33
f 61//33 62//33 63//33
f 63//34 62//34 64//34
f 63//34 64//34 65//34
f 65//35 64//35 66//35
f 65//35 66//35 67//35
f 67//36 66//36 68//36
f 67//36 68//36 69//36
f 69//37 68//37 70//37
f 69//37 70//37 71//37
f 71//38 70//38 72//38
f 71//38 72//38 73//38
f 73//39 72//39 74//39
f 73//39 74//39 75//39
f 75//40 74//40 76//40
f 75//40 76//40 77//40
f 77//41 76//41 78//41
f 77//41 78//41 79//41
f 79//42 78//42 80//42
f 79//42 80//42 81//42
f 81//43 80//43 82//43
f 81//43 82//43 83//43
f 83//44 82//44 84//44
f 83//44 84//44 85//44
f 85//45 84//45 86//45
f 85//45 86//45 87//45
f 87//46 86//46 33//46
f 87//46 33//46 88//46
f 88//19 33//19 35//19
f 34//17 33//17 89//17
f 40//17 38//17 89//17
f 89//17 38//17 37//17
f 89//17 37//17 34//17
f 46//17 44//17 89//17
f 89//17 44//17 42//17
f 89//17 42//17 40//17
f 52//17 50//17 89//17
f 89//17 50//17 48//17
f 89//17 48//17 46//17
f 58//17 56//17 89//17
f 89//17 56//17 54//17
f 89//17 54//17 52//17
f 64//17 62//17 89//17
f 89//17 62//17 60//17
f 89//17 60//17 58//17
f 70//17 68//17 89//17
f 89//17 68//17 66//17
f 89//17 66//17 64//17
f 76//17 74//17 89//17
f 89//17 74//17 72//17
f 89//17 72//17 70//17
f 82//17 80//17 89//17
f 89//17 80//17 78//17
f 89//17 78//17 76//17
f 33//17 86//17 89//17
f 89//17 86//17 84//17
f 89//17 84//17 82//17
f 35//18 36//18 90//18
f 85//18 87//18 90//18
f 90//18 87//18 88//18
f 90//18 88//18 35//18
f 79//18 81//18 90//18
f 90//18 81//18 83//18
f 90//18 83//18 85//18
f 73//18 75//18 90//18
f 90//18 75//18 77//18
f 90//18 77//18 79//18
f 67//18 69//18 90//18
f 90//18 69//18 71//18
f 90//18 71//18 73//18
f 61//18 63//18 90//18
f 90//18 63//18 65//18
f 90//18 65//18 67//18
f 55//18 57//18 90//18
f 90//18 57//18 59//18
f 90//18 59//18 61//18
f 49//18 51//18 90//18
f 90//18 51//18 53//18
f 90//18 53//18 55//18
f 43//18 45//18 90//18
f 90//18 45//18 47//18
f 90//18 47//18 49//18
f 36//18 39//18 90//18
f 90//18 39//18 41//18
f 90//18 41//18 43//18
f 91//7 92//7 93//7
f 91//7 93//7 94//7
f 94//6 93//6 95//6
f 94//6 95//6 96//6
f 96//5 95//5 97//5
f 96//5 97//5 98//5
f 99//4 98//4 100//4
f 100//4 98//4 97//4
f 99//3 100//3 101//3
f 99//3 101//3 102//3
f 102//2 101//2 103//2
f 102//2 103//2 104//2
f 104//1 103//1 105//1
f 104//1 105//1 106//1
f 107//16 106//16 108//16
f 108//16 106//16 105//16
f 107//15 108//15 109//15
f 107//15 109//15 110//15
f 110//14 109//14 111//14
f 110//14 111//14 112//14
f 112//13 111//13 113//13
f 112//13 113//13 114//13
f 115//12 114//12 116//12
f 116//12 114//12 113//12
f 115//11 116//11 117//11
f 115//11 117//11 118//11
f 118//10 117//10 119//10
f 118//10 119//10 120//10
f 120//9 119//9 121//9
f 120//9 121//9 122//9
f 91//8 122//8 92//8
f 92//8 122//8 121//8
f 99//18 114//18 98//18
f 98//18 114//18 115//18
f 110//18 112//18 107//18
f 107//18 112//18 114//18
f 107//18 114//18 106//18
f 106//18 114//18 99//18
f 106//18 99//18 104//18
f 104//18 99//18 102//18
f 94//18 96//18 91//18
f 91//18 96//18 98//18
f 91//18 98//18 122//18
f 122//18 98//18 115//18
f 122//18 115//18 120//18
f 120//18 115//18 118//18
f 113//17 100//17 116//17
f 116//17 100//17 97//17
f 103//17 101//17 105//17
f 105//17 101//17 100//17
f 105//17 100//17 108//17
f 108//17 100//17 113//17
f 108//17 113//17 109//17
f 109//17 113//17 111//17
f 119//17 117//17 121//17
f 121//17 117//17 116//17
f 121//17 116//17 92//17
f 92//17 116//17 97//17
f 92//17 97//17 93//17
f 93//17 97//17 95//17
f 123//47 124//47 125//47
f 125//48 124//48 126//48
f 124//48 127//48 126//48
f 126//49 127//49 128//49
f 126//49 128//49 129//49
f 129//50 128//50 130//50
f 129//50 130//50 131//50
f 131//51 130//51 132//51
f 131//51 132//51 133//51
f 133//52 132//52 134//52
f 133//52 134//52 135//52
f 135//53 134//53 136//53
f 135//53 136//53 137//53
f 137//54 136//54 138//54
f 137//54 138//54 139//54
f 139//55 138//55 140//55
f 139//55 140//55 141//55
f 141//56 140//56 142//56
f 141//56 142//56 143//56
f 143//57 142//57 144//57
f 143//57 144//57 145//57
f 145//58 144//58 146//58
f 145//58 146//58 147//58
f 147//59 146//59 148//59
f 147//59 148//59 149//59
f 149//60 148//60 150//60
f 149//60 150//60 151//60
f 151//61 150//61 152//61
f 151//61 152//61 153//61
f 153//62 152//62 154//62
f 153//62 154//62 155//62
f 155//63 154//63 156//63
f 155//63 156//63 157//63
f 157//64 156//64 158//64
f 157//64 158//64 159//64
f 159//65 158//65 160//65
f 159//65 160//65 161//65
f 161//66 160//66 162//66
f 161//66 162//66 163//66
f 163//67 162//67 164//67
f 163//67 164//67 165//67
f 165//68 164//68 166//68
f 165//68 166//68 167//68
f 167//69 166//69 168//69
f 167//69 168//69 169//69
f 169//70 168//70 170//70
f 169//70 170//70 171//70
f 171//71 170//71 172//71
f 171//71 172//71 173//71
f 173//72 172//72 174//72
f 173//72 174//72 175//72
f 175//73 174//73 176//73
f 175//73 176//73 177//73
f 177//74 176//74 123//74
f 177//74 123//74 178//74
f 178//47 123//47 125//47
f 124//18 123//18 179//18
f 130//18 128//18 179//18
f 179//18 128//18 127//18
f 179//18 127//18 124//18
f 136//18 134//18 179//18
f 179//18 134//18 132//18
f 179//18 132//18 130//18
f 142//18 140//18 179//18
f 179//18 140//18 138//18
f 179//18 138//18 136//18
f 148//18 146//18 179//18
f 179//18 146//18 144//18
f 179//18 144//18 142//18
f 154//18 152//18 179//18
f 179//18 152//18 150//18
f 179//18 150//18 148//18
f 160//18 158//18 179//18
f 179//18 158//18 156//18
f 179//18 156//18 154//18
f 166//18 164//18 179//18
f 179//18 164//18 162//18
f 179//18 162//18 160//18
f 172//18 170//18 179//18
f 179//18 170//18 168//18
f 179//18 168//18 166//18
f 123//18 176//18 179//18
f 179//18 176//18 174//18
f 179//18 174//18 172//18
f 125//17 126//17 180//17
f 175//17 177//17 180//17
f 180//17 177//17 178//17
f 180//17 178//17 125//17
f 169//17 171//17 180//17
f 180//17 171//17 173//17
f 180//17 173//17 175//17
f 163//17 165//17 180//17
f 180//17 165//17 167//17
f 180//17 167//17 169//17
f 157//17 159//17 180//17
f 180//17 159//17 161//17
f 180//17 161//17 163//17
f 151//17 153//17 180//17
f 180//17 153//17 155//17
f 180//17 155//17 157//17
f 145//17 147//17 180//17
f 180//17 147//17 149//17
f 180//17 149//17 151//17
f 139//17 141//17 180//17
f 180//17 141//17 143//17
f 180//17 143//17 145//17
f 133//17 135//17 180//17
f 180//17 135//17 137//17
f 180//17 137//17 139//17
f 126//17 129//17 180//17
f 180//17 129//17 131//17
f 180//17 131//17 133//17
# Vertices: 180, normals: 74, texture coordinates: 0, faces: 344

