<svg width="128" height="128" viewBox="0 0 128 128" fill="none" xmlns="http://www.w3.org/2000/svg">
<path d="M63.9689 9.00398C64.2049 9.00267 64.4408 9.00135 64.684 9C69.4764 9.07162 73.8707 11.0875 77.4118 14.2671C77.5872 14.424 77.7625 14.581 77.9431 14.7427C80.0483 16.7395 81.4671 19.2107 82.5329 21.9037C82.6177 22.1041 82.7025 22.3044 82.7898 22.5108C84.2933 26.7282 83.5711 31.9824 81.7832 36.0015C81.1221 37.3414 80.3461 38.5415 79.4475 39.7311C78.6112 40.8718 78.0717 42.0305 77.6167 43.3689C77.541 43.5896 77.541 43.5896 77.4638 43.8147C76.1683 48.4871 77.9226 53.8629 80.162 57.919C81.2376 59.7644 82.5372 61.3994 83.9669 62.9765C84.1134 63.1412 84.26 63.3058 84.411 63.4755C86.8819 66.1146 90.301 68.4372 93.7994 69.3747C94.1154 69.4746 94.1154 69.4746 94.4378 69.5764C97.6812 70.5107 101.092 70.3178 104.434 70.3166C105.765 70.3161 107.095 70.3191 108.426 70.3281C108.885 70.3301 109.344 70.3283 109.803 70.3263C111.514 70.329 113.057 70.5059 114.694 71.0259C114.838 71.0718 114.983 71.1178 115.132 71.1651C116.989 71.7968 118.503 72.6568 120.02 73.9154C120.179 74.0378 120.339 74.1602 120.503 74.2863C122.681 76.0571 124.366 78.9988 124.936 81.7585C124.988 82.6264 124.983 83.4949 124.987 84.3642C124.993 84.7166 124.993 84.7166 125 85.0761C125.013 87.987 124.068 90.5767 122.075 92.7297C119.772 94.8324 117.248 95.5907 114.204 95.4733C112.244 95.3292 110.607 94.4106 109.163 93.1102C108.988 92.9535 108.814 92.7968 108.634 92.6354C107.099 91.1758 105.947 89.5612 104.861 87.7439C104.785 87.6163 104.708 87.4887 104.63 87.3573C103.439 85.3329 103.439 85.3329 103.408 84.6335C103.775 83.9804 104.384 83.6529 105.002 83.2677C105.127 83.1846 105.253 83.1015 105.382 83.0158C106.161 82.5193 106.793 82.2567 107.729 82.1713C107.786 82.3612 107.843 82.5512 107.903 82.7469C108.797 85.6287 109.855 88.6659 112.44 90.4271C113.881 91.1568 115.625 91.1138 117.147 90.6569C118.655 89.9661 119.581 88.9451 120.301 87.4602C121.029 85.4064 120.944 83.2143 120.032 81.2554C118.314 78.23 115.885 76.4919 112.645 75.3602C108.855 74.4854 104.728 75.2763 100.968 75.9516C95.1041 76.9859 90.0146 76.0076 85.0111 72.6964C83.6873 71.7535 82.4813 70.7021 81.3039 69.5811C81.0888 69.3808 81.0888 69.3808 80.8694 69.1764C76.1109 64.5968 73.9919 57.8417 73.3149 51.4183C73.3099 51.0743 73.3084 50.7303 73.3149 50.3863C73.1797 50.3863 73.0445 50.3863 72.9052 50.3863C72.8111 53.4783 72.8624 56.3709 73.6038 59.3802C73.7265 59.8884 73.8356 60.3982 73.9423 60.9101C74.8319 65.0758 76.1764 69.1517 78.2312 72.8835C78.3392 73.095 78.4472 73.3065 78.5585 73.5244C81.2394 78.5486 86.2712 82.3473 91.5461 84.2352C92.229 84.4402 92.9151 84.629 93.6026 84.8173C97.3059 85.887 100.928 87.4323 103.837 90.0143C104.009 90.1585 104.182 90.3027 104.359 90.4513C107.464 93.1188 109.602 97.0692 110.027 101.18C110.312 105.078 109.162 108.448 106.781 111.531C104.642 114 101.39 115.929 98.1012 116.227C94.1472 116.461 90.3789 115.697 87.3212 113.027C84.9638 110.7 83.568 107.884 83.4932 104.514C83.5917 101.659 84.7697 99.593 86.8347 97.6509C88.8743 96.1292 90.8817 95.7868 93.3897 95.9998C95.6191 96.5306 97.1231 97.7059 98.5109 99.5085C99.2594 100.758 99.2641 102.009 99.1254 103.43C98.9077 104.191 98.9077 104.191 98.5109 104.668C97.7811 104.875 97.7811 104.875 97.0769 104.875C96.5173 104.311 96.6334 103.984 96.6288 103.198C96.5514 101.96 96.3154 101.3 95.4262 100.442C94.1164 99.4065 92.7454 99.3166 91.1364 99.5085C89.6776 99.9364 88.8963 100.843 88.1446 102.14C87.4629 103.741 87.671 105.638 88.2814 107.235C89.2557 109.29 90.8666 110.835 92.9288 111.763C95.0968 112.489 97.9917 112.477 100.085 111.533C102.551 110.183 103.987 108.637 104.861 105.907C105.445 102.975 104.913 100.027 103.389 97.4575C100.069 92.7099 94.6556 91.2072 89.3696 89.7515C84.7784 88.4768 81.0214 86.3438 77.6167 82.9968C77.4875 82.8795 77.3584 82.7622 77.2254 82.6413C69.7216 75.6527 67.8922 63.2568 67.3744 53.4823C67.3648 52.9312 67.3676 52.3823 67.3744 51.8311C67.2392 51.8311 67.104 51.8311 66.9647 51.8311C66.7164 53.3236 66.745 54.8067 66.7633 56.3151C66.7688 56.7996 66.7724 57.2842 66.7754 57.7688C66.7841 59.146 66.7936 60.5232 66.8104 61.9004C66.8718 67.1034 66.7368 72.1699 65.1979 77.192C65.1367 77.4043 65.0754 77.6166 65.0123 77.8353C64.7451 78.7502 64.4576 79.6378 64.0969 80.5201C63.9617 80.5201 63.8265 80.5201 63.6872 80.5201C63.0226 79.0194 62.6342 77.5544 62.3429 75.9407C62.3029 75.7338 62.2629 75.527 62.2217 75.3138C62.1102 74.7159 62.0087 74.1171 61.9131 73.5164C61.8653 73.2231 61.815 72.9302 61.7626 72.6378C61.0435 68.5718 61.1567 64.4758 61.1869 60.3626C61.1933 59.398 61.196 58.4333 61.1991 57.4687C61.2056 55.5895 61.216 53.7103 61.2291 51.8311C61.0939 51.8311 60.9587 51.8311 60.8194 51.8311C60.8093 51.9942 60.7993 52.1573 60.789 52.3253C60.5584 55.8302 60.1478 59.2856 59.5391 62.7443C59.5076 62.9243 59.4761 63.1044 59.4437 63.2899C57.9602 71.7116 54.9456 80.4976 47.7125 85.6703C44.2997 87.9544 40.4817 89.416 36.5324 90.4271C31.868 91.6228 27.3391 93.541 24.7444 97.8515C23.2793 100.37 22.7164 102.664 23.2623 105.597C23.9866 108.265 25.4352 109.958 27.7377 111.384C29.8303 112.458 32.5154 112.484 34.7649 111.894C35.3558 111.654 35.8939 111.391 36.4428 111.067C36.6667 110.939 36.8907 110.811 37.1214 110.68C38.8328 109.316 39.893 107.889 40.3349 105.7C40.498 103.78 40.266 102.39 39.0418 100.889C38.2909 100.019 37.5025 99.5657 36.3604 99.419C34.4083 99.411 34.4083 99.411 32.7556 100.334C31.8618 101.329 31.7002 101.919 31.6162 103.249C31.599 103.514 31.5818 103.778 31.5642 104.051C31.5517 104.255 31.5393 104.458 31.5265 104.668C30.9858 104.668 30.445 104.668 29.8878 104.668C29.2087 103.685 28.9106 102.935 28.9636 101.727C29.2916 99.9514 30.3098 98.3277 31.7314 97.2382C33.722 95.916 35.7467 95.7917 38.0816 95.9998C40.3836 96.5188 42.1369 98.1861 43.4596 100.083C44.7296 102.156 44.6743 104.756 44.3126 107.088C43.5641 110.142 41.6516 112.803 39.0194 114.49C35.6505 116.352 31.6958 116.789 27.9935 115.794C25.6559 115.093 23.8084 113.834 22.1037 112.099C21.8894 111.893 21.8894 111.893 21.6708 111.683C19.2488 109.196 18.3427 106.055 18.3525 102.656C18.3492 102.428 18.3459 102.201 18.3425 101.966C18.3412 99.7453 18.7638 97.7395 19.7864 95.7676C19.8581 95.6272 19.9299 95.4868 20.0038 95.3421C20.6416 94.131 21.3836 93.0866 22.3085 92.0783C22.5767 91.7797 22.5767 91.7797 22.8502 91.4752C26.0355 88.0373 30.1452 86.1864 34.5375 84.8097C41.4368 82.633 46.7765 79.0612 50.2193 72.4903C50.5636 71.8046 50.8827 71.1092 51.1917 70.4067C51.2528 70.2681 51.314 70.1295 51.377 69.9867C52.5002 67.3866 53.2123 64.6805 53.9049 61.9376C54.0399 61.4028 54.1778 60.8689 54.3172 60.3352C54.9785 57.7661 55.353 55.3677 55.3142 52.7083C55.3123 52.4635 55.3105 52.2187 55.3086 51.9665C55.3038 51.371 55.2971 50.7755 55.2886 50.1799C55.1534 50.1799 55.0182 50.1799 54.8789 50.1799C54.8656 50.3032 54.8524 50.4265 54.8387 50.5535C53.9361 58.718 51.281 65.9897 44.9359 71.4597C43.0637 72.9148 41.0761 74.0166 38.901 74.9474C38.5647 75.1035 38.5647 75.1035 38.2216 75.2627C33.806 77.0413 29.1883 76.54 24.6476 75.6855C22.6032 75.3041 20.6187 75.0298 18.5317 75.0248C18.2232 75.0216 18.2232 75.0216 17.9085 75.0184C15.5862 75.0626 13.5472 75.8885 11.6566 77.2178C11.5158 77.3165 11.3751 77.4152 11.2301 77.5169C9.55339 78.8397 8.2681 80.9921 7.55968 82.9968C7.49692 83.5608 7.46155 84.0612 7.47006 84.6222C7.47176 84.7672 7.47346 84.9122 7.47521 85.0616C7.54069 87.094 8.37857 88.4252 9.81298 89.8079C11.2987 91.0125 12.901 91.0278 14.7293 90.8399C16.4953 90.2396 17.7665 88.7862 18.6159 87.1544C19.3899 85.5532 20.0319 83.9 20.4649 82.1713C21.3541 82.1713 21.7205 82.3384 22.5006 82.7389C22.7094 82.8442 22.9183 82.9496 23.1335 83.0581C23.7315 83.4034 24.2416 83.787 24.7667 84.2352C24.656 85.3612 24.2548 86.1976 23.7296 87.1764C23.6469 87.3318 23.5641 87.4871 23.4788 87.6473C22.7978 88.8948 22.0215 89.9835 21.0795 91.0463C20.9342 91.2219 20.789 91.3975 20.6394 91.5784C18.9582 93.5635 16.9742 95.1501 14.3131 95.4233C11.3195 95.6143 8.99886 95.0094 6.62348 93.0998C4.52535 91.1765 3.23228 88.5366 3.05309 85.68C3.0391 85.4991 3.0251 85.3182 3.01068 85.1318C2.87899 81.79 3.96703 78.4841 6.15322 75.9628C6.60653 75.4689 7.07811 75.0007 7.55968 74.5346C7.73871 74.3518 7.73871 74.3518 7.92136 74.1654C10.3474 71.8568 14.0253 70.393 17.3213 70.3742C17.7226 70.371 17.7226 70.371 18.132 70.3677C18.3446 70.3667 18.3446 70.3667 18.5615 70.3656C19.0109 70.3631 19.4602 70.3591 19.9096 70.3546C21.1868 70.342 22.464 70.3308 23.7413 70.3239C24.5251 70.3195 25.3088 70.3121 26.0925 70.3031C26.3875 70.3002 26.6825 70.2984 26.9775 70.2977C32.6141 70.2836 37.9385 68.681 42.1785 64.834C42.3271 64.7087 42.4758 64.5834 42.629 64.4543C45.4014 62.1078 47.3631 59.0015 48.9384 55.7526C49.0374 55.5496 49.1364 55.3466 49.2384 55.1375C50.4697 52.4036 50.8559 49.6748 50.8844 46.697C50.8882 46.4666 50.892 46.2362 50.8958 45.9987C50.8808 43.9669 50.4432 42.0649 49.2968 40.3632C49.173 40.1759 49.0492 39.9886 48.9216 39.7956C48.6649 39.4333 48.401 39.076 48.1294 38.725C45.2907 35.0388 44.2445 30.6461 44.6366 26.0316C45.1699 21.9759 46.8888 18.3776 49.5529 15.2991C49.6567 15.1772 49.7605 15.0553 49.8674 14.9298C51.8387 12.786 54.4277 11.1526 57.1322 10.1392C57.2713 10.0864 57.4104 10.0337 57.5538 9.97942C59.6741 9.2143 61.7226 9.01461 63.9689 9.00398Z" fill="#6890CC"/>
<path d="M67.9889 69.5811C68.0565 69.5811 68.1241 69.5811 68.1938 69.5811C68.5838 71.533 68.8605 73.4646 69.0132 75.4505C69.5545 82.2723 71.8676 87.2108 76.0899 92.5322C78.8749 96.0994 80.3273 99.7475 80.3821 104.281C80.3859 104.522 80.3898 104.763 80.3938 105.012C80.3673 108.582 78.9277 111.729 76.5924 114.369C76.4559 114.528 76.3194 114.688 76.1787 114.852C74.1045 117.12 70.8694 118.84 67.7841 119C67.2224 118.993 66.8743 118.98 66.3926 118.684C65.8525 118.111 65.7362 117.704 65.7228 116.923C65.9691 116.135 66.1284 115.915 66.7599 115.401C67.3388 115.127 67.9366 114.918 68.5395 114.704C71.5029 113.594 73.2545 112.162 74.6752 109.275C75.3339 107.654 75.6834 106.178 75.6706 104.423C75.6696 104.235 75.6686 104.047 75.6675 103.854C75.6233 102.106 75.2517 100.692 74.544 99.0957C74.4621 98.9049 74.3803 98.7142 74.2959 98.5176C73.3156 96.4972 71.7402 94.8155 70.3062 93.1124C64.8102 86.5744 64.8102 86.5744 64.8647 83.0788C64.9518 82.2435 65.2633 81.5292 65.5948 80.7652C66.1843 79.3231 66.6504 77.9231 66.9647 76.3922C67.0167 76.1583 67.0688 75.9245 67.1224 75.6835C67.5535 73.661 67.7902 71.6381 67.9889 69.5811Z" fill="#756BC4"/>
<path d="M59.5903 69.5811C59.7255 69.5811 59.8607 69.5811 60 69.5811C60.0201 69.8509 60.0401 70.1207 60.0608 70.3986C60.4017 74.6408 61.3118 78.6131 62.9054 82.5663C63.3231 83.6416 63.0756 84.5419 62.6758 85.5768C61.4926 88.2641 59.8718 90.5609 57.9675 92.774C54.8148 96.4394 52.0186 100.386 52.3686 105.449C52.7247 108.576 54.3124 111.24 56.6833 113.236C57.8664 114.122 59.1955 114.606 60.572 115.102C60.8045 115.187 60.8045 115.187 61.0418 115.274C61.1813 115.324 61.3209 115.373 61.4646 115.424C61.9049 115.637 62.1567 115.839 62.4581 116.227C62.5853 117.219 62.6022 117.645 62.074 118.497C61.0315 119.169 60.0836 119.04 58.8981 118.819C55.188 117.839 51.9598 115.396 49.9242 112.137C47.7896 108.338 47.0473 104.058 48.1062 99.8052C48.9891 96.6053 50.7268 94.0265 52.7339 91.438C54.2402 89.48 55.5706 87.456 56.7225 85.2672C56.8215 85.0791 56.9205 84.891 57.0225 84.6972C58.7613 81.1347 59.0052 77.0238 59.3086 73.1286C59.3363 72.7828 59.364 72.4371 59.3919 72.0913C59.459 71.2547 59.525 70.4179 59.5903 69.5811Z" fill="#756CC3"/>
<path d="M32.8196 46.4834C34.9368 47.9995 36.6512 50.4503 37.1782 53.0453C37.5526 55.9123 37.149 58.5628 35.4186 60.9125C34.2943 62.326 32.9421 63.3937 31.1183 63.6539C28.7465 63.871 27.0689 63.4581 25.1892 61.9445C24.4933 61.2979 24.0078 60.7201 23.8705 59.7515C23.9473 59.2613 23.9473 59.2613 24.1905 58.8873C24.5618 58.6422 24.5618 58.6422 25.0355 58.5132C25.7949 58.6911 26.0161 59.1131 26.491 59.7104C27.1443 60.4694 27.7943 60.8326 28.7763 61.0052C30.0819 61.0878 30.9217 60.8234 31.9618 60.0281C32.9593 59.1089 33.5065 58.0093 33.6582 56.6677C33.7125 54.3347 33.2839 52.6006 31.6802 50.812C29.8734 49.1607 27.6559 48.6395 25.278 48.6852C23.3775 48.8178 21.8821 49.5133 20.4649 50.7991C18.3834 53.2205 17.8357 55.4683 17.971 58.611C18.2295 61.8164 20.2872 64.6987 22.6204 66.7608C23.1188 67.1838 23.6267 67.5928 24.1409 67.9961C24.2798 68.1105 24.4187 68.2249 24.5618 68.3428C24.5618 68.4109 24.5618 68.479 24.5618 68.5492C23.7243 68.6008 22.8875 68.6379 22.0488 68.6625C21.7645 68.6728 21.4804 68.6868 21.1966 68.7049C19.9656 68.781 18.8558 68.8432 17.7908 68.1304C17.2606 67.61 16.8087 67.0838 16.368 66.4852C16.221 66.2868 16.221 66.2868 16.071 66.0844C15.055 64.5749 14.3745 62.8733 13.9099 61.1189C13.8639 60.955 13.818 60.7911 13.7706 60.6223C12.972 57.3155 13.4643 53.6188 15.2038 50.6991C17.1903 47.7084 19.7491 45.5256 23.294 44.686C26.6369 44.0989 29.9482 44.6713 32.8196 46.4834Z" fill="#43C1E0"/>
<path d="M108.945 46.3358C109.295 46.5794 109.641 46.8285 109.982 47.084C110.127 47.1894 110.271 47.2947 110.42 47.4033C112.236 48.8555 113.621 51.0502 114.284 53.2759C114.33 53.4214 114.375 53.5669 114.422 53.7169C115.333 57.2927 114.726 61.3903 113.055 64.6276C112.548 65.4186 111.998 66.162 111.416 66.898C111.262 67.0971 111.262 67.0971 111.105 67.3003C110.69 67.8213 110.334 68.1752 109.777 68.5492C109.162 68.596 109.162 68.596 108.418 68.5895C108.152 68.5881 107.886 68.5868 107.612 68.5854C107.331 68.582 107.05 68.5785 106.769 68.5749C106.485 68.5729 106.202 68.571 105.918 68.5693C105.225 68.5644 104.531 68.5576 103.837 68.5492C104.404 67.8432 104.941 67.2024 105.642 66.6271C107.817 64.7403 109.839 62.2184 110.187 59.2613C110.37 56.2657 110.366 53.6297 108.366 51.2264C106.668 49.5479 104.652 48.7271 102.3 48.6578C100.157 48.7185 98.0053 49.3884 96.492 50.9966C94.9438 53.0111 94.6015 54.9009 94.8237 57.4038C95.2814 58.9464 96.0953 59.9125 97.457 60.7271C98.4322 61.1387 99.6164 61.0741 100.618 60.7706C101.359 60.4254 101.886 60.016 102.441 59.4161C103.017 58.8486 103.017 58.8485 103.581 58.7454C104.042 58.8485 104.042 58.8485 104.451 59.2613C104.567 59.8031 104.567 59.8031 104.451 60.4997C103.53 61.9026 102.161 63.0859 100.559 63.5957C98.1659 63.8928 96.2723 63.6678 94.3275 62.1856C92.4758 60.6399 91.4706 58.7611 91.1364 56.3718C90.8848 53.6564 91.4145 51.1793 93.0313 48.9545C93.2794 48.6678 93.5359 48.3883 93.7994 48.116C93.9513 47.9574 94.1031 47.7988 94.2595 47.6355C98.2317 43.7677 104.312 43.5182 108.945 46.3358Z" fill="#45C0E0"/>
<path d="M76.7973 66.6916C77.428 67.2931 77.9225 67.9257 78.4232 68.6394C81.7212 73.1434 86.5773 76.2622 91.9558 77.6306C92.084 77.6664 92.2121 77.7023 92.3442 77.7392C95.8474 78.6417 99.7084 78.189 103.197 77.4242C107.678 76.4537 111.667 76.1632 115.641 78.7399C116.487 79.3907 117.318 80.1486 117.766 81.1393C117.693 81.6013 117.693 81.6013 117.561 81.9649C117.283 81.6903 117.283 81.6903 116.998 81.4102C114.851 79.6104 112.546 79.4666 109.862 79.646C107.797 79.8485 106.033 80.8206 104.222 81.7657C103.166 82.3127 102.078 82.7779 100.969 83.2032C100.775 83.2791 100.58 83.3549 100.38 83.433C96.6326 84.5044 92.0727 82.9185 88.7551 81.1909C83.6293 78.1923 78.536 72.9387 76.8665 67.038C76.8323 66.8665 76.8323 66.8665 76.7973 66.6916Z" fill="#514FA2"/>
<path d="M50.782 66.898C50.9172 66.898 51.0524 66.898 51.1917 66.898C48.8646 73.0483 44.8362 78.6039 38.837 81.5005C36.5148 82.4818 34.0469 83.3958 31.5265 83.616C31.2897 83.6379 31.0528 83.6597 30.8088 83.6822C27.7452 83.8302 25.2986 82.4768 22.6446 81.1046C19.859 79.6743 16.6502 79.0884 13.5898 80.017C12.5905 80.4063 11.8007 80.9584 10.9892 81.6577C10.6324 81.9649 10.6324 81.9649 10.2227 82.1713C10.7091 80.4151 11.9442 79.1485 13.449 78.1724C17.6152 75.913 22.2758 76.7149 26.7032 77.7478C28.1512 78.0784 29.5585 78.1149 31.04 78.1079C31.294 78.1067 31.5479 78.1055 31.8096 78.1043C36.9378 78.036 42.0126 76.1496 45.8657 72.6771C46.0352 72.5331 46.2048 72.3892 46.3794 72.2409C47.943 70.8847 49.2903 69.3645 50.3595 67.5817C50.4989 67.3561 50.6383 67.1304 50.782 66.898Z" fill="#5150A1"/>
<path d="M94.6188 47.2904C94.6864 47.4947 94.754 47.699 94.8237 47.9096C94.7077 48.024 94.5918 48.1384 94.4724 48.2563C94.3221 48.4058 94.1719 48.5553 94.0171 48.7094C93.8674 48.8578 93.7176 49.0063 93.5634 49.1592C93.1733 49.534 93.1733 49.534 92.98 49.9735C92.8448 49.9054 92.7097 49.8373 92.5704 49.7671C93.8302 48.0238 93.8302 48.0238 94.6188 47.2904Z" fill="#4ABAD9"/>
<path d="M24.1521 48.116C25.2337 48.1841 26.3153 48.2522 27.4296 48.3224C27.4296 48.3905 27.4296 48.4586 27.4296 48.5288C27.1405 48.5475 27.1405 48.5475 26.8455 48.5667C26.5904 48.5839 26.3354 48.6012 26.0725 48.6191C25.8206 48.6358 25.5687 48.6526 25.3092 48.6699C24.6406 48.7283 23.9925 48.8199 23.3327 48.9416C23.3327 48.8053 23.3327 48.6691 23.3327 48.5288C23.6031 48.5288 23.8735 48.5288 24.1521 48.5288C24.1521 48.3925 24.1521 48.2563 24.1521 48.116Z" fill="#57B8D3"/>
<path d="M28.6587 44.8136C29.0178 44.9016 29.3761 44.9925 29.7342 45.0845C29.9338 45.1348 30.1334 45.1851 30.3391 45.2369C30.9099 45.4321 31.2752 45.6613 31.7314 46.052C30.8782 46.114 30.3691 45.9392 29.6189 45.536C29.438 45.4402 29.2572 45.3445 29.0708 45.2458C28.9348 45.1713 28.7988 45.0968 28.6587 45.02C28.6587 44.9519 28.6587 44.8838 28.6587 44.8136Z" fill="#51BBD3"/>
<path d="M116.128 71.6451C116.457 71.7677 116.785 71.8929 117.113 72.0192C117.388 72.1233 117.388 72.1233 117.668 72.2296C118.159 72.4628 118.439 72.6793 118.791 73.0899C117.795 72.9645 117 72.5269 116.128 72.0579C116.128 71.9217 116.128 71.7854 116.128 71.6451Z" fill="#6198BE"/>
<path d="M67.2772 42.2089C67.2772 44.0929 65.9686 45.2721 64.0987 45.2721C62.2288 45.2721 60.7129 44.0929 60.7129 42.2089C60.7129 40.3248 62.2288 43.3228 64.0987 43.3228C65.9686 43.3228 67.2772 40.3248 67.2772 42.2089Z" fill="#1D223F"/>
<path d="M58.3523 33.6456C58.3523 35.4912 56.8674 36.9873 55.0356 36.9873C53.2039 36.9873 51.719 35.4912 51.719 33.6456C51.719 31.8 53.2039 30.3038 55.0356 30.3038C56.8674 30.3038 58.3523 31.8 58.3523 33.6456Z" fill="#1D223F"/>
<path d="M76.4558 33.6456C76.4558 35.4912 74.9708 36.9873 73.1391 36.9873C71.3074 36.9873 69.8224 35.4912 69.8224 33.6456C69.8224 31.8 71.3074 30.3038 73.1391 30.3038C74.9708 30.3038 76.4558 31.8 76.4558 33.6456Z" fill="#1D223F"/>
</svg>
