<svg width="32" height="32" viewBox="0 0 32 32" fill="none" xmlns="http://www.w3.org/2000/svg">
<path d="M15.9923 3.00098C16.0504 3.00065 16.1084 3.00033 16.1682 3C17.3466 3.01758 18.4272 3.51238 19.298 4.29283C19.3411 4.33136 19.3842 4.36989 19.4286 4.40958C19.9463 4.89969 20.2952 5.50626 20.5573 6.16728C20.5781 6.21645 20.599 6.26562 20.6204 6.31629C20.9902 7.35146 20.8126 8.64113 20.3729 9.62764C20.2104 9.95653 20.0195 10.2511 19.7986 10.5431C19.5929 10.8231 19.4603 11.1075 19.3484 11.436C19.3298 11.4902 19.3298 11.4902 19.3108 11.5454C18.9922 12.6923 19.4236 14.0118 19.9743 15.0074C20.2388 15.4604 20.5583 15.8617 20.9099 16.2488C20.9459 16.2892 20.982 16.3296 21.0191 16.3713C21.6267 17.019 22.4675 17.5891 23.3277 17.8193C23.4054 17.8438 23.4054 17.8438 23.4847 17.8688C24.2823 18.0981 25.1209 18.0507 25.9427 18.0504C26.27 18.0503 26.5972 18.0511 26.9245 18.0533C27.0374 18.0537 27.1502 18.0533 27.263 18.0528C27.6839 18.0535 28.0633 18.0969 28.4656 18.2245C28.5012 18.2358 28.5369 18.2471 28.5735 18.2587C29.0301 18.4138 29.4025 18.6248 29.7753 18.9338C29.8145 18.9638 29.8537 18.9939 29.8942 19.0248C30.4297 19.4595 30.844 20.1815 30.9842 20.8589C30.997 21.0719 30.9959 21.2851 30.9968 21.4985C30.9984 21.585 30.9984 21.585 31 21.6732C31.0032 22.3877 30.7707 23.0234 30.2808 23.5518C29.7143 24.068 29.0938 24.2541 28.3452 24.2253C27.8633 24.1899 27.4609 23.9644 27.1056 23.6452C27.0627 23.6068 27.0198 23.5683 26.9755 23.5287C26.5982 23.1704 26.3149 22.7741 26.0478 22.3281C26.029 22.2967 26.0103 22.2654 25.991 22.2331C25.6982 21.7362 25.6982 21.7362 25.6905 21.5646C25.7808 21.4043 25.9305 21.3239 26.0824 21.2294C26.1133 21.2089 26.1442 21.1885 26.176 21.1675C26.3674 21.0456 26.5228 20.9812 26.753 20.9602C26.7671 21.0068 26.7812 21.0535 26.7957 21.1015C27.0158 21.8089 27.2757 22.5544 27.9116 22.9866C28.2659 23.1658 28.6946 23.1552 29.0689 23.043C29.4397 22.8735 29.6674 22.6229 29.8446 22.2584C30.0236 21.7543 30.0026 21.2162 29.7785 20.7354C29.3559 19.9928 28.7586 19.5662 27.9619 19.2884C27.03 19.0737 26.0152 19.2678 25.0905 19.4336C23.6485 19.6875 22.397 19.4473 21.1667 18.6346C20.8411 18.4031 20.5446 18.1451 20.2551 17.8699C20.2022 17.8207 20.2022 17.8207 20.1482 17.7706C18.9781 16.6465 18.457 14.9884 18.2906 13.4118C18.2893 13.3273 18.2889 13.2429 18.2906 13.1585C18.2573 13.1585 18.2241 13.1585 18.1898 13.1585C18.1667 13.9174 18.1793 14.6274 18.3616 15.366C18.3918 15.4908 18.4186 15.6159 18.4448 15.7416C18.6636 16.7641 18.9942 17.7645 19.4995 18.6805C19.526 18.7324 19.5526 18.7843 19.58 18.8378C20.2392 20.071 21.4765 21.0034 22.7736 21.4668C22.9416 21.5171 23.1103 21.5635 23.2793 21.6097C24.19 21.8723 25.0807 22.2516 25.7959 22.8853C25.8383 22.9207 25.8807 22.9561 25.9244 22.9926C26.6878 23.6473 27.2135 24.617 27.3181 25.626C27.3881 26.5828 27.1053 27.4099 26.52 28.1667C25.9939 28.7726 25.1942 29.2462 24.3855 29.3192C23.4133 29.3769 22.4866 29.1893 21.7347 28.534C21.155 27.9627 20.8118 27.2715 20.7934 26.4442C20.8176 25.7436 21.1073 25.2365 21.6151 24.7598C22.1166 24.3863 22.6103 24.3022 23.227 24.3545C23.7752 24.4848 24.145 24.7733 24.4863 25.2157C24.6703 25.5223 24.6715 25.8294 24.6374 26.1783C24.5839 26.3651 24.5839 26.3651 24.4863 26.4822C24.3068 26.5329 24.3068 26.5329 24.1337 26.5329C23.996 26.3945 24.0246 26.3142 24.0235 26.1213C24.0044 25.8174 23.9464 25.6555 23.7277 25.4449C23.4057 25.1907 23.0685 25.1686 22.6729 25.2157C22.3142 25.3208 22.122 25.5432 21.9372 25.8616C21.7696 26.2545 21.8207 26.7203 21.9708 27.1123C22.2104 27.6166 22.6065 27.9958 23.1136 28.2237C23.6468 28.4019 24.3586 28.3988 24.8733 28.1671C25.4798 27.8359 25.8328 27.4564 26.0478 26.7862C26.1915 26.0665 26.0607 25.3431 25.6858 24.7123C24.8694 23.547 23.5383 23.1781 22.2384 22.8208C21.1094 22.5079 20.1856 21.9844 19.3484 21.1629C19.3166 21.1341 19.2849 21.1053 19.2521 21.0756C17.4069 19.3602 16.9571 16.3176 16.8298 13.9184C16.8274 13.7831 16.8281 13.6484 16.8298 13.5131C16.7965 13.5131 16.7633 13.5131 16.729 13.5131C16.668 13.8794 16.675 14.2435 16.6795 14.6137C16.6809 14.7326 16.6817 14.8516 16.6825 14.9705C16.6846 15.3086 16.687 15.6466 16.6911 15.9846C16.7062 17.2618 16.673 18.5053 16.2946 19.738C16.2795 19.7901 16.2644 19.8423 16.2489 19.8959C16.1832 20.1205 16.1125 20.3384 16.0238 20.5549C15.9906 20.5549 15.9573 20.5549 15.9231 20.5549C15.7597 20.1866 15.6641 19.827 15.5925 19.4309C15.5827 19.3801 15.5728 19.3293 15.5627 19.277C15.5353 19.1303 15.5103 18.9833 15.4868 18.8358C15.4751 18.7639 15.4627 18.692 15.4498 18.6202C15.273 17.6222 15.3008 16.6168 15.3082 15.6072C15.3098 15.3704 15.3105 15.1336 15.3112 14.8969C15.3128 14.4356 15.3154 13.9743 15.3186 13.5131C15.2854 13.5131 15.2521 13.5131 15.2179 13.5131C15.2154 13.5531 15.2129 13.5932 15.2104 13.6344C15.1537 14.4947 15.0527 15.3428 14.9031 16.1918C14.8953 16.236 14.8876 16.2802 14.8796 16.3257C14.5148 18.3928 13.7735 20.5494 11.9949 21.8191C11.1557 22.3797 10.2168 22.7385 9.24568 22.9866C8.09869 23.2801 6.98503 23.751 6.34699 24.809C5.98671 25.4273 5.8483 25.9901 5.98254 26.7102C6.16064 27.3649 6.51686 27.7807 7.08304 28.1307C7.59761 28.3942 8.25788 28.4007 8.81103 28.2558C8.95635 28.197 9.08868 28.1323 9.22365 28.0527C9.27871 28.0214 9.33377 27.99 9.3905 27.9577C9.81135 27.6231 10.0721 27.2728 10.1807 26.7355C10.2208 26.2643 10.1638 25.9229 9.86274 25.5545C9.67809 25.3411 9.48423 25.2298 9.20338 25.1938C8.72336 25.1918 8.72336 25.1918 8.31695 25.4184C8.09717 25.6627 8.05743 25.8073 8.03676 26.134C8.03254 26.1989 8.02832 26.2638 8.02397 26.3307C8.02092 26.3807 8.01787 26.4307 8.01472 26.4822C7.88174 26.4822 7.74876 26.4822 7.61175 26.4822C7.44477 26.2408 7.37146 26.0567 7.38449 25.7603C7.46514 25.3244 7.71553 24.9259 8.0651 24.6585C8.55458 24.3339 9.05248 24.3034 9.62662 24.3545C10.1927 24.4819 10.6238 24.8911 10.9491 25.3568C11.2614 25.8656 11.2478 26.5039 11.1588 27.0761C10.9748 27.8258 10.5045 28.4789 9.85723 28.893C9.02881 29.35 8.05635 29.4574 7.14595 29.2131C6.57112 29.0411 6.11683 28.732 5.69763 28.306C5.64493 28.2556 5.64493 28.2556 5.59118 28.2041C4.99562 27.5935 4.7728 26.8225 4.77519 25.9883C4.77438 25.9324 4.77357 25.8765 4.77273 25.8189C4.77242 25.2739 4.87635 24.7815 5.1278 24.2975C5.14544 24.263 5.16309 24.2286 5.18127 24.1931C5.33811 23.8958 5.52056 23.6394 5.748 23.3919C5.81394 23.3187 5.81394 23.3187 5.88121 23.2439C6.66446 22.4001 7.67505 21.9457 8.75511 21.6078C10.4517 21.0736 11.7647 20.1968 12.6113 18.584C12.696 18.4157 12.7744 18.245 12.8504 18.0726C12.8654 18.0385 12.8805 18.0045 12.896 17.9695C13.1722 17.3313 13.3473 16.667 13.5176 15.9938C13.5508 15.8625 13.5847 15.7315 13.619 15.6005C13.7816 14.9699 13.8737 14.3812 13.8641 13.7284C13.8637 13.6683 13.8632 13.6082 13.8628 13.5463C13.8616 13.4001 13.8599 13.254 13.8578 13.1078C13.8246 13.1078 13.7914 13.1078 13.7571 13.1078C13.7538 13.1381 13.7506 13.1683 13.7472 13.1995C13.5253 15.2035 12.8724 16.9884 11.3121 18.331C10.8517 18.6882 10.363 18.9586 9.82811 19.1871C9.74542 19.2254 9.74542 19.2254 9.66105 19.2645C8.57524 19.7011 7.43975 19.578 6.32319 19.3683C5.82046 19.2746 5.33247 19.2073 4.81927 19.2061C4.74341 19.2053 4.74341 19.2053 4.66603 19.2045C4.09497 19.2154 3.59357 19.4181 3.12867 19.7444C3.09406 19.7686 3.05945 19.7928 3.02379 19.8178C2.61149 20.1425 2.29544 20.6708 2.12123 21.1629C2.1058 21.3013 2.0971 21.4241 2.0992 21.5618C2.09961 21.5974 2.10003 21.633 2.10046 21.6697C2.11656 22.1685 2.3226 22.4953 2.67532 22.8347C3.04067 23.1303 3.43468 23.1341 3.88424 23.088C4.31852 22.9406 4.63111 22.5839 4.83998 22.1834C5.0303 21.7903 5.18816 21.3845 5.29465 20.9602C5.5133 20.9602 5.60339 21.0012 5.79522 21.0995C5.84658 21.1254 5.89794 21.1513 5.95086 21.1779C6.09792 21.2626 6.22333 21.3568 6.35246 21.4668C6.32524 21.7432 6.22659 21.9485 6.09745 22.1887C6.07709 22.2269 6.05674 22.265 6.03577 22.3043C5.86831 22.6105 5.67741 22.8778 5.44577 23.1386C5.41005 23.1817 5.37434 23.2248 5.33755 23.2692C4.92416 23.7565 4.43627 24.1459 3.7819 24.213C3.04577 24.2599 2.47513 24.1114 1.89102 23.6427C1.37509 23.1706 1.05712 22.5226 1.01306 21.8215C1.00961 21.777 1.00617 21.7326 1.00263 21.6869C0.970244 20.8666 1.23779 20.0552 1.77538 19.4363C1.88685 19.3151 2.00281 19.2002 2.12123 19.0858C2.16526 19.0409 2.16526 19.0409 2.21017 18.9951C2.80673 18.4285 3.71114 18.0692 4.52163 18.0646C4.62031 18.0638 4.62031 18.0638 4.72099 18.063C4.77327 18.0627 4.77327 18.0627 4.8266 18.0625C4.93711 18.0619 5.0476 18.0609 5.1581 18.0598C5.47217 18.0567 5.78624 18.0539 6.10032 18.0522C6.29305 18.0511 6.48576 18.0493 6.67848 18.0471C6.75102 18.0464 6.82356 18.046 6.8961 18.0458C8.28215 18.0423 9.59144 17.649 10.6341 16.7047C10.6706 16.674 10.7072 16.6432 10.7448 16.6115C11.4266 16.0356 11.909 15.2731 12.2963 14.4756C12.3207 14.4258 12.345 14.376 12.3701 14.3246C12.6729 13.6536 12.7678 12.9838 12.7749 12.2529C12.7758 12.1963 12.7767 12.1398 12.7777 12.0815C12.774 11.5828 12.6664 11.1159 12.3845 10.6982C12.354 10.6523 12.3236 10.6063 12.2922 10.5589C12.2291 10.47 12.1642 10.3823 12.0974 10.2961C11.3994 9.39134 11.1421 8.31314 11.2385 7.18049C11.3697 6.18499 11.7923 5.30177 12.4474 4.54613C12.473 4.51622 12.4985 4.48631 12.5248 4.4555C13.0095 3.9293 13.6462 3.52837 14.3112 3.27961C14.3454 3.26667 14.3796 3.25373 14.4149 3.2404C14.9362 3.0526 15.44 3.00359 15.9923 3.00098Z" fill="#6890CC"/>
<path d="M16.9809 17.8699C16.9975 17.8699 17.0141 17.8699 17.0313 17.8699C17.1272 18.349 17.1952 18.8231 17.2327 19.3106C17.3659 20.985 17.9347 22.1972 18.9729 23.5033C19.6578 24.3789 20.0149 25.2744 20.0284 26.3873C20.0293 26.4464 20.0303 26.5056 20.0313 26.5665C20.0248 27.4427 19.6708 28.2153 19.0965 28.8633C19.0629 28.9024 19.0294 28.9415 18.9948 28.9818C18.4847 29.5386 17.6892 29.9607 16.9305 30C16.7924 29.9983 16.7068 29.9951 16.5883 29.9224C16.4555 29.7817 16.4269 29.6818 16.4237 29.4902C16.4842 29.2967 16.5234 29.2427 16.6787 29.1166C16.821 29.0494 16.968 28.998 17.1163 28.9456C17.845 28.673 18.2757 28.3216 18.6251 27.613C18.787 27.2151 18.873 26.8529 18.8698 26.4221C18.8696 26.376 18.8693 26.3298 18.8691 26.2823C18.8582 25.8533 18.7668 25.5061 18.5928 25.1144C18.5727 25.0676 18.5525 25.0208 18.5318 24.9725C18.2907 24.4766 17.9033 24.0638 17.5507 23.6458C16.1992 22.041 16.1992 22.041 16.2126 21.183C16.234 20.9779 16.3107 20.8026 16.3922 20.6151C16.5371 20.2611 16.6517 19.9175 16.729 19.5417C16.7418 19.4843 16.7546 19.4269 16.7678 19.3678C16.8738 18.8713 16.932 18.3748 16.9809 17.8699Z" fill="#756BC4"/>
<path d="M14.9156 17.8699C14.9489 17.8699 14.9821 17.8699 15.0164 17.8699C15.0213 17.9361 15.0263 18.0024 15.0313 18.0706C15.1152 19.1118 15.339 20.0868 15.7308 21.0572C15.8336 21.3211 15.7727 21.5421 15.6744 21.7961C15.3834 22.4557 14.9849 23.0195 14.5166 23.5627C13.7413 24.4624 13.0537 25.431 13.1398 26.6739C13.2274 27.4413 13.6178 28.0952 14.2008 28.5853C14.4917 28.8026 14.8186 28.9214 15.157 29.0433C15.2142 29.0642 15.2142 29.0642 15.2726 29.0855C15.3069 29.0977 15.3412 29.1098 15.3765 29.1223C15.4848 29.1745 15.5467 29.2241 15.6209 29.3192C15.6521 29.5629 15.6563 29.6675 15.5264 29.8765C15.27 30.0415 15.037 30.0099 14.7454 29.9555C13.8331 29.7151 13.0393 29.1154 12.5387 28.3155C12.0138 27.3831 11.8313 26.3324 12.0917 25.2885C12.3088 24.5031 12.7361 23.8701 13.2296 23.2348C13.6 22.7542 13.9272 22.2574 14.2104 21.7201C14.2348 21.674 14.2591 21.6278 14.2842 21.5802C14.7118 20.7058 14.7718 19.6967 14.8464 18.7406C14.8532 18.6558 14.86 18.5709 14.8669 18.4861C14.8834 18.2807 14.8996 18.0753 14.9156 17.8699Z" fill="#756CC3"/>
<path d="M8.3327 12.2005C8.85331 12.5726 9.27489 13.1742 9.40447 13.8111C9.49654 14.5148 9.39729 15.1654 8.97179 15.7422C8.69532 16.0891 8.3628 16.3512 7.91433 16.415C7.33111 16.4683 6.91859 16.367 6.45635 15.9955C6.28523 15.8368 6.16585 15.6949 6.13208 15.4572C6.15097 15.3369 6.15097 15.3369 6.21079 15.2451C6.30209 15.1849 6.30209 15.1849 6.41857 15.1532C6.6053 15.1969 6.65969 15.3005 6.77648 15.4471C6.93713 15.6334 7.09696 15.7225 7.33844 15.7649C7.65948 15.7852 7.866 15.7203 8.12176 15.5251C8.36703 15.2995 8.50161 15.0296 8.53891 14.7003C8.55226 14.1276 8.44686 13.702 8.0525 13.263C7.60821 12.8576 7.06293 12.7297 6.47819 12.7409C6.01086 12.7735 5.64313 12.9442 5.29465 13.2598C4.78279 13.8541 4.64813 14.4058 4.68139 15.1773C4.74496 15.964 5.25095 16.6715 5.82469 17.1777C5.94725 17.2815 6.07214 17.3819 6.19859 17.4809C6.23274 17.5089 6.2669 17.537 6.30209 17.566C6.30209 17.5827 6.30209 17.5994 6.30209 17.6166C6.09615 17.6293 5.89036 17.6384 5.68412 17.6444C5.61423 17.647 5.54437 17.6504 5.47457 17.6548C5.17186 17.6735 4.89897 17.6888 4.63709 17.5138C4.50671 17.3861 4.39559 17.2569 4.28722 17.11C4.25107 17.0613 4.25107 17.0613 4.21419 17.0116C3.96434 16.6411 3.79701 16.2234 3.68276 15.7928C3.67146 15.7526 3.66016 15.7124 3.64852 15.6709C3.45214 14.8593 3.57318 13.9519 4.00092 13.2352C4.48941 12.5012 5.11864 11.9654 5.99032 11.7593C6.81235 11.6152 7.6266 11.7557 8.3327 12.2005Z" fill="#43C1E0"/>
<path d="M27.0521 12.1642C27.1381 12.224 27.2232 12.2852 27.3071 12.3479C27.3426 12.3738 27.3781 12.3996 27.4147 12.4263C27.8613 12.7827 28.2019 13.3214 28.3649 13.8677C28.3761 13.9034 28.3874 13.9392 28.3989 13.976C28.6228 14.8537 28.4736 15.8594 28.0627 16.6541C27.9381 16.8482 27.8028 17.0307 27.6597 17.2113C27.6218 17.2602 27.6218 17.2602 27.5832 17.3101C27.4812 17.438 27.3936 17.5248 27.2567 17.6166C27.1055 17.6281 27.1055 17.6281 26.9224 17.6265C26.857 17.6262 26.7916 17.6259 26.7242 17.6255C26.6551 17.6247 26.586 17.6238 26.5169 17.6229C26.4472 17.6224 26.3775 17.622 26.3078 17.6216C26.1372 17.6204 25.9666 17.6187 25.7959 17.6166C25.9355 17.4433 26.0675 17.286 26.2398 17.1448C26.7747 16.6817 27.2718 16.0627 27.3575 15.3369C27.4023 14.6016 27.4016 13.9546 26.9096 13.3647C26.4923 12.9527 25.9964 12.7512 25.4182 12.7342C24.8911 12.7491 24.362 12.9135 23.9898 13.3083C23.6091 13.8027 23.525 14.2666 23.5796 14.8809C23.6921 15.2596 23.8923 15.4967 24.2271 15.6966C24.4669 15.7977 24.7581 15.7818 25.0044 15.7073C25.1865 15.6226 25.3161 15.5221 25.4528 15.3749C25.5945 15.2356 25.5945 15.2356 25.733 15.2102C25.8463 15.2356 25.8463 15.2356 25.9471 15.3369C25.9754 15.4699 25.9754 15.4699 25.9471 15.6408C25.7206 15.9852 25.3839 16.2756 24.99 16.4008C24.4014 16.4737 23.9358 16.4185 23.4576 16.0546C23.0022 15.6752 22.7551 15.2141 22.6729 14.6276C22.611 13.9611 22.7413 13.3531 23.1388 12.807C23.1999 12.7366 23.2629 12.668 23.3277 12.6012C23.3651 12.5623 23.4024 12.5233 23.4409 12.4832C24.4176 11.5339 25.9127 11.4727 27.0521 12.1642Z" fill="#45C0E0"/>
<path d="M19.1469 17.1607C19.302 17.3083 19.4236 17.4636 19.5467 17.6388C20.3577 18.7443 21.5518 19.5098 22.8744 19.8457C22.9059 19.8545 22.9374 19.8633 22.9699 19.8723C23.8313 20.0939 24.7808 19.9828 25.6385 19.795C26.7405 19.5568 27.7214 19.4855 28.6986 20.118C28.9067 20.2777 29.111 20.4637 29.2212 20.7069C29.2033 20.8203 29.2033 20.8203 29.1708 20.9096C29.1023 20.8422 29.1023 20.8422 29.0323 20.7734C28.5044 20.3316 27.9376 20.2963 27.2775 20.3404C26.7698 20.3901 26.336 20.6287 25.8906 20.8607C25.631 20.9949 25.3635 21.1091 25.0907 21.2135C25.0429 21.2321 24.9952 21.2507 24.9459 21.2699C24.0244 21.5329 22.9031 21.1436 22.0873 20.7196C20.8269 19.9836 19.5744 18.694 19.1639 17.2457C19.1555 17.2036 19.1555 17.2036 19.1469 17.1607Z" fill="#514FA2"/>
<path d="M12.7497 17.2113C12.7829 17.2113 12.8162 17.2113 12.8504 17.2113C12.2782 18.7209 11.2876 20.0846 9.81237 20.7956C9.24135 21.0364 8.63447 21.2608 8.01473 21.3148C7.95648 21.3202 7.89824 21.3256 7.83823 21.3311C7.08489 21.3674 6.48327 21.0352 5.83064 20.6984C5.14566 20.3473 4.35662 20.2035 3.60405 20.4314C3.35831 20.527 3.16411 20.6625 2.96457 20.8342C2.87681 20.9096 2.87681 20.9096 2.77607 20.9602C2.89567 20.5292 3.19939 20.2183 3.56942 19.9787C4.59391 19.4241 5.73994 19.6209 6.82865 19.8745C7.18472 19.9556 7.53078 19.9646 7.89509 19.9628C7.95754 19.9626 8.01998 19.9623 8.08432 19.962C9.34535 19.9452 10.5933 19.4822 11.5407 18.6298C11.5824 18.5945 11.6241 18.5592 11.6671 18.5228C12.0516 18.1899 12.3829 17.8168 12.6458 17.3791C12.6801 17.3238 12.7143 17.2684 12.7497 17.2113Z" fill="#5150A1"/>
<path d="M23.5292 12.3985C23.5458 12.4487 23.5625 12.4989 23.5796 12.5505C23.5511 12.5786 23.5226 12.6067 23.4932 12.6356C23.4563 12.6723 23.4193 12.709 23.3812 12.7468C23.3444 12.7833 23.3076 12.8197 23.2697 12.8573C23.1738 12.9492 23.1738 12.9492 23.1262 13.0571C23.093 13.0404 23.0598 13.0237 23.0255 13.0065C23.3353 12.5786 23.3353 12.5786 23.5292 12.3985Z" fill="#4ABAD9"/>
<path d="M6.20134 12.6012C6.4673 12.6179 6.73327 12.6346 7.00729 12.6519C7.00729 12.6686 7.00729 12.6853 7.00729 12.7025C6.93619 12.7071 6.93619 12.7071 6.86365 12.7118C6.80093 12.7161 6.7382 12.7203 6.67358 12.7247C6.61163 12.7288 6.54969 12.7329 6.48586 12.7371C6.32146 12.7515 6.16208 12.774 5.99986 12.8038C5.99986 12.7704 5.99986 12.737 5.99986 12.7025C6.06635 12.7025 6.13284 12.7025 6.20134 12.7025C6.20134 12.6691 6.20134 12.6356 6.20134 12.6012Z" fill="#57B8D3"/>
<path d="M7.30952 11.7906C7.39781 11.8122 7.48593 11.8345 7.57397 11.8571C7.62306 11.8695 7.67215 11.8818 7.72273 11.8945C7.86309 11.9424 7.95292 11.9987 8.0651 12.0946C7.8553 12.1098 7.73012 12.0669 7.54564 11.9679C7.50116 11.9444 7.45668 11.9209 7.41085 11.8967C7.37741 11.8784 7.34397 11.8601 7.30952 11.8413C7.30952 11.8246 7.30952 11.8078 7.30952 11.7906Z" fill="#51BBD3"/>
<path d="M28.8182 18.3765C28.8992 18.4066 28.98 18.4374 29.0607 18.4683C29.1282 18.4939 29.1282 18.4939 29.197 18.52C29.3179 18.5772 29.3866 18.6304 29.4731 18.7311C29.2283 18.7004 29.0328 18.593 28.8182 18.4778C28.8182 18.4444 28.8182 18.411 28.8182 18.3765Z" fill="#6198BE"/>
<path d="M16.8059 11.1513C16.8059 11.6137 16.4841 11.9032 16.0243 11.9032C15.5645 11.9032 15.1917 11.6137 15.1917 11.1513C15.1917 10.6888 15.5645 11.4247 16.0243 11.4247C16.4841 11.4247 16.8059 10.6888 16.8059 11.1513Z" fill="#1D223F"/>
<path d="M14.6112 9.04937C14.6112 9.50238 14.2461 9.86962 13.7957 9.86962C13.3452 9.86962 12.9801 9.50238 12.9801 9.04937C12.9801 8.59635 13.3452 8.22911 13.7957 8.22911C14.2461 8.22911 14.6112 8.59635 14.6112 9.04937Z" fill="#1D223F"/>
<path d="M19.0629 9.04937C19.0629 9.50238 18.6977 9.86962 18.2473 9.86962C17.7969 9.86962 17.4317 9.50238 17.4317 9.04937C17.4317 8.59635 17.7969 8.22912 18.2473 8.22912C18.6977 8.22912 19.0629 8.59635 19.0629 9.04937Z" fill="#1D223F"/>
</svg>
