<svg width="521" height="512" viewBox="0 0 521 512" fill="none" xmlns="http://www.w3.org/2000/svg">
<path d="M259.87 28.0165C260.856 28.0111 261.843 28.0056 262.859 28C282.893 28.2969 301.263 36.6535 316.066 49.8344C316.799 50.4851 317.532 51.1359 318.287 51.8063C327.087 60.0837 333.018 70.328 337.474 81.4918C337.828 82.3223 338.182 83.1528 338.548 84.0084C344.833 101.491 341.814 123.272 334.34 139.934C331.576 145.488 328.332 150.463 324.575 155.395C321.079 160.123 318.824 164.926 316.922 170.475C316.606 171.389 316.606 171.389 316.283 172.323C310.867 191.692 318.201 213.977 327.563 230.791C332.059 238.442 337.492 245.22 343.468 251.757C344.081 252.44 344.693 253.122 345.324 253.826C355.654 264.766 369.947 274.394 384.571 278.281C385.892 278.695 385.892 278.695 387.24 279.117C400.798 282.99 415.055 282.19 429.025 282.185C434.589 282.183 440.153 282.196 445.717 282.233C447.635 282.241 449.553 282.234 451.471 282.225C458.626 282.237 465.075 282.97 471.916 285.126C472.521 285.316 473.126 285.506 473.75 285.703C481.511 288.321 487.842 291.886 494.18 297.104C494.847 297.611 495.514 298.119 496.201 298.641C505.306 305.982 512.348 318.177 514.732 329.617C514.948 333.215 514.93 336.815 514.946 340.419C514.972 341.88 514.972 341.88 514.999 343.37C515.055 355.437 511.102 366.172 502.773 375.098C493.144 383.814 482.594 386.958 469.869 386.471C461.676 385.874 454.834 382.066 448.795 376.675C448.066 376.026 447.336 375.376 446.584 374.707C440.17 368.656 435.353 361.963 430.813 354.429C430.494 353.9 430.175 353.371 429.846 352.826C424.869 344.434 424.869 344.434 424.738 341.535C426.274 338.828 428.819 337.47 431.401 335.874C431.926 335.529 432.451 335.184 432.992 334.829C436.246 332.771 438.888 331.682 442.801 331.328C443.041 332.116 443.28 332.903 443.527 333.714C447.268 345.661 451.688 358.251 462.496 365.552C468.52 368.577 475.808 368.399 482.172 366.505C488.475 363.641 492.345 359.409 495.358 353.253C498.401 344.739 498.045 335.652 494.234 327.531C487.051 314.99 476.896 307.785 463.353 303.093C447.509 299.467 430.258 302.745 414.538 305.545C390.025 309.833 368.75 305.777 347.833 292.051C342.299 288.142 337.258 283.783 332.336 279.136C331.437 278.306 331.437 278.306 330.52 277.459C310.627 258.474 301.77 230.471 298.939 203.843C298.918 202.417 298.912 200.991 298.939 199.565C298.374 199.565 297.809 199.565 297.227 199.565C296.833 212.383 297.048 224.374 300.147 236.849C300.66 238.956 301.116 241.069 301.562 243.191C305.281 260.46 310.902 277.356 319.491 292.826C319.943 293.703 320.394 294.58 320.859 295.483C332.066 316.31 353.101 332.058 375.152 339.884C378.006 340.734 380.874 341.516 383.748 342.297C399.23 346.732 414.372 353.137 426.531 363.841C427.252 364.439 427.973 365.037 428.715 365.653C441.693 376.711 450.63 393.087 452.408 410.128C453.597 426.287 448.79 440.256 438.841 453.038C429.896 463.271 416.301 471.268 402.554 472.503C386.025 473.476 370.272 470.308 357.49 459.241C347.636 449.593 341.801 437.918 341.488 423.947C341.9 412.114 346.824 403.549 355.456 395.498C363.983 389.19 372.374 387.771 382.859 388.654C392.178 390.854 398.465 395.726 404.267 403.199C407.396 408.377 407.415 413.564 406.836 419.455C405.926 422.61 405.926 422.61 404.267 424.589C401.216 425.445 401.216 425.445 398.272 425.445C395.933 423.107 396.418 421.75 396.399 418.493C396.075 413.36 395.089 410.626 391.372 407.069C385.896 402.776 380.165 402.404 373.439 403.199C367.341 404.973 364.075 408.73 360.932 414.108C358.083 420.743 358.953 428.609 361.504 435.231C365.577 443.747 372.311 450.151 380.932 454C389.995 457.01 402.096 456.957 410.846 453.045C421.157 447.45 427.157 441.042 430.813 429.723C433.255 417.567 431.031 405.35 424.658 394.696C410.78 375.016 388.15 368.786 366.053 362.752C346.86 357.467 331.155 348.625 316.922 334.751C316.382 334.264 315.843 333.778 315.286 333.277C283.918 304.306 276.271 252.919 274.106 212.399C274.066 210.115 274.078 207.839 274.106 205.554C273.541 205.554 272.976 205.554 272.394 205.554C271.356 211.741 271.475 217.89 271.551 224.142C271.575 226.151 271.59 228.16 271.602 230.169C271.638 235.878 271.678 241.587 271.749 247.296C272.005 268.865 271.441 289.868 265.008 310.687C264.752 311.567 264.496 312.447 264.232 313.354C263.115 317.146 261.913 320.826 260.405 324.483C259.84 324.483 259.275 324.483 258.692 324.483C255.914 318.262 254.291 312.189 253.073 305.5C252.906 304.642 252.738 303.785 252.566 302.901C252.1 300.422 251.676 297.94 251.276 295.45C251.076 294.234 250.866 293.02 250.647 291.808C247.641 274.952 248.114 257.972 248.24 240.921C248.267 236.923 248.278 232.924 248.291 228.925C248.318 221.134 248.362 213.344 248.417 205.554C247.851 205.554 247.286 205.554 246.704 205.554C246.662 206.23 246.62 206.907 246.577 207.603C245.613 222.132 243.896 236.457 241.352 250.794C241.22 251.541 241.089 252.287 240.953 253.056C234.752 287.968 222.149 324.39 191.913 345.833C177.646 355.302 161.686 361.361 145.177 365.552C125.678 370.509 106.746 378.461 95.8987 396.33C89.7741 406.771 87.421 416.278 89.7032 428.439C92.7308 439.497 98.7867 446.518 108.412 452.43C117.159 456.88 128.384 456.99 137.788 454.542C140.258 453.55 142.507 452.457 144.802 451.113C145.738 450.583 146.674 450.054 147.639 449.508C154.793 443.856 159.225 437.941 161.072 428.867C161.754 420.908 160.784 415.143 155.667 408.921C152.528 405.316 149.232 403.436 144.457 402.828C136.297 402.795 136.297 402.795 129.388 406.621C125.652 410.747 124.976 413.19 124.625 418.707C124.553 419.803 124.481 420.899 124.408 422.029C124.356 422.874 124.304 423.719 124.25 424.589C121.99 424.589 119.729 424.589 117.4 424.589C114.561 420.512 113.315 417.402 113.536 412.397C114.907 405.035 119.164 398.304 125.107 393.787C133.428 388.306 141.892 387.791 151.653 388.654C161.276 390.805 168.605 397.717 174.134 405.582C179.443 414.175 179.212 424.954 177.7 434.619C174.571 447.28 166.576 458.311 155.573 465.304C141.49 473.022 124.958 474.836 109.481 470.71C99.709 467.805 91.9861 462.585 84.8596 455.391C83.9639 454.539 83.9639 454.539 83.05 453.67C72.9255 443.357 69.1377 430.336 69.1783 416.247C69.1645 415.303 69.1507 414.359 69.1365 413.386C69.1311 404.181 70.898 395.865 75.1725 387.691C75.4725 387.109 75.7725 386.527 76.0815 385.927C78.7478 380.907 81.8496 376.577 85.716 372.397C86.8369 371.16 86.8369 371.16 87.9805 369.897C101.296 355.645 118.476 347.973 136.837 342.265C165.679 333.242 188 318.435 202.392 291.196C203.832 288.354 205.165 285.471 206.457 282.559C206.713 281.984 206.968 281.409 207.232 280.817C211.927 270.039 214.904 258.821 217.799 247.451C218.364 245.234 218.94 243.02 219.523 240.808C222.287 230.157 223.853 220.215 223.69 209.191C223.683 208.176 223.675 207.161 223.667 206.116C223.647 203.647 223.619 201.178 223.583 198.71C223.018 198.71 222.453 198.71 221.871 198.71C221.815 199.221 221.76 199.732 221.703 200.258C217.93 234.104 206.83 264.248 180.306 286.924C172.479 292.956 164.171 297.523 155.078 301.382C153.672 302.029 153.672 302.029 152.238 302.689C133.779 310.062 114.476 307.984 95.4942 304.442C86.9477 302.861 78.6519 301.723 69.9276 301.703C68.638 301.69 68.638 301.69 67.3224 301.676C57.6144 301.86 49.0907 305.283 41.1873 310.794C40.599 311.203 40.0106 311.612 39.4045 312.034C32.3953 317.517 27.0224 326.44 24.061 334.751C23.7986 337.088 23.6507 339.163 23.6863 341.488C23.6934 342.09 23.7005 342.691 23.7079 343.31C23.9816 351.735 27.4842 357.254 33.4805 362.986C39.6914 367.979 46.3896 368.043 54.0321 367.264C61.4149 364.775 66.7288 358.75 70.2796 351.985C73.5151 345.348 76.1987 338.495 78.0091 331.328C81.726 331.328 83.2577 332.021 86.5187 333.681C87.3919 334.118 88.265 334.555 89.1646 335.005C91.6647 336.436 93.7967 338.026 95.9918 339.884C95.529 344.552 93.852 348.019 91.6567 352.077C91.3106 352.721 90.9646 353.365 90.608 354.029C87.7613 359.2 84.516 363.713 80.578 368.119C79.9709 368.847 79.3638 369.575 78.7383 370.325C71.7107 378.554 63.4165 385.131 52.2923 386.264C39.7782 387.055 30.0772 384.548 20.1473 376.632C11.3765 368.659 5.971 357.715 5.22194 345.873C5.16344 345.123 5.10493 344.373 5.04466 343.601C4.49415 329.748 9.04248 316.043 18.1815 305.591C20.0765 303.544 22.0478 301.603 24.061 299.671C24.8094 298.913 24.8094 298.913 25.5729 298.14C35.7144 288.57 51.0893 282.502 64.8676 282.424C66.5453 282.411 66.5453 282.411 68.2568 282.397C69.1455 282.393 69.1455 282.393 70.0522 282.388C71.9308 282.378 73.8092 282.361 75.6877 282.343C81.0269 282.29 86.366 282.244 91.7054 282.215C94.9818 282.197 98.2579 282.167 101.534 282.129C102.767 282.117 104.001 282.11 105.234 282.107C128.796 282.049 151.054 275.405 168.779 259.457C169.4 258.938 170.022 258.418 170.662 257.883C182.252 248.156 190.452 235.279 197.037 221.811C197.451 220.969 197.865 220.128 198.292 219.261C203.439 207.927 205.053 196.616 205.172 184.271C205.188 183.316 205.204 182.361 205.22 181.377C205.157 172.954 203.328 165.069 198.536 158.015C198.018 157.238 197.501 156.462 196.967 155.662C195.894 154.16 194.791 152.679 193.656 151.223C181.789 135.943 177.416 117.733 179.055 98.6038C181.284 81.7909 188.47 66.8743 199.606 54.1124C200.04 53.6073 200.474 53.1021 200.921 52.5817C209.162 43.6948 219.985 36.9237 231.29 32.7223C231.872 32.5038 232.453 32.2853 233.053 32.0602C241.916 28.8884 250.48 28.0606 259.87 28.0165Z" fill="#6890CC"/>
<path d="M276.675 279.136C276.958 279.136 277.24 279.136 277.531 279.136C279.162 287.228 280.318 295.235 280.957 303.468C283.22 331.747 292.889 352.219 310.54 374.279C322.182 389.067 328.254 404.19 328.482 422.985C328.499 423.984 328.515 424.983 328.531 426.013C328.421 440.811 322.403 453.858 312.64 464.802C312.07 465.463 311.499 466.124 310.911 466.804C302.24 476.208 288.716 483.336 275.819 484C273.471 483.972 272.015 483.917 270.002 482.69C267.744 480.314 267.258 478.627 267.202 475.39C268.232 472.123 268.898 471.21 271.537 469.08C273.957 467.946 276.456 467.077 278.976 466.193C291.365 461.588 298.687 455.654 304.626 443.686C307.379 436.967 308.84 430.849 308.787 423.573C308.783 422.794 308.779 422.015 308.774 421.212C308.589 413.967 307.036 408.103 304.077 401.488C303.735 400.697 303.393 399.906 303.04 399.091C298.942 390.716 292.356 383.744 286.362 376.684C263.387 349.581 263.387 349.581 263.615 335.09C263.979 331.628 265.281 328.667 266.667 325.499C269.131 319.521 271.08 313.718 272.393 307.371C272.611 306.402 272.828 305.432 273.052 304.433C274.855 296.049 275.844 287.663 276.675 279.136Z" fill="#756BC4"/>
<path d="M241.566 279.136C242.131 279.136 242.696 279.136 243.279 279.136C243.363 280.255 243.446 281.373 243.533 282.525C244.958 300.111 248.763 316.578 255.424 332.966C257.17 337.423 256.136 341.156 254.464 345.446C249.518 356.586 242.743 366.107 234.782 375.281C221.603 390.476 209.914 406.835 211.377 427.826C212.866 440.787 219.503 451.83 229.414 460.107C234.36 463.777 239.916 465.784 245.67 467.842C246.642 468.195 246.642 468.195 247.634 468.556C248.217 468.76 248.8 468.965 249.401 469.176C251.242 470.059 252.294 470.897 253.554 472.503C254.086 476.618 254.157 478.385 251.949 481.914C247.591 484.701 243.628 484.167 238.673 483.248C223.163 479.189 209.668 469.06 201.158 455.551C192.235 439.803 189.132 422.058 193.559 404.429C197.25 391.164 204.514 380.474 212.904 369.743C219.201 361.626 224.762 353.236 229.578 344.162C229.991 343.382 230.405 342.603 230.832 341.799C238.101 327.031 239.12 309.99 240.389 293.842C240.504 292.409 240.62 290.975 240.736 289.542C241.017 286.074 241.293 282.605 241.566 279.136Z" fill="#756CC3"/>
<path d="M129.656 183.386C138.506 189.671 145.673 199.83 147.876 210.588C149.441 222.473 147.754 233.46 140.52 243.201C135.82 249.061 130.168 253.487 122.544 254.565C112.629 255.465 105.616 253.754 97.7579 247.479C94.8489 244.799 92.8194 242.403 92.2454 238.388C92.5665 236.356 92.5665 236.356 93.5834 234.805C95.1355 233.789 95.1355 233.789 97.1157 233.255C100.29 233.992 101.215 235.742 103.2 238.218C105.931 241.364 108.648 242.87 112.754 243.585C118.211 243.928 121.722 242.832 126.07 239.535C130.24 235.724 132.527 231.166 133.161 225.604C133.388 215.933 131.597 208.744 124.893 201.33C117.34 194.484 108.07 192.324 98.1292 192.513C90.1846 193.063 83.9333 195.946 78.0091 201.276C69.3075 211.314 67.0182 220.632 67.5835 233.66C68.6644 246.948 77.2662 258.897 87.0197 267.445C89.1033 269.198 91.2263 270.894 93.376 272.566C93.9566 273.04 94.5372 273.514 95.1354 274.003C95.1354 274.285 95.1354 274.567 95.1354 274.858C91.6345 275.072 88.1361 275.226 84.6301 275.328C83.4419 275.371 82.2542 275.429 81.0676 275.504C75.9216 275.819 71.2824 276.077 66.8305 273.122C64.6141 270.965 62.7251 268.784 60.8827 266.302C60.2682 265.48 60.2682 265.48 59.6413 264.641C55.3938 258.383 52.5493 251.329 50.6069 244.057C50.4148 243.377 50.2227 242.698 50.0248 241.998C46.6864 228.29 48.7441 212.965 56.0157 200.862C64.32 188.464 75.0169 179.415 89.8355 175.935C103.81 173.501 117.652 175.874 129.656 183.386Z" fill="#43C1E0"/>
<path d="M447.885 182.774C449.347 183.784 450.794 184.816 452.221 185.875C452.824 186.312 453.428 186.749 454.05 187.199C461.641 193.219 467.432 202.317 470.203 211.544C470.394 212.147 470.585 212.75 470.782 213.372C474.588 228.195 472.05 245.182 465.065 258.602C462.948 261.881 460.647 264.962 458.215 268.013C457.571 268.839 457.571 268.839 456.914 269.681C455.181 271.841 453.692 273.308 451.364 274.858C448.793 275.053 448.793 275.053 445.681 275.025C444.569 275.02 443.457 275.014 442.311 275.009C441.136 274.994 439.962 274.98 438.787 274.965C437.602 274.957 436.418 274.949 435.233 274.942C432.332 274.922 429.432 274.893 426.531 274.858C428.903 271.932 431.148 269.275 434.077 266.89C443.17 259.069 451.621 248.615 453.077 236.356C453.84 223.938 453.827 213.011 445.464 203.048C438.368 196.09 429.939 192.687 420.109 192.399C411.148 192.651 402.153 195.428 395.827 202.095C389.355 210.446 387.924 218.28 388.853 228.656C390.766 235.05 394.169 239.056 399.861 242.432C403.938 244.139 408.888 243.871 413.074 242.613C416.171 241.182 418.374 239.484 420.697 236.998C423.106 234.645 423.106 234.645 425.461 234.217C427.387 234.645 427.387 234.645 429.1 236.356C429.582 238.602 429.582 238.602 429.1 241.49C425.25 247.305 419.525 252.211 412.83 254.324C402.824 255.556 394.909 254.623 386.779 248.478C379.038 242.071 374.836 234.282 373.439 224.378C372.387 213.121 374.602 202.852 381.36 193.629C382.397 192.441 383.47 191.283 384.571 190.153C385.206 189.496 385.841 188.839 386.495 188.162C403.1 172.128 428.517 171.094 447.885 182.774Z" fill="#45C0E0"/>
<path d="M313.497 267.158C316.134 269.652 318.201 272.274 320.294 275.233C334.081 293.904 354.381 306.832 376.864 312.505C377.4 312.653 377.936 312.802 378.488 312.955C393.133 316.696 409.273 314.82 423.855 311.649C442.589 307.626 459.263 306.422 475.876 317.104C479.415 319.801 482.888 322.943 484.761 327.05C484.456 328.965 484.456 328.965 483.904 330.473C482.739 329.334 482.739 329.334 481.549 328.173C472.575 320.712 462.939 320.116 451.718 320.86C443.087 321.699 435.711 325.729 428.14 329.647C423.726 331.915 419.18 333.843 414.542 335.606C413.73 335.921 412.918 336.235 412.081 336.559C396.415 341 377.353 334.426 363.484 327.264C342.057 314.833 320.765 293.055 313.786 268.594C313.643 267.883 313.643 267.883 313.497 267.158Z" fill="#514FA2"/>
<path d="M204.744 268.013C205.31 268.013 205.875 268.013 206.457 268.013C196.729 293.509 179.889 316.54 154.81 328.547C145.103 332.615 134.786 336.404 124.25 337.317C123.26 337.408 122.27 337.498 121.25 337.591C108.443 338.205 98.2156 332.595 87.1209 326.906C75.4762 320.977 62.0625 318.548 49.2689 322.398C45.0913 324.012 41.7899 326.3 38.3976 329.199C36.9058 330.473 36.9058 330.473 35.1931 331.328C37.2264 324.048 42.3896 318.797 48.6802 314.751C66.0965 305.385 85.5791 308.709 104.087 312.991C110.14 314.362 116.023 314.513 122.217 314.483C123.278 314.479 124.34 314.474 125.433 314.469C146.871 314.186 168.086 306.365 184.193 291.97C184.901 291.374 185.61 290.777 186.34 290.162C192.876 284.54 198.509 278.238 202.978 270.848C203.561 269.912 204.144 268.977 204.744 268.013Z" fill="#5150A1"/>
<path d="M387.997 186.731C388.279 187.578 388.562 188.425 388.853 189.298C388.368 189.772 387.884 190.246 387.385 190.735C386.756 191.355 386.128 191.975 385.481 192.613C384.855 193.229 384.229 193.844 383.585 194.478C381.954 196.032 381.954 196.032 381.146 197.854C380.581 197.572 380.016 197.289 379.433 196.998C384.7 189.771 384.7 189.771 387.997 186.731Z" fill="#4ABAD9"/>
<path d="M93.4228 190.153C97.9442 190.436 102.466 190.718 107.124 191.009C107.124 191.291 107.124 191.574 107.124 191.865C105.915 191.942 105.915 191.942 104.682 192.022C103.616 192.093 102.549 192.165 101.451 192.239C100.398 192.309 99.3447 192.378 98.2597 192.45C95.4649 192.692 92.7554 193.071 89.9975 193.576C89.9975 193.011 89.9975 192.446 89.9975 191.865C91.1279 191.865 92.2582 191.865 93.4228 191.865C93.4228 191.3 93.4228 190.735 93.4228 190.153Z" fill="#57B8D3"/>
<path d="M112.262 176.464C113.763 176.828 115.261 177.205 116.758 177.587C117.592 177.795 118.427 178.004 119.286 178.218C121.673 179.028 123.2 179.978 125.107 181.597C121.54 181.854 119.412 181.13 116.276 179.458C115.52 179.061 114.764 178.664 113.985 178.255C113.416 177.946 112.848 177.638 112.262 177.319C112.262 177.037 112.262 176.755 112.262 176.464Z" fill="#51BBD3"/>
<path d="M477.91 287.692C479.287 288.201 480.66 288.72 482.031 289.243C483.179 289.675 483.179 289.675 484.349 290.115C486.404 291.082 487.573 291.979 489.042 293.682C484.881 293.162 481.558 291.348 477.91 289.404C477.91 288.839 477.91 288.274 477.91 287.692Z" fill="#6198BE"/>
<path d="M273.7 165.666C273.7 173.476 268.229 178.365 260.413 178.365C252.596 178.365 246.259 173.476 246.259 165.666C246.259 157.856 252.596 170.284 260.413 170.284C268.229 170.284 273.7 157.856 273.7 165.666Z" fill="#1D223F"/>
<path d="M236.391 130.167C236.391 137.818 230.183 144.02 222.526 144.02C214.869 144.02 208.661 137.818 208.661 130.167C208.661 122.516 214.869 116.314 222.526 116.314C230.183 116.314 236.391 122.516 236.391 130.167Z" fill="#1D223F"/>
<path d="M312.069 130.167C312.069 137.818 305.862 144.02 298.204 144.02C290.547 144.02 284.34 137.818 284.34 130.167C284.34 122.516 290.547 116.314 298.204 116.314C305.862 116.314 312.069 122.516 312.069 130.167Z" fill="#1D223F"/>
</svg>
